<?xml version="1.0" encoding="utf-8" standalone="no"?>
<!DOCTYPE svg PUBLIC "-//W3C//DTD SVG 1.1//EN"
  "http://www.w3.org/Graphics/SVG/1.1/DTD/svg11.dtd">
<svg xmlns:xlink="http://www.w3.org/1999/xlink" width="771.357906pt" height="397.444062pt" viewBox="0 0 771.357906 397.444062" xmlns="http://www.w3.org/2000/svg" version="1.1">
 <metadata>
  <rdf:RDF xmlns:dc="http://purl.org/dc/elements/1.1/" xmlns:cc="http://creativecommons.org/ns#" xmlns:rdf="http://www.w3.org/1999/02/22-rdf-syntax-ns#">
   <cc:Work>
    <dc:type rdf:resource="http://purl.org/dc/dcmitype/StillImage"/>
    <dc:date>2025-10-01T01:40:33.979406</dc:date>
    <dc:format>image/svg+xml</dc:format>
    <dc:creator>
     <cc:Agent>
      <dc:title>Matplotlib v3.10.6, https://matplotlib.org/</dc:title>
     </cc:Agent>
    </dc:creator>
   </cc:Work>
  </rdf:RDF>
 </metadata>
 <defs>
  <style type="text/css">*{stroke-linejoin: round; stroke-linecap: butt}</style>
 </defs>
 <g id="figure_1">
  <g id="patch_1">
   <path d="M 0 397.444062 
L 771.357906 397.444062 
L 771.357906 0 
L 0 0 
z
" style="fill: #ffffff"/>
  </g>
  <g id="axes_1">
   <g id="patch_2">
    <path d="M 56.565 351.1775 
L 764.157906 351.1775 
L 764.157906 25.4575 
L 56.565 25.4575 
z
" style="fill: #ffffff"/>
   </g>
   <g id="matplotlib.axis_1">
    <g id="xtick_1">
     <g id="line2d_1">
      <path d="M 88.728314 351.1775 
L 88.728314 25.4575 
" clip-path="url(#p32f0791384)" style="fill: none; stroke: #b0b0b0; stroke-opacity: 0.3; stroke-width: 0.8; stroke-linecap: square"/>
     </g>
     <g id="line2d_2">
      <defs>
       <path id="m99b8c583b2" d="M 0 0 
L 0 3.5 
" style="stroke: #000000; stroke-width: 1.5"/>
      </defs>
      <g>
       <use xlink:href="#m99b8c583b2" x="88.728314" y="351.1775" style="stroke: #000000; stroke-width: 1.5"/>
      </g>
     </g>
     <g id="text_1">
      <!-- 0 -->
      <g transform="translate(84.592689 368.055469) scale(0.13 -0.13)">
       <defs>
        <path id="DejaVuSans-30" d="M 2034 4250 
Q 1547 4250 1301 3770 
Q 1056 3291 1056 2328 
Q 1056 1369 1301 889 
Q 1547 409 2034 409 
Q 2525 409 2770 889 
Q 3016 1369 3016 2328 
Q 3016 3291 2770 3770 
Q 2525 4250 2034 4250 
z
M 2034 4750 
Q 2819 4750 3233 4129 
Q 3647 3509 3647 2328 
Q 3647 1150 3233 529 
Q 2819 -91 2034 -91 
Q 1250 -91 836 529 
Q 422 1150 422 2328 
Q 422 3509 836 4129 
Q 1250 4750 2034 4750 
z
" transform="scale(0.015625)"/>
       </defs>
       <use xlink:href="#DejaVuSans-30"/>
      </g>
     </g>
    </g>
    <g id="xtick_2">
     <g id="line2d_3">
      <path d="M 218.681097 351.1775 
L 218.681097 25.4575 
" clip-path="url(#p32f0791384)" style="fill: none; stroke: #b0b0b0; stroke-opacity: 0.3; stroke-width: 0.8; stroke-linecap: square"/>
     </g>
     <g id="line2d_4">
      <g>
       <use xlink:href="#m99b8c583b2" x="218.681097" y="351.1775" style="stroke: #000000; stroke-width: 1.5"/>
      </g>
     </g>
     <g id="text_2">
      <!-- 20 -->
      <g transform="translate(210.409847 368.055469) scale(0.13 -0.13)">
       <defs>
        <path id="DejaVuSans-32" d="M 1228 531 
L 3431 531 
L 3431 0 
L 469 0 
L 469 531 
Q 828 903 1448 1529 
Q 2069 2156 2228 2338 
Q 2531 2678 2651 2914 
Q 2772 3150 2772 3378 
Q 2772 3750 2511 3984 
Q 2250 4219 1831 4219 
Q 1534 4219 1204 4116 
Q 875 4013 500 3803 
L 500 4441 
Q 881 4594 1212 4672 
Q 1544 4750 1819 4750 
Q 2544 4750 2975 4387 
Q 3406 4025 3406 3419 
Q 3406 3131 3298 2873 
Q 3191 2616 2906 2266 
Q 2828 2175 2409 1742 
Q 1991 1309 1228 531 
z
" transform="scale(0.015625)"/>
       </defs>
       <use xlink:href="#DejaVuSans-32"/>
       <use xlink:href="#DejaVuSans-30" transform="translate(63.623047 0)"/>
      </g>
     </g>
    </g>
    <g id="xtick_3">
     <g id="line2d_5">
      <path d="M 348.633881 351.1775 
L 348.633881 25.4575 
" clip-path="url(#p32f0791384)" style="fill: none; stroke: #b0b0b0; stroke-opacity: 0.3; stroke-width: 0.8; stroke-linecap: square"/>
     </g>
     <g id="line2d_6">
      <g>
       <use xlink:href="#m99b8c583b2" x="348.633881" y="351.1775" style="stroke: #000000; stroke-width: 1.5"/>
      </g>
     </g>
     <g id="text_3">
      <!-- 40 -->
      <g transform="translate(340.362631 368.055469) scale(0.13 -0.13)">
       <defs>
        <path id="DejaVuSans-34" d="M 2419 4116 
L 825 1625 
L 2419 1625 
L 2419 4116 
z
M 2253 4666 
L 3047 4666 
L 3047 1625 
L 3713 1625 
L 3713 1100 
L 3047 1100 
L 3047 0 
L 2419 0 
L 2419 1100 
L 313 1100 
L 313 1709 
L 2253 4666 
z
" transform="scale(0.015625)"/>
       </defs>
       <use xlink:href="#DejaVuSans-34"/>
       <use xlink:href="#DejaVuSans-30" transform="translate(63.623047 0)"/>
      </g>
     </g>
    </g>
    <g id="xtick_4">
     <g id="line2d_7">
      <path d="M 478.586664 351.1775 
L 478.586664 25.4575 
" clip-path="url(#p32f0791384)" style="fill: none; stroke: #b0b0b0; stroke-opacity: 0.3; stroke-width: 0.8; stroke-linecap: square"/>
     </g>
     <g id="line2d_8">
      <g>
       <use xlink:href="#m99b8c583b2" x="478.586664" y="351.1775" style="stroke: #000000; stroke-width: 1.5"/>
      </g>
     </g>
     <g id="text_4">
      <!-- 60 -->
      <g transform="translate(470.315414 368.055469) scale(0.13 -0.13)">
       <defs>
        <path id="DejaVuSans-36" d="M 2113 2584 
Q 1688 2584 1439 2293 
Q 1191 2003 1191 1497 
Q 1191 994 1439 701 
Q 1688 409 2113 409 
Q 2538 409 2786 701 
Q 3034 994 3034 1497 
Q 3034 2003 2786 2293 
Q 2538 2584 2113 2584 
z
M 3366 4563 
L 3366 3988 
Q 3128 4100 2886 4159 
Q 2644 4219 2406 4219 
Q 1781 4219 1451 3797 
Q 1122 3375 1075 2522 
Q 1259 2794 1537 2939 
Q 1816 3084 2150 3084 
Q 2853 3084 3261 2657 
Q 3669 2231 3669 1497 
Q 3669 778 3244 343 
Q 2819 -91 2113 -91 
Q 1303 -91 875 529 
Q 447 1150 447 2328 
Q 447 3434 972 4092 
Q 1497 4750 2381 4750 
Q 2619 4750 2861 4703 
Q 3103 4656 3366 4563 
z
" transform="scale(0.015625)"/>
       </defs>
       <use xlink:href="#DejaVuSans-36"/>
       <use xlink:href="#DejaVuSans-30" transform="translate(63.623047 0)"/>
      </g>
     </g>
    </g>
    <g id="xtick_5">
     <g id="line2d_9">
      <path d="M 608.539448 351.1775 
L 608.539448 25.4575 
" clip-path="url(#p32f0791384)" style="fill: none; stroke: #b0b0b0; stroke-opacity: 0.3; stroke-width: 0.8; stroke-linecap: square"/>
     </g>
     <g id="line2d_10">
      <g>
       <use xlink:href="#m99b8c583b2" x="608.539448" y="351.1775" style="stroke: #000000; stroke-width: 1.5"/>
      </g>
     </g>
     <g id="text_5">
      <!-- 80 -->
      <g transform="translate(600.268198 368.055469) scale(0.13 -0.13)">
       <defs>
        <path id="DejaVuSans-38" d="M 2034 2216 
Q 1584 2216 1326 1975 
Q 1069 1734 1069 1313 
Q 1069 891 1326 650 
Q 1584 409 2034 409 
Q 2484 409 2743 651 
Q 3003 894 3003 1313 
Q 3003 1734 2745 1975 
Q 2488 2216 2034 2216 
z
M 1403 2484 
Q 997 2584 770 2862 
Q 544 3141 544 3541 
Q 544 4100 942 4425 
Q 1341 4750 2034 4750 
Q 2731 4750 3128 4425 
Q 3525 4100 3525 3541 
Q 3525 3141 3298 2862 
Q 3072 2584 2669 2484 
Q 3125 2378 3379 2068 
Q 3634 1759 3634 1313 
Q 3634 634 3220 271 
Q 2806 -91 2034 -91 
Q 1263 -91 848 271 
Q 434 634 434 1313 
Q 434 1759 690 2068 
Q 947 2378 1403 2484 
z
M 1172 3481 
Q 1172 3119 1398 2916 
Q 1625 2713 2034 2713 
Q 2441 2713 2670 2916 
Q 2900 3119 2900 3481 
Q 2900 3844 2670 4047 
Q 2441 4250 2034 4250 
Q 1625 4250 1398 4047 
Q 1172 3844 1172 3481 
z
" transform="scale(0.015625)"/>
       </defs>
       <use xlink:href="#DejaVuSans-38"/>
       <use xlink:href="#DejaVuSans-30" transform="translate(63.623047 0)"/>
      </g>
     </g>
    </g>
    <g id="xtick_6">
     <g id="line2d_11">
      <path d="M 738.492232 351.1775 
L 738.492232 25.4575 
" clip-path="url(#p32f0791384)" style="fill: none; stroke: #b0b0b0; stroke-opacity: 0.3; stroke-width: 0.8; stroke-linecap: square"/>
     </g>
     <g id="line2d_12">
      <g>
       <use xlink:href="#m99b8c583b2" x="738.492232" y="351.1775" style="stroke: #000000; stroke-width: 1.5"/>
      </g>
     </g>
     <g id="text_6">
      <!-- 100 -->
      <g transform="translate(726.085357 368.055469) scale(0.13 -0.13)">
       <defs>
        <path id="DejaVuSans-31" d="M 794 531 
L 1825 531 
L 1825 4091 
L 703 3866 
L 703 4441 
L 1819 4666 
L 2450 4666 
L 2450 531 
L 3481 531 
L 3481 0 
L 794 0 
L 794 531 
z
" transform="scale(0.015625)"/>
       </defs>
       <use xlink:href="#DejaVuSans-31"/>
       <use xlink:href="#DejaVuSans-30" transform="translate(63.623047 0)"/>
       <use xlink:href="#DejaVuSans-30" transform="translate(127.246094 0)"/>
      </g>
     </g>
    </g>
    <g id="text_7">
     <!-- Iterations -->
     <g transform="translate(372.260203 386.916562) scale(0.16 -0.16)">
      <defs>
       <path id="DejaVuSans-49" d="M 628 4666 
L 1259 4666 
L 1259 0 
L 628 0 
L 628 4666 
z
" transform="scale(0.015625)"/>
       <path id="DejaVuSans-74" d="M 1172 4494 
L 1172 3500 
L 2356 3500 
L 2356 3053 
L 1172 3053 
L 1172 1153 
Q 1172 725 1289 603 
Q 1406 481 1766 481 
L 2356 481 
L 2356 0 
L 1766 0 
Q 1100 0 847 248 
Q 594 497 594 1153 
L 594 3053 
L 172 3053 
L 172 3500 
L 594 3500 
L 594 4494 
L 1172 4494 
z
" transform="scale(0.015625)"/>
       <path id="DejaVuSans-65" d="M 3597 1894 
L 3597 1613 
L 953 1613 
Q 991 1019 1311 708 
Q 1631 397 2203 397 
Q 2534 397 2845 478 
Q 3156 559 3463 722 
L 3463 178 
Q 3153 47 2828 -22 
Q 2503 -91 2169 -91 
Q 1331 -91 842 396 
Q 353 884 353 1716 
Q 353 2575 817 3079 
Q 1281 3584 2069 3584 
Q 2775 3584 3186 3129 
Q 3597 2675 3597 1894 
z
M 3022 2063 
Q 3016 2534 2758 2815 
Q 2500 3097 2075 3097 
Q 1594 3097 1305 2825 
Q 1016 2553 972 2059 
L 3022 2063 
z
" transform="scale(0.015625)"/>
       <path id="DejaVuSans-72" d="M 2631 2963 
Q 2534 3019 2420 3045 
Q 2306 3072 2169 3072 
Q 1681 3072 1420 2755 
Q 1159 2438 1159 1844 
L 1159 0 
L 581 0 
L 581 3500 
L 1159 3500 
L 1159 2956 
Q 1341 3275 1631 3429 
Q 1922 3584 2338 3584 
Q 2397 3584 2469 3576 
Q 2541 3569 2628 3553 
L 2631 2963 
z
" transform="scale(0.015625)"/>
       <path id="DejaVuSans-61" d="M 2194 1759 
Q 1497 1759 1228 1600 
Q 959 1441 959 1056 
Q 959 750 1161 570 
Q 1363 391 1709 391 
Q 2188 391 2477 730 
Q 2766 1069 2766 1631 
L 2766 1759 
L 2194 1759 
z
M 3341 1997 
L 3341 0 
L 2766 0 
L 2766 531 
Q 2569 213 2275 61 
Q 1981 -91 1556 -91 
Q 1019 -91 701 211 
Q 384 513 384 1019 
Q 384 1609 779 1909 
Q 1175 2209 1959 2209 
L 2766 2209 
L 2766 2266 
Q 2766 2663 2505 2880 
Q 2244 3097 1772 3097 
Q 1472 3097 1187 3025 
Q 903 2953 641 2809 
L 641 3341 
Q 956 3463 1253 3523 
Q 1550 3584 1831 3584 
Q 2591 3584 2966 3190 
Q 3341 2797 3341 1997 
z
" transform="scale(0.015625)"/>
       <path id="DejaVuSans-69" d="M 603 3500 
L 1178 3500 
L 1178 0 
L 603 0 
L 603 3500 
z
M 603 4863 
L 1178 4863 
L 1178 4134 
L 603 4134 
L 603 4863 
z
" transform="scale(0.015625)"/>
       <path id="DejaVuSans-6f" d="M 1959 3097 
Q 1497 3097 1228 2736 
Q 959 2375 959 1747 
Q 959 1119 1226 758 
Q 1494 397 1959 397 
Q 2419 397 2687 759 
Q 2956 1122 2956 1747 
Q 2956 2369 2687 2733 
Q 2419 3097 1959 3097 
z
M 1959 3584 
Q 2709 3584 3137 3096 
Q 3566 2609 3566 1747 
Q 3566 888 3137 398 
Q 2709 -91 1959 -91 
Q 1206 -91 779 398 
Q 353 888 353 1747 
Q 353 2609 779 3096 
Q 1206 3584 1959 3584 
z
" transform="scale(0.015625)"/>
       <path id="DejaVuSans-6e" d="M 3513 2113 
L 3513 0 
L 2938 0 
L 2938 2094 
Q 2938 2591 2744 2837 
Q 2550 3084 2163 3084 
Q 1697 3084 1428 2787 
Q 1159 2491 1159 1978 
L 1159 0 
L 581 0 
L 581 3500 
L 1159 3500 
L 1159 2956 
Q 1366 3272 1645 3428 
Q 1925 3584 2291 3584 
Q 2894 3584 3203 3211 
Q 3513 2838 3513 2113 
z
" transform="scale(0.015625)"/>
       <path id="DejaVuSans-73" d="M 2834 3397 
L 2834 2853 
Q 2591 2978 2328 3040 
Q 2066 3103 1784 3103 
Q 1356 3103 1142 2972 
Q 928 2841 928 2578 
Q 928 2378 1081 2264 
Q 1234 2150 1697 2047 
L 1894 2003 
Q 2506 1872 2764 1633 
Q 3022 1394 3022 966 
Q 3022 478 2636 193 
Q 2250 -91 1575 -91 
Q 1294 -91 989 -36 
Q 684 19 347 128 
L 347 722 
Q 666 556 975 473 
Q 1284 391 1588 391 
Q 1994 391 2212 530 
Q 2431 669 2431 922 
Q 2431 1156 2273 1281 
Q 2116 1406 1581 1522 
L 1381 1569 
Q 847 1681 609 1914 
Q 372 2147 372 2553 
Q 372 3047 722 3315 
Q 1072 3584 1716 3584 
Q 2034 3584 2315 3537 
Q 2597 3491 2834 3397 
z
" transform="scale(0.015625)"/>
      </defs>
      <use xlink:href="#DejaVuSans-49"/>
      <use xlink:href="#DejaVuSans-74" transform="translate(29.492188 0)"/>
      <use xlink:href="#DejaVuSans-65" transform="translate(68.701172 0)"/>
      <use xlink:href="#DejaVuSans-72" transform="translate(130.224609 0)"/>
      <use xlink:href="#DejaVuSans-61" transform="translate(171.337891 0)"/>
      <use xlink:href="#DejaVuSans-74" transform="translate(232.617188 0)"/>
      <use xlink:href="#DejaVuSans-69" transform="translate(271.826172 0)"/>
      <use xlink:href="#DejaVuSans-6f" transform="translate(299.609375 0)"/>
      <use xlink:href="#DejaVuSans-6e" transform="translate(360.791016 0)"/>
      <use xlink:href="#DejaVuSans-73" transform="translate(424.169922 0)"/>
     </g>
    </g>
   </g>
   <g id="matplotlib.axis_2">
    <g id="ytick_1">
     <g id="line2d_13">
      <path d="M 56.565 120.927347 
L 764.157906 120.927347 
" clip-path="url(#p32f0791384)" style="fill: none; stroke: #b0b0b0; stroke-opacity: 0.3; stroke-width: 0.8; stroke-linecap: square"/>
     </g>
     <g id="line2d_14">
      <defs>
       <path id="m789cf6c0e6" d="M 0 0 
L -3.5 0 
" style="stroke: #000000; stroke-width: 1.5"/>
      </defs>
      <g>
       <use xlink:href="#m789cf6c0e6" x="56.565" y="120.927347" style="stroke: #000000; stroke-width: 1.5"/>
      </g>
     </g>
     <g id="text_8">
      <!-- $\mathdefault{10^{1}}$ -->
      <g transform="translate(26.685 125.866331) scale(0.13 -0.13)">
       <use xlink:href="#DejaVuSans-31" transform="translate(0 0.684375)"/>
       <use xlink:href="#DejaVuSans-30" transform="translate(63.623047 0.684375)"/>
       <use xlink:href="#DejaVuSans-31" transform="translate(128.203125 38.965625) scale(0.7)"/>
      </g>
     </g>
    </g>
    <g id="ytick_2">
     <g id="line2d_15">
      <defs>
       <path id="m0c49a98b8b" d="M 0 0 
L -2 0 
" style="stroke: #000000; stroke-width: 0.6"/>
      </defs>
      <g>
       <use xlink:href="#m0c49a98b8b" x="56.565" y="301.467172" style="stroke: #000000; stroke-width: 0.6"/>
      </g>
     </g>
    </g>
    <g id="ytick_3">
     <g id="line2d_16">
      <g>
       <use xlink:href="#m0c49a98b8b" x="56.565" y="257.500453" style="stroke: #000000; stroke-width: 0.6"/>
      </g>
     </g>
    </g>
    <g id="ytick_4">
     <g id="line2d_17">
      <g>
       <use xlink:href="#m0c49a98b8b" x="56.565" y="221.577027" style="stroke: #000000; stroke-width: 0.6"/>
      </g>
     </g>
    </g>
    <g id="ytick_5">
     <g id="line2d_18">
      <g>
       <use xlink:href="#m0c49a98b8b" x="56.565" y="191.204203" style="stroke: #000000; stroke-width: 0.6"/>
      </g>
     </g>
    </g>
    <g id="ytick_6">
     <g id="line2d_19">
      <g>
       <use xlink:href="#m0c49a98b8b" x="56.565" y="164.894067" style="stroke: #000000; stroke-width: 0.6"/>
      </g>
     </g>
    </g>
    <g id="ytick_7">
     <g id="line2d_20">
      <g>
       <use xlink:href="#m0c49a98b8b" x="56.565" y="141.686882" style="stroke: #000000; stroke-width: 0.6"/>
      </g>
     </g>
    </g>
    <g id="text_9">
     <!-- Distance to the equilibrium -->
     <g transform="translate(19.3575 297.27625) rotate(-90) scale(0.16 -0.16)">
      <defs>
       <path id="DejaVuSans-44" d="M 1259 4147 
L 1259 519 
L 2022 519 
Q 2988 519 3436 956 
Q 3884 1394 3884 2338 
Q 3884 3275 3436 3711 
Q 2988 4147 2022 4147 
L 1259 4147 
z
M 628 4666 
L 1925 4666 
Q 3281 4666 3915 4102 
Q 4550 3538 4550 2338 
Q 4550 1131 3912 565 
Q 3275 0 1925 0 
L 628 0 
L 628 4666 
z
" transform="scale(0.015625)"/>
       <path id="DejaVuSans-63" d="M 3122 3366 
L 3122 2828 
Q 2878 2963 2633 3030 
Q 2388 3097 2138 3097 
Q 1578 3097 1268 2742 
Q 959 2388 959 1747 
Q 959 1106 1268 751 
Q 1578 397 2138 397 
Q 2388 397 2633 464 
Q 2878 531 3122 666 
L 3122 134 
Q 2881 22 2623 -34 
Q 2366 -91 2075 -91 
Q 1284 -91 818 406 
Q 353 903 353 1747 
Q 353 2603 823 3093 
Q 1294 3584 2113 3584 
Q 2378 3584 2631 3529 
Q 2884 3475 3122 3366 
z
" transform="scale(0.015625)"/>
       <path id="DejaVuSans-20" transform="scale(0.015625)"/>
       <path id="DejaVuSans-68" d="M 3513 2113 
L 3513 0 
L 2938 0 
L 2938 2094 
Q 2938 2591 2744 2837 
Q 2550 3084 2163 3084 
Q 1697 3084 1428 2787 
Q 1159 2491 1159 1978 
L 1159 0 
L 581 0 
L 581 4863 
L 1159 4863 
L 1159 2956 
Q 1366 3272 1645 3428 
Q 1925 3584 2291 3584 
Q 2894 3584 3203 3211 
Q 3513 2838 3513 2113 
z
" transform="scale(0.015625)"/>
       <path id="DejaVuSans-71" d="M 947 1747 
Q 947 1113 1208 752 
Q 1469 391 1925 391 
Q 2381 391 2643 752 
Q 2906 1113 2906 1747 
Q 2906 2381 2643 2742 
Q 2381 3103 1925 3103 
Q 1469 3103 1208 2742 
Q 947 2381 947 1747 
z
M 2906 525 
Q 2725 213 2448 61 
Q 2172 -91 1784 -91 
Q 1150 -91 751 415 
Q 353 922 353 1747 
Q 353 2572 751 3078 
Q 1150 3584 1784 3584 
Q 2172 3584 2448 3432 
Q 2725 3281 2906 2969 
L 2906 3500 
L 3481 3500 
L 3481 -1331 
L 2906 -1331 
L 2906 525 
z
" transform="scale(0.015625)"/>
       <path id="DejaVuSans-75" d="M 544 1381 
L 544 3500 
L 1119 3500 
L 1119 1403 
Q 1119 906 1312 657 
Q 1506 409 1894 409 
Q 2359 409 2629 706 
Q 2900 1003 2900 1516 
L 2900 3500 
L 3475 3500 
L 3475 0 
L 2900 0 
L 2900 538 
Q 2691 219 2414 64 
Q 2138 -91 1772 -91 
Q 1169 -91 856 284 
Q 544 659 544 1381 
z
M 1991 3584 
L 1991 3584 
z
" transform="scale(0.015625)"/>
       <path id="DejaVuSans-6c" d="M 603 4863 
L 1178 4863 
L 1178 0 
L 603 0 
L 603 4863 
z
" transform="scale(0.015625)"/>
       <path id="DejaVuSans-62" d="M 3116 1747 
Q 3116 2381 2855 2742 
Q 2594 3103 2138 3103 
Q 1681 3103 1420 2742 
Q 1159 2381 1159 1747 
Q 1159 1113 1420 752 
Q 1681 391 2138 391 
Q 2594 391 2855 752 
Q 3116 1113 3116 1747 
z
M 1159 2969 
Q 1341 3281 1617 3432 
Q 1894 3584 2278 3584 
Q 2916 3584 3314 3078 
Q 3713 2572 3713 1747 
Q 3713 922 3314 415 
Q 2916 -91 2278 -91 
Q 1894 -91 1617 61 
Q 1341 213 1159 525 
L 1159 0 
L 581 0 
L 581 4863 
L 1159 4863 
L 1159 2969 
z
" transform="scale(0.015625)"/>
       <path id="DejaVuSans-6d" d="M 3328 2828 
Q 3544 3216 3844 3400 
Q 4144 3584 4550 3584 
Q 5097 3584 5394 3201 
Q 5691 2819 5691 2113 
L 5691 0 
L 5113 0 
L 5113 2094 
Q 5113 2597 4934 2840 
Q 4756 3084 4391 3084 
Q 3944 3084 3684 2787 
Q 3425 2491 3425 1978 
L 3425 0 
L 2847 0 
L 2847 2094 
Q 2847 2600 2669 2842 
Q 2491 3084 2119 3084 
Q 1678 3084 1418 2786 
Q 1159 2488 1159 1978 
L 1159 0 
L 581 0 
L 581 3500 
L 1159 3500 
L 1159 2956 
Q 1356 3278 1631 3431 
Q 1906 3584 2284 3584 
Q 2666 3584 2933 3390 
Q 3200 3197 3328 2828 
z
" transform="scale(0.015625)"/>
      </defs>
      <use xlink:href="#DejaVuSans-44"/>
      <use xlink:href="#DejaVuSans-69" transform="translate(77.001953 0)"/>
      <use xlink:href="#DejaVuSans-73" transform="translate(104.785156 0)"/>
      <use xlink:href="#DejaVuSans-74" transform="translate(156.884766 0)"/>
      <use xlink:href="#DejaVuSans-61" transform="translate(196.09375 0)"/>
      <use xlink:href="#DejaVuSans-6e" transform="translate(257.373047 0)"/>
      <use xlink:href="#DejaVuSans-63" transform="translate(320.751953 0)"/>
      <use xlink:href="#DejaVuSans-65" transform="translate(375.732422 0)"/>
      <use xlink:href="#DejaVuSans-20" transform="translate(437.255859 0)"/>
      <use xlink:href="#DejaVuSans-74" transform="translate(469.042969 0)"/>
      <use xlink:href="#DejaVuSans-6f" transform="translate(508.251953 0)"/>
      <use xlink:href="#DejaVuSans-20" transform="translate(569.433594 0)"/>
      <use xlink:href="#DejaVuSans-74" transform="translate(601.220703 0)"/>
      <use xlink:href="#DejaVuSans-68" transform="translate(640.429688 0)"/>
      <use xlink:href="#DejaVuSans-65" transform="translate(703.808594 0)"/>
      <use xlink:href="#DejaVuSans-20" transform="translate(765.332031 0)"/>
      <use xlink:href="#DejaVuSans-65" transform="translate(797.119141 0)"/>
      <use xlink:href="#DejaVuSans-71" transform="translate(858.642578 0)"/>
      <use xlink:href="#DejaVuSans-75" transform="translate(922.119141 0)"/>
      <use xlink:href="#DejaVuSans-69" transform="translate(985.498047 0)"/>
      <use xlink:href="#DejaVuSans-6c" transform="translate(1013.28125 0)"/>
      <use xlink:href="#DejaVuSans-69" transform="translate(1041.064453 0)"/>
      <use xlink:href="#DejaVuSans-62" transform="translate(1068.847656 0)"/>
      <use xlink:href="#DejaVuSans-72" transform="translate(1132.324219 0)"/>
      <use xlink:href="#DejaVuSans-69" transform="translate(1173.4375 0)"/>
      <use xlink:href="#DejaVuSans-75" transform="translate(1201.220703 0)"/>
      <use xlink:href="#DejaVuSans-6d" transform="translate(1264.599609 0)"/>
     </g>
    </g>
   </g>
   <g id="line2d_21">
    <path d="M 88.728314 40.262955 
L 95.225953 43.985441 
L 101.723592 47.583489 
L 108.221231 51.061491 
L 114.718871 54.423793 
L 121.21651 57.674677 
L 127.714149 60.818349 
L 134.211788 63.858928 
L 140.709427 66.800434 
L 147.207067 69.646782 
L 153.704706 72.401776 
L 160.202345 75.069103 
L 166.699984 77.652327 
L 173.197623 80.154893 
L 179.695262 82.580119 
L 186.192902 84.931199 
L 192.690541 87.211204 
L 199.18818 89.42308 
L 205.685819 91.569655 
L 212.183458 93.653633 
L 218.681097 95.677608 
L 225.178737 97.644055 
L 231.676376 99.555343 
L 238.174015 101.413733 
L 244.671654 103.221383 
L 251.169293 104.980354 
L 257.666932 106.69261 
L 264.164572 108.360025 
L 270.662211 109.984383 
L 277.15985 111.567388 
L 283.657489 113.110662 
L 290.155128 114.615751 
L 296.652768 116.084127 
L 303.150407 117.517196 
L 309.648046 118.916295 
L 316.145685 120.282699 
L 322.643324 121.617624 
L 329.140963 122.922229 
L 335.638603 124.19762 
L 342.136242 125.44485 
L 348.633881 126.664925 
L 355.13152 127.858805 
L 361.629159 129.027405 
L 368.126798 130.171601 
L 374.624438 131.292228 
L 381.122077 132.390083 
L 387.619716 133.46593 
L 394.117355 134.520497 
L 400.614994 135.554482 
L 407.112634 136.568551 
L 413.610273 137.563344 
L 420.107912 138.539472 
L 426.605551 139.497519 
L 433.10319 140.438047 
L 439.600829 141.361594 
L 446.098469 142.268675 
L 452.596108 143.159784 
L 459.093747 144.035396 
L 465.591386 144.895966 
L 472.089025 145.741933 
L 478.586664 146.573715 
L 485.084304 147.391717 
L 491.581943 148.196326 
L 498.079582 148.987917 
L 504.577221 149.766849 
L 511.07486 150.533466 
L 517.5725 151.288103 
L 524.070139 152.03108 
L 530.567778 152.762705 
L 537.065417 153.483276 
L 543.563056 154.19308 
L 550.060695 154.892395 
L 556.558335 155.581487 
L 563.055974 156.260614 
L 569.553613 156.930025 
L 576.051252 157.589961 
L 582.548891 158.240653 
L 589.04653 158.882326 
L 595.54417 159.515198 
L 602.041809 160.139478 
L 608.539448 160.755368 
L 615.037087 161.363066 
L 621.534726 161.962761 
L 628.032366 162.554638 
L 634.530005 163.138875 
L 641.027644 163.715644 
L 647.525283 164.285112 
L 654.022922 164.847443 
L 660.520561 165.402793 
L 667.018201 165.951314 
L 673.51584 166.493155 
L 680.013479 167.028459 
L 686.511118 167.557365 
L 693.008757 168.080009 
L 699.506396 168.596522 
L 706.004036 169.107031 
L 712.501675 169.611661 
L 718.999314 170.110531 
L 725.496953 170.603759 
L 731.994592 171.091459 
" clip-path="url(#p32f0791384)" style="fill: none; stroke: #1f77b4; stroke-opacity: 0.95; stroke-width: 2.4; stroke-linecap: square"/>
    <defs>
     <path id="mfe4b2df1b4" d="M 0 1.6 
C 0.424325 1.6 0.831328 1.431414 1.131371 1.131371 
C 1.431414 0.831328 1.6 0.424325 1.6 0 
C 1.6 -0.424325 1.431414 -0.831328 1.131371 -1.131371 
C 0.831328 -1.431414 0.424325 -1.6 0 -1.6 
C -0.424325 -1.6 -0.831328 -1.431414 -1.131371 -1.131371 
C -1.431414 -0.831328 -1.6 -0.424325 -1.6 0 
C -1.6 0.424325 -1.431414 0.831328 -1.131371 1.131371 
C -0.831328 1.431414 -0.424325 1.6 0 1.6 
z
" style="stroke: #000000; stroke-opacity: 0.95; stroke-width: 0.6"/>
    </defs>
    <g clip-path="url(#p32f0791384)">
     <use xlink:href="#mfe4b2df1b4" x="88.728314" y="40.262955" style="fill: #1f77b4; fill-opacity: 0.95; stroke: #000000; stroke-opacity: 0.95; stroke-width: 0.6"/>
     <use xlink:href="#mfe4b2df1b4" x="101.723592" y="47.583489" style="fill: #1f77b4; fill-opacity: 0.95; stroke: #000000; stroke-opacity: 0.95; stroke-width: 0.6"/>
     <use xlink:href="#mfe4b2df1b4" x="114.718871" y="54.423793" style="fill: #1f77b4; fill-opacity: 0.95; stroke: #000000; stroke-opacity: 0.95; stroke-width: 0.6"/>
     <use xlink:href="#mfe4b2df1b4" x="127.714149" y="60.818349" style="fill: #1f77b4; fill-opacity: 0.95; stroke: #000000; stroke-opacity: 0.95; stroke-width: 0.6"/>
     <use xlink:href="#mfe4b2df1b4" x="140.709427" y="66.800434" style="fill: #1f77b4; fill-opacity: 0.95; stroke: #000000; stroke-opacity: 0.95; stroke-width: 0.6"/>
     <use xlink:href="#mfe4b2df1b4" x="153.704706" y="72.401776" style="fill: #1f77b4; fill-opacity: 0.95; stroke: #000000; stroke-opacity: 0.95; stroke-width: 0.6"/>
     <use xlink:href="#mfe4b2df1b4" x="166.699984" y="77.652327" style="fill: #1f77b4; fill-opacity: 0.95; stroke: #000000; stroke-opacity: 0.95; stroke-width: 0.6"/>
     <use xlink:href="#mfe4b2df1b4" x="179.695262" y="82.580119" style="fill: #1f77b4; fill-opacity: 0.95; stroke: #000000; stroke-opacity: 0.95; stroke-width: 0.6"/>
     <use xlink:href="#mfe4b2df1b4" x="192.690541" y="87.211204" style="fill: #1f77b4; fill-opacity: 0.95; stroke: #000000; stroke-opacity: 0.95; stroke-width: 0.6"/>
     <use xlink:href="#mfe4b2df1b4" x="205.685819" y="91.569655" style="fill: #1f77b4; fill-opacity: 0.95; stroke: #000000; stroke-opacity: 0.95; stroke-width: 0.6"/>
     <use xlink:href="#mfe4b2df1b4" x="218.681097" y="95.677608" style="fill: #1f77b4; fill-opacity: 0.95; stroke: #000000; stroke-opacity: 0.95; stroke-width: 0.6"/>
     <use xlink:href="#mfe4b2df1b4" x="231.676376" y="99.555343" style="fill: #1f77b4; fill-opacity: 0.95; stroke: #000000; stroke-opacity: 0.95; stroke-width: 0.6"/>
     <use xlink:href="#mfe4b2df1b4" x="244.671654" y="103.221383" style="fill: #1f77b4; fill-opacity: 0.95; stroke: #000000; stroke-opacity: 0.95; stroke-width: 0.6"/>
     <use xlink:href="#mfe4b2df1b4" x="257.666932" y="106.69261" style="fill: #1f77b4; fill-opacity: 0.95; stroke: #000000; stroke-opacity: 0.95; stroke-width: 0.6"/>
     <use xlink:href="#mfe4b2df1b4" x="270.662211" y="109.984383" style="fill: #1f77b4; fill-opacity: 0.95; stroke: #000000; stroke-opacity: 0.95; stroke-width: 0.6"/>
     <use xlink:href="#mfe4b2df1b4" x="283.657489" y="113.110662" style="fill: #1f77b4; fill-opacity: 0.95; stroke: #000000; stroke-opacity: 0.95; stroke-width: 0.6"/>
     <use xlink:href="#mfe4b2df1b4" x="296.652768" y="116.084127" style="fill: #1f77b4; fill-opacity: 0.95; stroke: #000000; stroke-opacity: 0.95; stroke-width: 0.6"/>
     <use xlink:href="#mfe4b2df1b4" x="309.648046" y="118.916295" style="fill: #1f77b4; fill-opacity: 0.95; stroke: #000000; stroke-opacity: 0.95; stroke-width: 0.6"/>
     <use xlink:href="#mfe4b2df1b4" x="322.643324" y="121.617624" style="fill: #1f77b4; fill-opacity: 0.95; stroke: #000000; stroke-opacity: 0.95; stroke-width: 0.6"/>
     <use xlink:href="#mfe4b2df1b4" x="335.638603" y="124.19762" style="fill: #1f77b4; fill-opacity: 0.95; stroke: #000000; stroke-opacity: 0.95; stroke-width: 0.6"/>
     <use xlink:href="#mfe4b2df1b4" x="348.633881" y="126.664925" style="fill: #1f77b4; fill-opacity: 0.95; stroke: #000000; stroke-opacity: 0.95; stroke-width: 0.6"/>
     <use xlink:href="#mfe4b2df1b4" x="361.629159" y="129.027405" style="fill: #1f77b4; fill-opacity: 0.95; stroke: #000000; stroke-opacity: 0.95; stroke-width: 0.6"/>
     <use xlink:href="#mfe4b2df1b4" x="374.624438" y="131.292228" style="fill: #1f77b4; fill-opacity: 0.95; stroke: #000000; stroke-opacity: 0.95; stroke-width: 0.6"/>
     <use xlink:href="#mfe4b2df1b4" x="387.619716" y="133.46593" style="fill: #1f77b4; fill-opacity: 0.95; stroke: #000000; stroke-opacity: 0.95; stroke-width: 0.6"/>
     <use xlink:href="#mfe4b2df1b4" x="400.614994" y="135.554482" style="fill: #1f77b4; fill-opacity: 0.95; stroke: #000000; stroke-opacity: 0.95; stroke-width: 0.6"/>
     <use xlink:href="#mfe4b2df1b4" x="413.610273" y="137.563344" style="fill: #1f77b4; fill-opacity: 0.95; stroke: #000000; stroke-opacity: 0.95; stroke-width: 0.6"/>
     <use xlink:href="#mfe4b2df1b4" x="426.605551" y="139.497519" style="fill: #1f77b4; fill-opacity: 0.95; stroke: #000000; stroke-opacity: 0.95; stroke-width: 0.6"/>
     <use xlink:href="#mfe4b2df1b4" x="439.600829" y="141.361594" style="fill: #1f77b4; fill-opacity: 0.95; stroke: #000000; stroke-opacity: 0.95; stroke-width: 0.6"/>
     <use xlink:href="#mfe4b2df1b4" x="452.596108" y="143.159784" style="fill: #1f77b4; fill-opacity: 0.95; stroke: #000000; stroke-opacity: 0.95; stroke-width: 0.6"/>
     <use xlink:href="#mfe4b2df1b4" x="465.591386" y="144.895966" style="fill: #1f77b4; fill-opacity: 0.95; stroke: #000000; stroke-opacity: 0.95; stroke-width: 0.6"/>
     <use xlink:href="#mfe4b2df1b4" x="478.586664" y="146.573715" style="fill: #1f77b4; fill-opacity: 0.95; stroke: #000000; stroke-opacity: 0.95; stroke-width: 0.6"/>
     <use xlink:href="#mfe4b2df1b4" x="491.581943" y="148.196326" style="fill: #1f77b4; fill-opacity: 0.95; stroke: #000000; stroke-opacity: 0.95; stroke-width: 0.6"/>
     <use xlink:href="#mfe4b2df1b4" x="504.577221" y="149.766849" style="fill: #1f77b4; fill-opacity: 0.95; stroke: #000000; stroke-opacity: 0.95; stroke-width: 0.6"/>
     <use xlink:href="#mfe4b2df1b4" x="517.5725" y="151.288103" style="fill: #1f77b4; fill-opacity: 0.95; stroke: #000000; stroke-opacity: 0.95; stroke-width: 0.6"/>
     <use xlink:href="#mfe4b2df1b4" x="530.567778" y="152.762705" style="fill: #1f77b4; fill-opacity: 0.95; stroke: #000000; stroke-opacity: 0.95; stroke-width: 0.6"/>
     <use xlink:href="#mfe4b2df1b4" x="543.563056" y="154.19308" style="fill: #1f77b4; fill-opacity: 0.95; stroke: #000000; stroke-opacity: 0.95; stroke-width: 0.6"/>
     <use xlink:href="#mfe4b2df1b4" x="556.558335" y="155.581487" style="fill: #1f77b4; fill-opacity: 0.95; stroke: #000000; stroke-opacity: 0.95; stroke-width: 0.6"/>
     <use xlink:href="#mfe4b2df1b4" x="569.553613" y="156.930025" style="fill: #1f77b4; fill-opacity: 0.95; stroke: #000000; stroke-opacity: 0.95; stroke-width: 0.6"/>
     <use xlink:href="#mfe4b2df1b4" x="582.548891" y="158.240653" style="fill: #1f77b4; fill-opacity: 0.95; stroke: #000000; stroke-opacity: 0.95; stroke-width: 0.6"/>
     <use xlink:href="#mfe4b2df1b4" x="595.54417" y="159.515198" style="fill: #1f77b4; fill-opacity: 0.95; stroke: #000000; stroke-opacity: 0.95; stroke-width: 0.6"/>
     <use xlink:href="#mfe4b2df1b4" x="608.539448" y="160.755368" style="fill: #1f77b4; fill-opacity: 0.95; stroke: #000000; stroke-opacity: 0.95; stroke-width: 0.6"/>
     <use xlink:href="#mfe4b2df1b4" x="621.534726" y="161.962761" style="fill: #1f77b4; fill-opacity: 0.95; stroke: #000000; stroke-opacity: 0.95; stroke-width: 0.6"/>
     <use xlink:href="#mfe4b2df1b4" x="634.530005" y="163.138875" style="fill: #1f77b4; fill-opacity: 0.95; stroke: #000000; stroke-opacity: 0.95; stroke-width: 0.6"/>
     <use xlink:href="#mfe4b2df1b4" x="647.525283" y="164.285112" style="fill: #1f77b4; fill-opacity: 0.95; stroke: #000000; stroke-opacity: 0.95; stroke-width: 0.6"/>
     <use xlink:href="#mfe4b2df1b4" x="660.520561" y="165.402793" style="fill: #1f77b4; fill-opacity: 0.95; stroke: #000000; stroke-opacity: 0.95; stroke-width: 0.6"/>
     <use xlink:href="#mfe4b2df1b4" x="673.51584" y="166.493155" style="fill: #1f77b4; fill-opacity: 0.95; stroke: #000000; stroke-opacity: 0.95; stroke-width: 0.6"/>
     <use xlink:href="#mfe4b2df1b4" x="686.511118" y="167.557365" style="fill: #1f77b4; fill-opacity: 0.95; stroke: #000000; stroke-opacity: 0.95; stroke-width: 0.6"/>
     <use xlink:href="#mfe4b2df1b4" x="699.506396" y="168.596522" style="fill: #1f77b4; fill-opacity: 0.95; stroke: #000000; stroke-opacity: 0.95; stroke-width: 0.6"/>
     <use xlink:href="#mfe4b2df1b4" x="712.501675" y="169.611661" style="fill: #1f77b4; fill-opacity: 0.95; stroke: #000000; stroke-opacity: 0.95; stroke-width: 0.6"/>
     <use xlink:href="#mfe4b2df1b4" x="725.496953" y="170.603759" style="fill: #1f77b4; fill-opacity: 0.95; stroke: #000000; stroke-opacity: 0.95; stroke-width: 0.6"/>
    </g>
   </g>
   <g id="line2d_22">
    <path d="M 88.728314 40.262955 
L 95.225953 127.497084 
L 101.723592 161.97636 
L 108.221231 182.458415 
L 114.718871 196.839943 
L 121.21651 207.906905 
L 127.714149 216.933258 
L 134.211788 224.582263 
L 140.709427 231.231691 
L 147.207067 237.114176 
L 153.704706 242.383472 
L 160.202345 247.147637 
L 166.699984 251.486534 
L 173.197623 255.461576 
L 179.695262 259.121446 
L 186.192902 262.505644 
L 192.690541 265.646802 
L 199.18818 268.572267 
L 205.685819 271.305222 
L 212.183458 273.865503 
L 218.681097 276.270225 
L 225.178737 278.534248 
L 231.676376 280.670558 
L 238.174015 282.690556 
L 244.671654 284.604303 
L 251.169293 286.420712 
L 257.666932 288.14771 
L 264.164572 289.79237 
L 270.662211 291.361026 
L 277.15985 292.859367 
L 283.657489 294.292515 
L 290.155128 295.665097 
L 296.652768 296.981303 
L 303.150407 298.244935 
L 309.648046 299.459453 
L 316.145685 300.628012 
L 322.643324 301.753496 
L 329.140963 302.838547 
L 335.638603 303.885588 
L 342.136242 304.89685 
L 348.633881 305.874385 
L 355.13152 306.820091 
L 361.629159 307.735719 
L 368.126798 308.622894 
L 374.624438 309.483123 
L 381.122077 310.317805 
L 387.619716 311.128243 
L 394.117355 311.91565 
L 400.614994 312.681161 
L 407.112634 313.425833 
L 413.610273 314.150658 
L 420.107912 314.856564 
L 426.605551 315.54442 
L 433.10319 316.215045 
L 439.600829 316.869206 
L 446.098469 317.507627 
L 452.596108 318.130987 
L 459.093747 318.739929 
L 465.591386 319.335059 
L 472.089025 319.916948 
L 478.586664 320.486136 
L 485.084304 321.043136 
L 491.581943 321.588431 
L 498.079582 322.122478 
L 504.577221 322.645714 
L 511.07486 323.158551 
L 517.5725 323.661378 
L 524.070139 324.15457 
L 530.567778 324.638477 
L 537.065417 325.113438 
L 543.563056 325.579771 
L 550.060695 326.03778 
L 556.558335 326.487756 
L 563.055974 326.929974 
L 569.553613 327.364699 
L 576.051252 327.792181 
L 582.548891 328.21266 
L 589.04653 328.626366 
L 595.54417 329.033516 
L 602.041809 329.434321 
L 608.539448 329.828979 
L 615.037087 330.217683 
L 621.534726 330.600614 
L 628.032366 330.977948 
L 634.530005 331.349853 
L 641.027644 331.71649 
L 647.525283 332.078011 
L 654.022922 332.434566 
L 660.520561 332.786294 
L 667.018201 333.133333 
L 673.51584 333.475812 
L 680.013479 333.813857 
L 686.511118 334.147587 
L 693.008757 334.477118 
L 699.506396 334.802561 
L 706.004036 335.124022 
L 712.501675 335.441605 
L 718.999314 335.755407 
L 725.496953 336.065523 
L 731.994592 336.372045 
" clip-path="url(#p32f0791384)" style="fill: none; stroke: #6a0dad; stroke-opacity: 0.95; stroke-width: 2.4; stroke-linecap: square"/>
    <defs>
     <path id="m0d5fba8a4b" d="M -0 1.6 
L 1.6 -1.6 
L -1.6 -1.6 
z
" style="stroke: #000000; stroke-opacity: 0.95; stroke-width: 0.6; stroke-linejoin: miter"/>
    </defs>
    <g clip-path="url(#p32f0791384)">
     <use xlink:href="#m0d5fba8a4b" x="88.728314" y="40.262955" style="fill: #6a0dad; fill-opacity: 0.95; stroke: #000000; stroke-opacity: 0.95; stroke-width: 0.6; stroke-linejoin: miter"/>
     <use xlink:href="#m0d5fba8a4b" x="101.723592" y="161.97636" style="fill: #6a0dad; fill-opacity: 0.95; stroke: #000000; stroke-opacity: 0.95; stroke-width: 0.6; stroke-linejoin: miter"/>
     <use xlink:href="#m0d5fba8a4b" x="114.718871" y="196.839943" style="fill: #6a0dad; fill-opacity: 0.95; stroke: #000000; stroke-opacity: 0.95; stroke-width: 0.6; stroke-linejoin: miter"/>
     <use xlink:href="#m0d5fba8a4b" x="127.714149" y="216.933258" style="fill: #6a0dad; fill-opacity: 0.95; stroke: #000000; stroke-opacity: 0.95; stroke-width: 0.6; stroke-linejoin: miter"/>
     <use xlink:href="#m0d5fba8a4b" x="140.709427" y="231.231691" style="fill: #6a0dad; fill-opacity: 0.95; stroke: #000000; stroke-opacity: 0.95; stroke-width: 0.6; stroke-linejoin: miter"/>
     <use xlink:href="#m0d5fba8a4b" x="153.704706" y="242.383472" style="fill: #6a0dad; fill-opacity: 0.95; stroke: #000000; stroke-opacity: 0.95; stroke-width: 0.6; stroke-linejoin: miter"/>
     <use xlink:href="#m0d5fba8a4b" x="166.699984" y="251.486534" style="fill: #6a0dad; fill-opacity: 0.95; stroke: #000000; stroke-opacity: 0.95; stroke-width: 0.6; stroke-linejoin: miter"/>
     <use xlink:href="#m0d5fba8a4b" x="179.695262" y="259.121446" style="fill: #6a0dad; fill-opacity: 0.95; stroke: #000000; stroke-opacity: 0.95; stroke-width: 0.6; stroke-linejoin: miter"/>
     <use xlink:href="#m0d5fba8a4b" x="192.690541" y="265.646802" style="fill: #6a0dad; fill-opacity: 0.95; stroke: #000000; stroke-opacity: 0.95; stroke-width: 0.6; stroke-linejoin: miter"/>
     <use xlink:href="#m0d5fba8a4b" x="205.685819" y="271.305222" style="fill: #6a0dad; fill-opacity: 0.95; stroke: #000000; stroke-opacity: 0.95; stroke-width: 0.6; stroke-linejoin: miter"/>
     <use xlink:href="#m0d5fba8a4b" x="218.681097" y="276.270225" style="fill: #6a0dad; fill-opacity: 0.95; stroke: #000000; stroke-opacity: 0.95; stroke-width: 0.6; stroke-linejoin: miter"/>
     <use xlink:href="#m0d5fba8a4b" x="231.676376" y="280.670558" style="fill: #6a0dad; fill-opacity: 0.95; stroke: #000000; stroke-opacity: 0.95; stroke-width: 0.6; stroke-linejoin: miter"/>
     <use xlink:href="#m0d5fba8a4b" x="244.671654" y="284.604303" style="fill: #6a0dad; fill-opacity: 0.95; stroke: #000000; stroke-opacity: 0.95; stroke-width: 0.6; stroke-linejoin: miter"/>
     <use xlink:href="#m0d5fba8a4b" x="257.666932" y="288.14771" style="fill: #6a0dad; fill-opacity: 0.95; stroke: #000000; stroke-opacity: 0.95; stroke-width: 0.6; stroke-linejoin: miter"/>
     <use xlink:href="#m0d5fba8a4b" x="270.662211" y="291.361026" style="fill: #6a0dad; fill-opacity: 0.95; stroke: #000000; stroke-opacity: 0.95; stroke-width: 0.6; stroke-linejoin: miter"/>
     <use xlink:href="#m0d5fba8a4b" x="283.657489" y="294.292515" style="fill: #6a0dad; fill-opacity: 0.95; stroke: #000000; stroke-opacity: 0.95; stroke-width: 0.6; stroke-linejoin: miter"/>
     <use xlink:href="#m0d5fba8a4b" x="296.652768" y="296.981303" style="fill: #6a0dad; fill-opacity: 0.95; stroke: #000000; stroke-opacity: 0.95; stroke-width: 0.6; stroke-linejoin: miter"/>
     <use xlink:href="#m0d5fba8a4b" x="309.648046" y="299.459453" style="fill: #6a0dad; fill-opacity: 0.95; stroke: #000000; stroke-opacity: 0.95; stroke-width: 0.6; stroke-linejoin: miter"/>
     <use xlink:href="#m0d5fba8a4b" x="322.643324" y="301.753496" style="fill: #6a0dad; fill-opacity: 0.95; stroke: #000000; stroke-opacity: 0.95; stroke-width: 0.6; stroke-linejoin: miter"/>
     <use xlink:href="#m0d5fba8a4b" x="335.638603" y="303.885588" style="fill: #6a0dad; fill-opacity: 0.95; stroke: #000000; stroke-opacity: 0.95; stroke-width: 0.6; stroke-linejoin: miter"/>
     <use xlink:href="#m0d5fba8a4b" x="348.633881" y="305.874385" style="fill: #6a0dad; fill-opacity: 0.95; stroke: #000000; stroke-opacity: 0.95; stroke-width: 0.6; stroke-linejoin: miter"/>
     <use xlink:href="#m0d5fba8a4b" x="361.629159" y="307.735719" style="fill: #6a0dad; fill-opacity: 0.95; stroke: #000000; stroke-opacity: 0.95; stroke-width: 0.6; stroke-linejoin: miter"/>
     <use xlink:href="#m0d5fba8a4b" x="374.624438" y="309.483123" style="fill: #6a0dad; fill-opacity: 0.95; stroke: #000000; stroke-opacity: 0.95; stroke-width: 0.6; stroke-linejoin: miter"/>
     <use xlink:href="#m0d5fba8a4b" x="387.619716" y="311.128243" style="fill: #6a0dad; fill-opacity: 0.95; stroke: #000000; stroke-opacity: 0.95; stroke-width: 0.6; stroke-linejoin: miter"/>
     <use xlink:href="#m0d5fba8a4b" x="400.614994" y="312.681161" style="fill: #6a0dad; fill-opacity: 0.95; stroke: #000000; stroke-opacity: 0.95; stroke-width: 0.6; stroke-linejoin: miter"/>
     <use xlink:href="#m0d5fba8a4b" x="413.610273" y="314.150658" style="fill: #6a0dad; fill-opacity: 0.95; stroke: #000000; stroke-opacity: 0.95; stroke-width: 0.6; stroke-linejoin: miter"/>
     <use xlink:href="#m0d5fba8a4b" x="426.605551" y="315.54442" style="fill: #6a0dad; fill-opacity: 0.95; stroke: #000000; stroke-opacity: 0.95; stroke-width: 0.6; stroke-linejoin: miter"/>
     <use xlink:href="#m0d5fba8a4b" x="439.600829" y="316.869206" style="fill: #6a0dad; fill-opacity: 0.95; stroke: #000000; stroke-opacity: 0.95; stroke-width: 0.6; stroke-linejoin: miter"/>
     <use xlink:href="#m0d5fba8a4b" x="452.596108" y="318.130987" style="fill: #6a0dad; fill-opacity: 0.95; stroke: #000000; stroke-opacity: 0.95; stroke-width: 0.6; stroke-linejoin: miter"/>
     <use xlink:href="#m0d5fba8a4b" x="465.591386" y="319.335059" style="fill: #6a0dad; fill-opacity: 0.95; stroke: #000000; stroke-opacity: 0.95; stroke-width: 0.6; stroke-linejoin: miter"/>
     <use xlink:href="#m0d5fba8a4b" x="478.586664" y="320.486136" style="fill: #6a0dad; fill-opacity: 0.95; stroke: #000000; stroke-opacity: 0.95; stroke-width: 0.6; stroke-linejoin: miter"/>
     <use xlink:href="#m0d5fba8a4b" x="491.581943" y="321.588431" style="fill: #6a0dad; fill-opacity: 0.95; stroke: #000000; stroke-opacity: 0.95; stroke-width: 0.6; stroke-linejoin: miter"/>
     <use xlink:href="#m0d5fba8a4b" x="504.577221" y="322.645714" style="fill: #6a0dad; fill-opacity: 0.95; stroke: #000000; stroke-opacity: 0.95; stroke-width: 0.6; stroke-linejoin: miter"/>
     <use xlink:href="#m0d5fba8a4b" x="517.5725" y="323.661378" style="fill: #6a0dad; fill-opacity: 0.95; stroke: #000000; stroke-opacity: 0.95; stroke-width: 0.6; stroke-linejoin: miter"/>
     <use xlink:href="#m0d5fba8a4b" x="530.567778" y="324.638477" style="fill: #6a0dad; fill-opacity: 0.95; stroke: #000000; stroke-opacity: 0.95; stroke-width: 0.6; stroke-linejoin: miter"/>
     <use xlink:href="#m0d5fba8a4b" x="543.563056" y="325.579771" style="fill: #6a0dad; fill-opacity: 0.95; stroke: #000000; stroke-opacity: 0.95; stroke-width: 0.6; stroke-linejoin: miter"/>
     <use xlink:href="#m0d5fba8a4b" x="556.558335" y="326.487756" style="fill: #6a0dad; fill-opacity: 0.95; stroke: #000000; stroke-opacity: 0.95; stroke-width: 0.6; stroke-linejoin: miter"/>
     <use xlink:href="#m0d5fba8a4b" x="569.553613" y="327.364699" style="fill: #6a0dad; fill-opacity: 0.95; stroke: #000000; stroke-opacity: 0.95; stroke-width: 0.6; stroke-linejoin: miter"/>
     <use xlink:href="#m0d5fba8a4b" x="582.548891" y="328.21266" style="fill: #6a0dad; fill-opacity: 0.95; stroke: #000000; stroke-opacity: 0.95; stroke-width: 0.6; stroke-linejoin: miter"/>
     <use xlink:href="#m0d5fba8a4b" x="595.54417" y="329.033516" style="fill: #6a0dad; fill-opacity: 0.95; stroke: #000000; stroke-opacity: 0.95; stroke-width: 0.6; stroke-linejoin: miter"/>
     <use xlink:href="#m0d5fba8a4b" x="608.539448" y="329.828979" style="fill: #6a0dad; fill-opacity: 0.95; stroke: #000000; stroke-opacity: 0.95; stroke-width: 0.6; stroke-linejoin: miter"/>
     <use xlink:href="#m0d5fba8a4b" x="621.534726" y="330.600614" style="fill: #6a0dad; fill-opacity: 0.95; stroke: #000000; stroke-opacity: 0.95; stroke-width: 0.6; stroke-linejoin: miter"/>
     <use xlink:href="#m0d5fba8a4b" x="634.530005" y="331.349853" style="fill: #6a0dad; fill-opacity: 0.95; stroke: #000000; stroke-opacity: 0.95; stroke-width: 0.6; stroke-linejoin: miter"/>
     <use xlink:href="#m0d5fba8a4b" x="647.525283" y="332.078011" style="fill: #6a0dad; fill-opacity: 0.95; stroke: #000000; stroke-opacity: 0.95; stroke-width: 0.6; stroke-linejoin: miter"/>
     <use xlink:href="#m0d5fba8a4b" x="660.520561" y="332.786294" style="fill: #6a0dad; fill-opacity: 0.95; stroke: #000000; stroke-opacity: 0.95; stroke-width: 0.6; stroke-linejoin: miter"/>
     <use xlink:href="#m0d5fba8a4b" x="673.51584" y="333.475812" style="fill: #6a0dad; fill-opacity: 0.95; stroke: #000000; stroke-opacity: 0.95; stroke-width: 0.6; stroke-linejoin: miter"/>
     <use xlink:href="#m0d5fba8a4b" x="686.511118" y="334.147587" style="fill: #6a0dad; fill-opacity: 0.95; stroke: #000000; stroke-opacity: 0.95; stroke-width: 0.6; stroke-linejoin: miter"/>
     <use xlink:href="#m0d5fba8a4b" x="699.506396" y="334.802561" style="fill: #6a0dad; fill-opacity: 0.95; stroke: #000000; stroke-opacity: 0.95; stroke-width: 0.6; stroke-linejoin: miter"/>
     <use xlink:href="#m0d5fba8a4b" x="712.501675" y="335.441605" style="fill: #6a0dad; fill-opacity: 0.95; stroke: #000000; stroke-opacity: 0.95; stroke-width: 0.6; stroke-linejoin: miter"/>
     <use xlink:href="#m0d5fba8a4b" x="725.496953" y="336.065523" style="fill: #6a0dad; fill-opacity: 0.95; stroke: #000000; stroke-opacity: 0.95; stroke-width: 0.6; stroke-linejoin: miter"/>
    </g>
   </g>
   <g id="patch_3">
    <path d="M 56.565 351.1775 
L 56.565 25.4575 
" style="fill: none; stroke: #000000; stroke-width: 0.8; stroke-linejoin: miter; stroke-linecap: square"/>
   </g>
   <g id="patch_4">
    <path d="M 764.157906 351.1775 
L 764.157906 25.4575 
" style="fill: none; stroke: #000000; stroke-width: 0.8; stroke-linejoin: miter; stroke-linecap: square"/>
   </g>
   <g id="patch_5">
    <path d="M 56.565 351.1775 
L 764.157906 351.1775 
" style="fill: none; stroke: #000000; stroke-width: 0.8; stroke-linejoin: miter; stroke-linecap: square"/>
   </g>
   <g id="patch_6">
    <path d="M 56.565 25.4575 
L 764.157906 25.4575 
" style="fill: none; stroke: #000000; stroke-width: 0.8; stroke-linejoin: miter; stroke-linecap: square"/>
   </g>
   <g id="text_10">
    <!-- Bilinear d=120, β=1.0, γ=0.01 — single run (log y) -->
    <g transform="translate(205.475203 19.4575) scale(0.16 -0.16)">
     <defs>
      <path id="DejaVuSans-42" d="M 1259 2228 
L 1259 519 
L 2272 519 
Q 2781 519 3026 730 
Q 3272 941 3272 1375 
Q 3272 1813 3026 2020 
Q 2781 2228 2272 2228 
L 1259 2228 
z
M 1259 4147 
L 1259 2741 
L 2194 2741 
Q 2656 2741 2882 2914 
Q 3109 3088 3109 3444 
Q 3109 3797 2882 3972 
Q 2656 4147 2194 4147 
L 1259 4147 
z
M 628 4666 
L 2241 4666 
Q 2963 4666 3353 4366 
Q 3744 4066 3744 3513 
Q 3744 3084 3544 2831 
Q 3344 2578 2956 2516 
Q 3422 2416 3680 2098 
Q 3938 1781 3938 1306 
Q 3938 681 3513 340 
Q 3088 0 2303 0 
L 628 0 
L 628 4666 
z
" transform="scale(0.015625)"/>
      <path id="DejaVuSans-64" d="M 2906 2969 
L 2906 4863 
L 3481 4863 
L 3481 0 
L 2906 0 
L 2906 525 
Q 2725 213 2448 61 
Q 2172 -91 1784 -91 
Q 1150 -91 751 415 
Q 353 922 353 1747 
Q 353 2572 751 3078 
Q 1150 3584 1784 3584 
Q 2172 3584 2448 3432 
Q 2725 3281 2906 2969 
z
M 947 1747 
Q 947 1113 1208 752 
Q 1469 391 1925 391 
Q 2381 391 2643 752 
Q 2906 1113 2906 1747 
Q 2906 2381 2643 2742 
Q 2381 3103 1925 3103 
Q 1469 3103 1208 2742 
Q 947 2381 947 1747 
z
" transform="scale(0.015625)"/>
      <path id="DejaVuSans-3d" d="M 678 2906 
L 4684 2906 
L 4684 2381 
L 678 2381 
L 678 2906 
z
M 678 1631 
L 4684 1631 
L 4684 1100 
L 678 1100 
L 678 1631 
z
" transform="scale(0.015625)"/>
      <path id="DejaVuSans-2c" d="M 750 794 
L 1409 794 
L 1409 256 
L 897 -744 
L 494 -744 
L 750 256 
L 750 794 
z
" transform="scale(0.015625)"/>
      <path id="DejaVuSans-3b2" d="M 1178 216 
L 1178 -1331 
L 600 -1331 
L 600 3478 
Q 600 4903 1931 4903 
Q 3288 4903 3288 3700 
Q 3288 2844 2750 2531 
Q 3625 2250 3625 1416 
Q 3625 -66 2119 -66 
Q 1456 -66 1178 216 
z
M 1178 966 
Q 1525 425 2141 425 
Q 3041 425 3041 1406 
Q 3041 2288 1591 2219 
L 1591 2750 
Q 2725 2750 2725 3750 
Q 2725 4434 1994 4434 
Q 1178 4434 1178 3459 
L 1178 966 
z
" transform="scale(0.015625)"/>
      <path id="DejaVuSans-2e" d="M 684 794 
L 1344 794 
L 1344 0 
L 684 0 
L 684 794 
z
" transform="scale(0.015625)"/>
      <path id="DejaVuSans-3b3" d="M 1128 2950 
L 1894 788 
L 2988 3500 
L 3597 3500 
L 2181 0 
L 2181 -1331 
L 1606 -1331 
L 1606 0 
L 688 2613 
Q 550 3006 253 3006 
L 100 3006 
L 100 3500 
L 319 3500 
Q 934 3500 1128 2950 
z
" transform="scale(0.015625)"/>
      <path id="DejaVuSans-2014" d="M 313 1978 
L 6088 1978 
L 6088 1528 
L 313 1528 
L 313 1978 
z
" transform="scale(0.015625)"/>
      <path id="DejaVuSans-67" d="M 2906 1791 
Q 2906 2416 2648 2759 
Q 2391 3103 1925 3103 
Q 1463 3103 1205 2759 
Q 947 2416 947 1791 
Q 947 1169 1205 825 
Q 1463 481 1925 481 
Q 2391 481 2648 825 
Q 2906 1169 2906 1791 
z
M 3481 434 
Q 3481 -459 3084 -895 
Q 2688 -1331 1869 -1331 
Q 1566 -1331 1297 -1286 
Q 1028 -1241 775 -1147 
L 775 -588 
Q 1028 -725 1275 -790 
Q 1522 -856 1778 -856 
Q 2344 -856 2625 -561 
Q 2906 -266 2906 331 
L 2906 616 
Q 2728 306 2450 153 
Q 2172 0 1784 0 
Q 1141 0 747 490 
Q 353 981 353 1791 
Q 353 2603 747 3093 
Q 1141 3584 1784 3584 
Q 2172 3584 2450 3431 
Q 2728 3278 2906 2969 
L 2906 3500 
L 3481 3500 
L 3481 434 
z
" transform="scale(0.015625)"/>
      <path id="DejaVuSans-28" d="M 1984 4856 
Q 1566 4138 1362 3434 
Q 1159 2731 1159 2009 
Q 1159 1288 1364 580 
Q 1569 -128 1984 -844 
L 1484 -844 
Q 1016 -109 783 600 
Q 550 1309 550 2009 
Q 550 2706 781 3412 
Q 1013 4119 1484 4856 
L 1984 4856 
z
" transform="scale(0.015625)"/>
      <path id="DejaVuSans-79" d="M 2059 -325 
Q 1816 -950 1584 -1140 
Q 1353 -1331 966 -1331 
L 506 -1331 
L 506 -850 
L 844 -850 
Q 1081 -850 1212 -737 
Q 1344 -625 1503 -206 
L 1606 56 
L 191 3500 
L 800 3500 
L 1894 763 
L 2988 3500 
L 3597 3500 
L 2059 -325 
z
" transform="scale(0.015625)"/>
      <path id="DejaVuSans-29" d="M 513 4856 
L 1013 4856 
Q 1481 4119 1714 3412 
Q 1947 2706 1947 2009 
Q 1947 1309 1714 600 
Q 1481 -109 1013 -844 
L 513 -844 
Q 928 -128 1133 580 
Q 1338 1288 1338 2009 
Q 1338 2731 1133 3434 
Q 928 4138 513 4856 
z
" transform="scale(0.015625)"/>
     </defs>
     <use xlink:href="#DejaVuSans-42"/>
     <use xlink:href="#DejaVuSans-69" transform="translate(68.603516 0)"/>
     <use xlink:href="#DejaVuSans-6c" transform="translate(96.386719 0)"/>
     <use xlink:href="#DejaVuSans-69" transform="translate(124.169922 0)"/>
     <use xlink:href="#DejaVuSans-6e" transform="translate(151.953125 0)"/>
     <use xlink:href="#DejaVuSans-65" transform="translate(215.332031 0)"/>
     <use xlink:href="#DejaVuSans-61" transform="translate(276.855469 0)"/>
     <use xlink:href="#DejaVuSans-72" transform="translate(338.134766 0)"/>
     <use xlink:href="#DejaVuSans-20" transform="translate(379.248047 0)"/>
     <use xlink:href="#DejaVuSans-64" transform="translate(411.035156 0)"/>
     <use xlink:href="#DejaVuSans-3d" transform="translate(474.511719 0)"/>
     <use xlink:href="#DejaVuSans-31" transform="translate(558.300781 0)"/>
     <use xlink:href="#DejaVuSans-32" transform="translate(621.923828 0)"/>
     <use xlink:href="#DejaVuSans-30" transform="translate(685.546875 0)"/>
     <use xlink:href="#DejaVuSans-2c" transform="translate(749.169922 0)"/>
     <use xlink:href="#DejaVuSans-20" transform="translate(780.957031 0)"/>
     <use xlink:href="#DejaVuSans-3b2" transform="translate(812.744141 0)"/>
     <use xlink:href="#DejaVuSans-3d" transform="translate(876.5625 0)"/>
     <use xlink:href="#DejaVuSans-31" transform="translate(960.351562 0)"/>
     <use xlink:href="#DejaVuSans-2e" transform="translate(1023.974609 0)"/>
     <use xlink:href="#DejaVuSans-30" transform="translate(1055.761719 0)"/>
     <use xlink:href="#DejaVuSans-2c" transform="translate(1119.384766 0)"/>
     <use xlink:href="#DejaVuSans-20" transform="translate(1151.171875 0)"/>
     <use xlink:href="#DejaVuSans-3b3" transform="translate(1182.958984 0)"/>
     <use xlink:href="#DejaVuSans-3d" transform="translate(1242.138672 0)"/>
     <use xlink:href="#DejaVuSans-30" transform="translate(1325.927734 0)"/>
     <use xlink:href="#DejaVuSans-2e" transform="translate(1389.550781 0)"/>
     <use xlink:href="#DejaVuSans-30" transform="translate(1421.337891 0)"/>
     <use xlink:href="#DejaVuSans-31" transform="translate(1484.960938 0)"/>
     <use xlink:href="#DejaVuSans-20" transform="translate(1548.583984 0)"/>
     <use xlink:href="#DejaVuSans-2014" transform="translate(1580.371094 0)"/>
     <use xlink:href="#DejaVuSans-20" transform="translate(1680.371094 0)"/>
     <use xlink:href="#DejaVuSans-73" transform="translate(1712.158203 0)"/>
     <use xlink:href="#DejaVuSans-69" transform="translate(1764.257812 0)"/>
     <use xlink:href="#DejaVuSans-6e" transform="translate(1792.041016 0)"/>
     <use xlink:href="#DejaVuSans-67" transform="translate(1855.419922 0)"/>
     <use xlink:href="#DejaVuSans-6c" transform="translate(1918.896484 0)"/>
     <use xlink:href="#DejaVuSans-65" transform="translate(1946.679688 0)"/>
     <use xlink:href="#DejaVuSans-20" transform="translate(2008.203125 0)"/>
     <use xlink:href="#DejaVuSans-72" transform="translate(2039.990234 0)"/>
     <use xlink:href="#DejaVuSans-75" transform="translate(2081.103516 0)"/>
     <use xlink:href="#DejaVuSans-6e" transform="translate(2144.482422 0)"/>
     <use xlink:href="#DejaVuSans-20" transform="translate(2207.861328 0)"/>
     <use xlink:href="#DejaVuSans-28" transform="translate(2239.648438 0)"/>
     <use xlink:href="#DejaVuSans-6c" transform="translate(2278.662109 0)"/>
     <use xlink:href="#DejaVuSans-6f" transform="translate(2306.445312 0)"/>
     <use xlink:href="#DejaVuSans-67" transform="translate(2367.626953 0)"/>
     <use xlink:href="#DejaVuSans-20" transform="translate(2431.103516 0)"/>
     <use xlink:href="#DejaVuSans-79" transform="translate(2462.890625 0)"/>
     <use xlink:href="#DejaVuSans-29" transform="translate(2522.070312 0)"/>
    </g>
   </g>
   <g id="legend_1">
    <g id="patch_7">
     <path d="M 603.037125 59.949375 
L 759.757906 59.949375 
Q 761.957906 59.949375 761.957906 57.749375 
L 761.957906 29.8575 
Q 761.957906 27.6575 759.757906 27.6575 
L 603.037125 27.6575 
Q 600.837125 27.6575 600.837125 29.8575 
L 600.837125 57.749375 
Q 600.837125 59.949375 603.037125 59.949375 
z
" style="fill: #ffffff; opacity: 0.9; stroke: #cccccc; stroke-linejoin: miter"/>
    </g>
    <g id="line2d_23">
     <path d="M 605.237125 36.565781 
L 616.237125 36.565781 
L 627.237125 36.565781 
" style="fill: none; stroke: #1f77b4; stroke-opacity: 0.95; stroke-width: 2.4; stroke-linecap: square"/>
     <g>
      <use xlink:href="#mfe4b2df1b4" x="616.237125" y="36.565781" style="fill: #1f77b4; fill-opacity: 0.95; stroke: #000000; stroke-opacity: 0.95; stroke-width: 0.6"/>
     </g>
    </g>
    <g id="text_11">
     <!-- Fixed LA (k=5, α=0.5) -->
     <g transform="translate(636.037125 40.415781) scale(0.11 -0.11)">
      <defs>
       <path id="DejaVuSans-46" d="M 628 4666 
L 3309 4666 
L 3309 4134 
L 1259 4134 
L 1259 2759 
L 3109 2759 
L 3109 2228 
L 1259 2228 
L 1259 0 
L 628 0 
L 628 4666 
z
" transform="scale(0.015625)"/>
       <path id="DejaVuSans-78" d="M 3513 3500 
L 2247 1797 
L 3578 0 
L 2900 0 
L 1881 1375 
L 863 0 
L 184 0 
L 1544 1831 
L 300 3500 
L 978 3500 
L 1906 2253 
L 2834 3500 
L 3513 3500 
z
" transform="scale(0.015625)"/>
       <path id="DejaVuSans-4c" d="M 628 4666 
L 1259 4666 
L 1259 531 
L 3531 531 
L 3531 0 
L 628 0 
L 628 4666 
z
" transform="scale(0.015625)"/>
       <path id="DejaVuSans-41" d="M 2188 4044 
L 1331 1722 
L 3047 1722 
L 2188 4044 
z
M 1831 4666 
L 2547 4666 
L 4325 0 
L 3669 0 
L 3244 1197 
L 1141 1197 
L 716 0 
L 50 0 
L 1831 4666 
z
" transform="scale(0.015625)"/>
       <path id="DejaVuSans-6b" d="M 581 4863 
L 1159 4863 
L 1159 1991 
L 2875 3500 
L 3609 3500 
L 1753 1863 
L 3688 0 
L 2938 0 
L 1159 1709 
L 1159 0 
L 581 0 
L 581 4863 
z
" transform="scale(0.015625)"/>
       <path id="DejaVuSans-35" d="M 691 4666 
L 3169 4666 
L 3169 4134 
L 1269 4134 
L 1269 2991 
Q 1406 3038 1543 3061 
Q 1681 3084 1819 3084 
Q 2600 3084 3056 2656 
Q 3513 2228 3513 1497 
Q 3513 744 3044 326 
Q 2575 -91 1722 -91 
Q 1428 -91 1123 -41 
Q 819 9 494 109 
L 494 744 
Q 775 591 1075 516 
Q 1375 441 1709 441 
Q 2250 441 2565 725 
Q 2881 1009 2881 1497 
Q 2881 1984 2565 2268 
Q 2250 2553 1709 2553 
Q 1456 2553 1204 2497 
Q 953 2441 691 2322 
L 691 4666 
z
" transform="scale(0.015625)"/>
       <path id="DejaVuSans-3b1" d="M 2644 1628 
L 2506 2350 
Q 2366 3091 1809 3091 
Q 1391 3091 1200 2747 
Q 959 2316 959 1747 
Q 959 1059 1194 731 
Q 1431 397 1809 397 
Q 2228 397 2453 1063 
L 2644 1628 
z
M 2966 2584 
L 3275 3500 
L 3788 3500 
L 3147 1603 
L 3272 919 
Q 3300 766 3409 638 
Q 3538 488 3638 488 
L 3913 488 
L 3913 0 
L 3569 0 
Q 3275 0 3013 263 
Q 2884 394 2831 669 
Q 2688 322 2394 50 
Q 2256 -78 1809 -78 
Q 1075 -78 719 397 
Q 353 888 353 1747 
Q 353 2666 750 3097 
Q 1191 3578 1809 3578 
Q 2781 3578 2966 2584 
z
" transform="scale(0.015625)"/>
      </defs>
      <use xlink:href="#DejaVuSans-46"/>
      <use xlink:href="#DejaVuSans-69" transform="translate(50.269531 0)"/>
      <use xlink:href="#DejaVuSans-78" transform="translate(78.052734 0)"/>
      <use xlink:href="#DejaVuSans-65" transform="translate(134.107422 0)"/>
      <use xlink:href="#DejaVuSans-64" transform="translate(195.630859 0)"/>
      <use xlink:href="#DejaVuSans-20" transform="translate(259.107422 0)"/>
      <use xlink:href="#DejaVuSans-4c" transform="translate(290.894531 0)"/>
      <use xlink:href="#DejaVuSans-41" transform="translate(348.857422 0)"/>
      <use xlink:href="#DejaVuSans-20" transform="translate(417.265625 0)"/>
      <use xlink:href="#DejaVuSans-28" transform="translate(449.052734 0)"/>
      <use xlink:href="#DejaVuSans-6b" transform="translate(488.066406 0)"/>
      <use xlink:href="#DejaVuSans-3d" transform="translate(545.976562 0)"/>
      <use xlink:href="#DejaVuSans-35" transform="translate(629.765625 0)"/>
      <use xlink:href="#DejaVuSans-2c" transform="translate(693.388672 0)"/>
      <use xlink:href="#DejaVuSans-20" transform="translate(725.175781 0)"/>
      <use xlink:href="#DejaVuSans-3b1" transform="translate(756.962891 0)"/>
      <use xlink:href="#DejaVuSans-3d" transform="translate(822.880859 0)"/>
      <use xlink:href="#DejaVuSans-30" transform="translate(906.669922 0)"/>
      <use xlink:href="#DejaVuSans-2e" transform="translate(970.292969 0)"/>
      <use xlink:href="#DejaVuSans-35" transform="translate(1002.080078 0)"/>
      <use xlink:href="#DejaVuSans-29" transform="translate(1065.703125 0)"/>
     </g>
    </g>
    <g id="line2d_24">
     <path d="M 605.237125 49.411719 
L 616.237125 49.411719 
L 627.237125 49.411719 
" style="fill: none; stroke: #6a0dad; stroke-opacity: 0.95; stroke-width: 2.4; stroke-linecap: square"/>
     <g>
      <use xlink:href="#m0d5fba8a4b" x="616.237125" y="49.411719" style="fill: #6a0dad; fill-opacity: 0.95; stroke: #000000; stroke-opacity: 0.95; stroke-width: 0.6; stroke-linejoin: miter"/>
     </g>
    </g>
    <g id="text_12">
     <!-- Modal LA (adaptive) -->
     <g transform="translate(636.037125 53.261719) scale(0.11 -0.11)">
      <defs>
       <path id="DejaVuSans-4d" d="M 628 4666 
L 1569 4666 
L 2759 1491 
L 3956 4666 
L 4897 4666 
L 4897 0 
L 4281 0 
L 4281 4097 
L 3078 897 
L 2444 897 
L 1241 4097 
L 1241 0 
L 628 0 
L 628 4666 
z
" transform="scale(0.015625)"/>
       <path id="DejaVuSans-70" d="M 1159 525 
L 1159 -1331 
L 581 -1331 
L 581 3500 
L 1159 3500 
L 1159 2969 
Q 1341 3281 1617 3432 
Q 1894 3584 2278 3584 
Q 2916 3584 3314 3078 
Q 3713 2572 3713 1747 
Q 3713 922 3314 415 
Q 2916 -91 2278 -91 
Q 1894 -91 1617 61 
Q 1341 213 1159 525 
z
M 3116 1747 
Q 3116 2381 2855 2742 
Q 2594 3103 2138 3103 
Q 1681 3103 1420 2742 
Q 1159 2381 1159 1747 
Q 1159 1113 1420 752 
Q 1681 391 2138 391 
Q 2594 391 2855 752 
Q 3116 1113 3116 1747 
z
" transform="scale(0.015625)"/>
       <path id="DejaVuSans-76" d="M 191 3500 
L 800 3500 
L 1894 563 
L 2988 3500 
L 3597 3500 
L 2284 0 
L 1503 0 
L 191 3500 
z
" transform="scale(0.015625)"/>
      </defs>
      <use xlink:href="#DejaVuSans-4d"/>
      <use xlink:href="#DejaVuSans-6f" transform="translate(86.279297 0)"/>
      <use xlink:href="#DejaVuSans-64" transform="translate(147.460938 0)"/>
      <use xlink:href="#DejaVuSans-61" transform="translate(210.9375 0)"/>
      <use xlink:href="#DejaVuSans-6c" transform="translate(272.216797 0)"/>
      <use xlink:href="#DejaVuSans-20" transform="translate(300 0)"/>
      <use xlink:href="#DejaVuSans-4c" transform="translate(331.787109 0)"/>
      <use xlink:href="#DejaVuSans-41" transform="translate(389.75 0)"/>
      <use xlink:href="#DejaVuSans-20" transform="translate(458.158203 0)"/>
      <use xlink:href="#DejaVuSans-28" transform="translate(489.945312 0)"/>
      <use xlink:href="#DejaVuSans-61" transform="translate(528.958984 0)"/>
      <use xlink:href="#DejaVuSans-64" transform="translate(590.238281 0)"/>
      <use xlink:href="#DejaVuSans-61" transform="translate(653.714844 0)"/>
      <use xlink:href="#DejaVuSans-70" transform="translate(714.994141 0)"/>
      <use xlink:href="#DejaVuSans-74" transform="translate(778.470703 0)"/>
      <use xlink:href="#DejaVuSans-69" transform="translate(817.679688 0)"/>
      <use xlink:href="#DejaVuSans-76" transform="translate(845.462891 0)"/>
      <use xlink:href="#DejaVuSans-65" transform="translate(904.642578 0)"/>
      <use xlink:href="#DejaVuSans-29" transform="translate(966.166016 0)"/>
     </g>
    </g>
   </g>
  </g>
 </g>
 <defs>
  <clipPath id="p32f0791384">
   <rect x="56.565" y="25.4575" width="707.592906" height="325.72"/>
  </clipPath>
 </defs>
</svg>
