<?xml version="1.0" encoding="utf-8" standalone="no"?>
<!DOCTYPE svg PUBLIC "-//W3C//DTD SVG 1.1//EN"
  "http://www.w3.org/Graphics/SVG/1.1/DTD/svg11.dtd">
<svg xmlns:xlink="http://www.w3.org/1999/xlink" width="771.357906pt" height="397.444062pt" viewBox="0 0 771.357906 397.444062" xmlns="http://www.w3.org/2000/svg" version="1.1">
 <metadata>
  <rdf:RDF xmlns:dc="http://purl.org/dc/elements/1.1/" xmlns:cc="http://creativecommons.org/ns#" xmlns:rdf="http://www.w3.org/1999/02/22-rdf-syntax-ns#">
   <cc:Work>
    <dc:type rdf:resource="http://purl.org/dc/dcmitype/StillImage"/>
    <dc:date>2025-10-01T11:37:53.946406</dc:date>
    <dc:format>image/svg+xml</dc:format>
    <dc:creator>
     <cc:Agent>
      <dc:title>Matplotlib v3.10.6, https://matplotlib.org/</dc:title>
     </cc:Agent>
    </dc:creator>
   </cc:Work>
  </rdf:RDF>
 </metadata>
 <defs>
  <style type="text/css">*{stroke-linejoin: round; stroke-linecap: butt}</style>
 </defs>
 <g id="figure_1">
  <g id="patch_1">
   <path d="M 0 397.444062 
L 771.357906 397.444062 
L 771.357906 0 
L 0 0 
z
" style="fill: #ffffff"/>
  </g>
  <g id="axes_1">
   <g id="patch_2">
    <path d="M 56.565 351.1775 
L 764.157906 351.1775 
L 764.157906 25.4575 
L 56.565 25.4575 
z
" style="fill: #ffffff"/>
   </g>
   <g id="matplotlib.axis_1">
    <g id="xtick_1">
     <g id="line2d_1">
      <path d="M 88.728314 351.1775 
L 88.728314 25.4575 
" clip-path="url(#p0f239e252d)" style="fill: none; stroke: #b0b0b0; stroke-opacity: 0.3; stroke-width: 0.8; stroke-linecap: square"/>
     </g>
     <g id="line2d_2">
      <defs>
       <path id="mfa1990936a" d="M 0 0 
L 0 3.5 
" style="stroke: #000000; stroke-width: 1.5"/>
      </defs>
      <g>
       <use xlink:href="#mfa1990936a" x="88.728314" y="351.1775" style="stroke: #000000; stroke-width: 1.5"/>
      </g>
     </g>
     <g id="text_1">
      <!-- 0 -->
      <g transform="translate(84.592689 368.055469) scale(0.13 -0.13)">
       <defs>
        <path id="DejaVuSans-30" d="M 2034 4250 
Q 1547 4250 1301 3770 
Q 1056 3291 1056 2328 
Q 1056 1369 1301 889 
Q 1547 409 2034 409 
Q 2525 409 2770 889 
Q 3016 1369 3016 2328 
Q 3016 3291 2770 3770 
Q 2525 4250 2034 4250 
z
M 2034 4750 
Q 2819 4750 3233 4129 
Q 3647 3509 3647 2328 
Q 3647 1150 3233 529 
Q 2819 -91 2034 -91 
Q 1250 -91 836 529 
Q 422 1150 422 2328 
Q 422 3509 836 4129 
Q 1250 4750 2034 4750 
z
" transform="scale(0.015625)"/>
       </defs>
       <use xlink:href="#DejaVuSans-30"/>
      </g>
     </g>
    </g>
    <g id="xtick_2">
     <g id="line2d_3">
      <path d="M 218.679785 351.1775 
L 218.679785 25.4575 
" clip-path="url(#p0f239e252d)" style="fill: none; stroke: #b0b0b0; stroke-opacity: 0.3; stroke-width: 0.8; stroke-linecap: square"/>
     </g>
     <g id="line2d_4">
      <g>
       <use xlink:href="#mfa1990936a" x="218.679785" y="351.1775" style="stroke: #000000; stroke-width: 1.5"/>
      </g>
     </g>
     <g id="text_2">
      <!-- 10000 -->
      <g transform="translate(198.00166 368.055469) scale(0.13 -0.13)">
       <defs>
        <path id="DejaVuSans-31" d="M 794 531 
L 1825 531 
L 1825 4091 
L 703 3866 
L 703 4441 
L 1819 4666 
L 2450 4666 
L 2450 531 
L 3481 531 
L 3481 0 
L 794 0 
L 794 531 
z
" transform="scale(0.015625)"/>
       </defs>
       <use xlink:href="#DejaVuSans-31"/>
       <use xlink:href="#DejaVuSans-30" transform="translate(63.623047 0)"/>
       <use xlink:href="#DejaVuSans-30" transform="translate(127.246094 0)"/>
       <use xlink:href="#DejaVuSans-30" transform="translate(190.869141 0)"/>
       <use xlink:href="#DejaVuSans-30" transform="translate(254.492188 0)"/>
      </g>
     </g>
    </g>
    <g id="xtick_3">
     <g id="line2d_5">
      <path d="M 348.631256 351.1775 
L 348.631256 25.4575 
" clip-path="url(#p0f239e252d)" style="fill: none; stroke: #b0b0b0; stroke-opacity: 0.3; stroke-width: 0.8; stroke-linecap: square"/>
     </g>
     <g id="line2d_6">
      <g>
       <use xlink:href="#mfa1990936a" x="348.631256" y="351.1775" style="stroke: #000000; stroke-width: 1.5"/>
      </g>
     </g>
     <g id="text_3">
      <!-- 20000 -->
      <g transform="translate(327.953131 368.055469) scale(0.13 -0.13)">
       <defs>
        <path id="DejaVuSans-32" d="M 1228 531 
L 3431 531 
L 3431 0 
L 469 0 
L 469 531 
Q 828 903 1448 1529 
Q 2069 2156 2228 2338 
Q 2531 2678 2651 2914 
Q 2772 3150 2772 3378 
Q 2772 3750 2511 3984 
Q 2250 4219 1831 4219 
Q 1534 4219 1204 4116 
Q 875 4013 500 3803 
L 500 4441 
Q 881 4594 1212 4672 
Q 1544 4750 1819 4750 
Q 2544 4750 2975 4387 
Q 3406 4025 3406 3419 
Q 3406 3131 3298 2873 
Q 3191 2616 2906 2266 
Q 2828 2175 2409 1742 
Q 1991 1309 1228 531 
z
" transform="scale(0.015625)"/>
       </defs>
       <use xlink:href="#DejaVuSans-32"/>
       <use xlink:href="#DejaVuSans-30" transform="translate(63.623047 0)"/>
       <use xlink:href="#DejaVuSans-30" transform="translate(127.246094 0)"/>
       <use xlink:href="#DejaVuSans-30" transform="translate(190.869141 0)"/>
       <use xlink:href="#DejaVuSans-30" transform="translate(254.492188 0)"/>
      </g>
     </g>
    </g>
    <g id="xtick_4">
     <g id="line2d_7">
      <path d="M 478.582727 351.1775 
L 478.582727 25.4575 
" clip-path="url(#p0f239e252d)" style="fill: none; stroke: #b0b0b0; stroke-opacity: 0.3; stroke-width: 0.8; stroke-linecap: square"/>
     </g>
     <g id="line2d_8">
      <g>
       <use xlink:href="#mfa1990936a" x="478.582727" y="351.1775" style="stroke: #000000; stroke-width: 1.5"/>
      </g>
     </g>
     <g id="text_4">
      <!-- 30000 -->
      <g transform="translate(457.904602 368.055469) scale(0.13 -0.13)">
       <defs>
        <path id="DejaVuSans-33" d="M 2597 2516 
Q 3050 2419 3304 2112 
Q 3559 1806 3559 1356 
Q 3559 666 3084 287 
Q 2609 -91 1734 -91 
Q 1441 -91 1130 -33 
Q 819 25 488 141 
L 488 750 
Q 750 597 1062 519 
Q 1375 441 1716 441 
Q 2309 441 2620 675 
Q 2931 909 2931 1356 
Q 2931 1769 2642 2001 
Q 2353 2234 1838 2234 
L 1294 2234 
L 1294 2753 
L 1863 2753 
Q 2328 2753 2575 2939 
Q 2822 3125 2822 3475 
Q 2822 3834 2567 4026 
Q 2313 4219 1838 4219 
Q 1578 4219 1281 4162 
Q 984 4106 628 3988 
L 628 4550 
Q 988 4650 1302 4700 
Q 1616 4750 1894 4750 
Q 2613 4750 3031 4423 
Q 3450 4097 3450 3541 
Q 3450 3153 3228 2886 
Q 3006 2619 2597 2516 
z
" transform="scale(0.015625)"/>
       </defs>
       <use xlink:href="#DejaVuSans-33"/>
       <use xlink:href="#DejaVuSans-30" transform="translate(63.623047 0)"/>
       <use xlink:href="#DejaVuSans-30" transform="translate(127.246094 0)"/>
       <use xlink:href="#DejaVuSans-30" transform="translate(190.869141 0)"/>
       <use xlink:href="#DejaVuSans-30" transform="translate(254.492188 0)"/>
      </g>
     </g>
    </g>
    <g id="xtick_5">
     <g id="line2d_9">
      <path d="M 608.534197 351.1775 
L 608.534197 25.4575 
" clip-path="url(#p0f239e252d)" style="fill: none; stroke: #b0b0b0; stroke-opacity: 0.3; stroke-width: 0.8; stroke-linecap: square"/>
     </g>
     <g id="line2d_10">
      <g>
       <use xlink:href="#mfa1990936a" x="608.534197" y="351.1775" style="stroke: #000000; stroke-width: 1.5"/>
      </g>
     </g>
     <g id="text_5">
      <!-- 40000 -->
      <g transform="translate(587.856072 368.055469) scale(0.13 -0.13)">
       <defs>
        <path id="DejaVuSans-34" d="M 2419 4116 
L 825 1625 
L 2419 1625 
L 2419 4116 
z
M 2253 4666 
L 3047 4666 
L 3047 1625 
L 3713 1625 
L 3713 1100 
L 3047 1100 
L 3047 0 
L 2419 0 
L 2419 1100 
L 313 1100 
L 313 1709 
L 2253 4666 
z
" transform="scale(0.015625)"/>
       </defs>
       <use xlink:href="#DejaVuSans-34"/>
       <use xlink:href="#DejaVuSans-30" transform="translate(63.623047 0)"/>
       <use xlink:href="#DejaVuSans-30" transform="translate(127.246094 0)"/>
       <use xlink:href="#DejaVuSans-30" transform="translate(190.869141 0)"/>
       <use xlink:href="#DejaVuSans-30" transform="translate(254.492188 0)"/>
      </g>
     </g>
    </g>
    <g id="xtick_6">
     <g id="line2d_11">
      <path d="M 738.485668 351.1775 
L 738.485668 25.4575 
" clip-path="url(#p0f239e252d)" style="fill: none; stroke: #b0b0b0; stroke-opacity: 0.3; stroke-width: 0.8; stroke-linecap: square"/>
     </g>
     <g id="line2d_12">
      <g>
       <use xlink:href="#mfa1990936a" x="738.485668" y="351.1775" style="stroke: #000000; stroke-width: 1.5"/>
      </g>
     </g>
     <g id="text_6">
      <!-- 50000 -->
      <g transform="translate(717.807543 368.055469) scale(0.13 -0.13)">
       <defs>
        <path id="DejaVuSans-35" d="M 691 4666 
L 3169 4666 
L 3169 4134 
L 1269 4134 
L 1269 2991 
Q 1406 3038 1543 3061 
Q 1681 3084 1819 3084 
Q 2600 3084 3056 2656 
Q 3513 2228 3513 1497 
Q 3513 744 3044 326 
Q 2575 -91 1722 -91 
Q 1428 -91 1123 -41 
Q 819 9 494 109 
L 494 744 
Q 775 591 1075 516 
Q 1375 441 1709 441 
Q 2250 441 2565 725 
Q 2881 1009 2881 1497 
Q 2881 1984 2565 2268 
Q 2250 2553 1709 2553 
Q 1456 2553 1204 2497 
Q 953 2441 691 2322 
L 691 4666 
z
" transform="scale(0.015625)"/>
       </defs>
       <use xlink:href="#DejaVuSans-35"/>
       <use xlink:href="#DejaVuSans-30" transform="translate(63.623047 0)"/>
       <use xlink:href="#DejaVuSans-30" transform="translate(127.246094 0)"/>
       <use xlink:href="#DejaVuSans-30" transform="translate(190.869141 0)"/>
       <use xlink:href="#DejaVuSans-30" transform="translate(254.492188 0)"/>
      </g>
     </g>
    </g>
    <g id="text_7">
     <!-- Base steps (avg at +0.5) -->
     <g transform="translate(310.813953 386.916562) scale(0.16 -0.16)">
      <defs>
       <path id="DejaVuSans-42" d="M 1259 2228 
L 1259 519 
L 2272 519 
Q 2781 519 3026 730 
Q 3272 941 3272 1375 
Q 3272 1813 3026 2020 
Q 2781 2228 2272 2228 
L 1259 2228 
z
M 1259 4147 
L 1259 2741 
L 2194 2741 
Q 2656 2741 2882 2914 
Q 3109 3088 3109 3444 
Q 3109 3797 2882 3972 
Q 2656 4147 2194 4147 
L 1259 4147 
z
M 628 4666 
L 2241 4666 
Q 2963 4666 3353 4366 
Q 3744 4066 3744 3513 
Q 3744 3084 3544 2831 
Q 3344 2578 2956 2516 
Q 3422 2416 3680 2098 
Q 3938 1781 3938 1306 
Q 3938 681 3513 340 
Q 3088 0 2303 0 
L 628 0 
L 628 4666 
z
" transform="scale(0.015625)"/>
       <path id="DejaVuSans-61" d="M 2194 1759 
Q 1497 1759 1228 1600 
Q 959 1441 959 1056 
Q 959 750 1161 570 
Q 1363 391 1709 391 
Q 2188 391 2477 730 
Q 2766 1069 2766 1631 
L 2766 1759 
L 2194 1759 
z
M 3341 1997 
L 3341 0 
L 2766 0 
L 2766 531 
Q 2569 213 2275 61 
Q 1981 -91 1556 -91 
Q 1019 -91 701 211 
Q 384 513 384 1019 
Q 384 1609 779 1909 
Q 1175 2209 1959 2209 
L 2766 2209 
L 2766 2266 
Q 2766 2663 2505 2880 
Q 2244 3097 1772 3097 
Q 1472 3097 1187 3025 
Q 903 2953 641 2809 
L 641 3341 
Q 956 3463 1253 3523 
Q 1550 3584 1831 3584 
Q 2591 3584 2966 3190 
Q 3341 2797 3341 1997 
z
" transform="scale(0.015625)"/>
       <path id="DejaVuSans-73" d="M 2834 3397 
L 2834 2853 
Q 2591 2978 2328 3040 
Q 2066 3103 1784 3103 
Q 1356 3103 1142 2972 
Q 928 2841 928 2578 
Q 928 2378 1081 2264 
Q 1234 2150 1697 2047 
L 1894 2003 
Q 2506 1872 2764 1633 
Q 3022 1394 3022 966 
Q 3022 478 2636 193 
Q 2250 -91 1575 -91 
Q 1294 -91 989 -36 
Q 684 19 347 128 
L 347 722 
Q 666 556 975 473 
Q 1284 391 1588 391 
Q 1994 391 2212 530 
Q 2431 669 2431 922 
Q 2431 1156 2273 1281 
Q 2116 1406 1581 1522 
L 1381 1569 
Q 847 1681 609 1914 
Q 372 2147 372 2553 
Q 372 3047 722 3315 
Q 1072 3584 1716 3584 
Q 2034 3584 2315 3537 
Q 2597 3491 2834 3397 
z
" transform="scale(0.015625)"/>
       <path id="DejaVuSans-65" d="M 3597 1894 
L 3597 1613 
L 953 1613 
Q 991 1019 1311 708 
Q 1631 397 2203 397 
Q 2534 397 2845 478 
Q 3156 559 3463 722 
L 3463 178 
Q 3153 47 2828 -22 
Q 2503 -91 2169 -91 
Q 1331 -91 842 396 
Q 353 884 353 1716 
Q 353 2575 817 3079 
Q 1281 3584 2069 3584 
Q 2775 3584 3186 3129 
Q 3597 2675 3597 1894 
z
M 3022 2063 
Q 3016 2534 2758 2815 
Q 2500 3097 2075 3097 
Q 1594 3097 1305 2825 
Q 1016 2553 972 2059 
L 3022 2063 
z
" transform="scale(0.015625)"/>
       <path id="DejaVuSans-20" transform="scale(0.015625)"/>
       <path id="DejaVuSans-74" d="M 1172 4494 
L 1172 3500 
L 2356 3500 
L 2356 3053 
L 1172 3053 
L 1172 1153 
Q 1172 725 1289 603 
Q 1406 481 1766 481 
L 2356 481 
L 2356 0 
L 1766 0 
Q 1100 0 847 248 
Q 594 497 594 1153 
L 594 3053 
L 172 3053 
L 172 3500 
L 594 3500 
L 594 4494 
L 1172 4494 
z
" transform="scale(0.015625)"/>
       <path id="DejaVuSans-70" d="M 1159 525 
L 1159 -1331 
L 581 -1331 
L 581 3500 
L 1159 3500 
L 1159 2969 
Q 1341 3281 1617 3432 
Q 1894 3584 2278 3584 
Q 2916 3584 3314 3078 
Q 3713 2572 3713 1747 
Q 3713 922 3314 415 
Q 2916 -91 2278 -91 
Q 1894 -91 1617 61 
Q 1341 213 1159 525 
z
M 3116 1747 
Q 3116 2381 2855 2742 
Q 2594 3103 2138 3103 
Q 1681 3103 1420 2742 
Q 1159 2381 1159 1747 
Q 1159 1113 1420 752 
Q 1681 391 2138 391 
Q 2594 391 2855 752 
Q 3116 1113 3116 1747 
z
" transform="scale(0.015625)"/>
       <path id="DejaVuSans-28" d="M 1984 4856 
Q 1566 4138 1362 3434 
Q 1159 2731 1159 2009 
Q 1159 1288 1364 580 
Q 1569 -128 1984 -844 
L 1484 -844 
Q 1016 -109 783 600 
Q 550 1309 550 2009 
Q 550 2706 781 3412 
Q 1013 4119 1484 4856 
L 1984 4856 
z
" transform="scale(0.015625)"/>
       <path id="DejaVuSans-76" d="M 191 3500 
L 800 3500 
L 1894 563 
L 2988 3500 
L 3597 3500 
L 2284 0 
L 1503 0 
L 191 3500 
z
" transform="scale(0.015625)"/>
       <path id="DejaVuSans-67" d="M 2906 1791 
Q 2906 2416 2648 2759 
Q 2391 3103 1925 3103 
Q 1463 3103 1205 2759 
Q 947 2416 947 1791 
Q 947 1169 1205 825 
Q 1463 481 1925 481 
Q 2391 481 2648 825 
Q 2906 1169 2906 1791 
z
M 3481 434 
Q 3481 -459 3084 -895 
Q 2688 -1331 1869 -1331 
Q 1566 -1331 1297 -1286 
Q 1028 -1241 775 -1147 
L 775 -588 
Q 1028 -725 1275 -790 
Q 1522 -856 1778 -856 
Q 2344 -856 2625 -561 
Q 2906 -266 2906 331 
L 2906 616 
Q 2728 306 2450 153 
Q 2172 0 1784 0 
Q 1141 0 747 490 
Q 353 981 353 1791 
Q 353 2603 747 3093 
Q 1141 3584 1784 3584 
Q 2172 3584 2450 3431 
Q 2728 3278 2906 2969 
L 2906 3500 
L 3481 3500 
L 3481 434 
z
" transform="scale(0.015625)"/>
       <path id="DejaVuSans-2b" d="M 2944 4013 
L 2944 2272 
L 4684 2272 
L 4684 1741 
L 2944 1741 
L 2944 0 
L 2419 0 
L 2419 1741 
L 678 1741 
L 678 2272 
L 2419 2272 
L 2419 4013 
L 2944 4013 
z
" transform="scale(0.015625)"/>
       <path id="DejaVuSans-2e" d="M 684 794 
L 1344 794 
L 1344 0 
L 684 0 
L 684 794 
z
" transform="scale(0.015625)"/>
       <path id="DejaVuSans-29" d="M 513 4856 
L 1013 4856 
Q 1481 4119 1714 3412 
Q 1947 2706 1947 2009 
Q 1947 1309 1714 600 
Q 1481 -109 1013 -844 
L 513 -844 
Q 928 -128 1133 580 
Q 1338 1288 1338 2009 
Q 1338 2731 1133 3434 
Q 928 4138 513 4856 
z
" transform="scale(0.015625)"/>
      </defs>
      <use xlink:href="#DejaVuSans-42"/>
      <use xlink:href="#DejaVuSans-61" transform="translate(68.603516 0)"/>
      <use xlink:href="#DejaVuSans-73" transform="translate(129.882812 0)"/>
      <use xlink:href="#DejaVuSans-65" transform="translate(181.982422 0)"/>
      <use xlink:href="#DejaVuSans-20" transform="translate(243.505859 0)"/>
      <use xlink:href="#DejaVuSans-73" transform="translate(275.292969 0)"/>
      <use xlink:href="#DejaVuSans-74" transform="translate(327.392578 0)"/>
      <use xlink:href="#DejaVuSans-65" transform="translate(366.601562 0)"/>
      <use xlink:href="#DejaVuSans-70" transform="translate(428.125 0)"/>
      <use xlink:href="#DejaVuSans-73" transform="translate(491.601562 0)"/>
      <use xlink:href="#DejaVuSans-20" transform="translate(543.701172 0)"/>
      <use xlink:href="#DejaVuSans-28" transform="translate(575.488281 0)"/>
      <use xlink:href="#DejaVuSans-61" transform="translate(614.501953 0)"/>
      <use xlink:href="#DejaVuSans-76" transform="translate(675.78125 0)"/>
      <use xlink:href="#DejaVuSans-67" transform="translate(734.960938 0)"/>
      <use xlink:href="#DejaVuSans-20" transform="translate(798.4375 0)"/>
      <use xlink:href="#DejaVuSans-61" transform="translate(830.224609 0)"/>
      <use xlink:href="#DejaVuSans-74" transform="translate(891.503906 0)"/>
      <use xlink:href="#DejaVuSans-20" transform="translate(930.712891 0)"/>
      <use xlink:href="#DejaVuSans-2b" transform="translate(962.5 0)"/>
      <use xlink:href="#DejaVuSans-30" transform="translate(1046.289062 0)"/>
      <use xlink:href="#DejaVuSans-2e" transform="translate(1109.912109 0)"/>
      <use xlink:href="#DejaVuSans-35" transform="translate(1141.699219 0)"/>
      <use xlink:href="#DejaVuSans-29" transform="translate(1205.322266 0)"/>
     </g>
    </g>
   </g>
   <g id="matplotlib.axis_2">
    <g id="ytick_1">
     <g id="line2d_13">
      <path d="M 56.565 124.907262 
L 764.157906 124.907262 
" clip-path="url(#p0f239e252d)" style="fill: none; stroke: #b0b0b0; stroke-opacity: 0.3; stroke-width: 0.8; stroke-linecap: square"/>
     </g>
     <g id="line2d_14">
      <defs>
       <path id="m5458f51668" d="M 0 0 
L -3.5 0 
" style="stroke: #000000; stroke-width: 1.5"/>
      </defs>
      <g>
       <use xlink:href="#m5458f51668" x="56.565" y="124.907262" style="stroke: #000000; stroke-width: 1.5"/>
      </g>
     </g>
     <g id="text_8">
      <!-- $\mathdefault{10^{1}}$ -->
      <g transform="translate(26.685 129.846247) scale(0.13 -0.13)">
       <use xlink:href="#DejaVuSans-31" transform="translate(0 0.684375)"/>
       <use xlink:href="#DejaVuSans-30" transform="translate(63.623047 0.684375)"/>
       <use xlink:href="#DejaVuSans-31" transform="translate(128.203125 38.965625) scale(0.7)"/>
      </g>
     </g>
    </g>
    <g id="ytick_2">
     <g id="line2d_15">
      <defs>
       <path id="m6f4d071a6d" d="M 0 0 
L -2 0 
" style="stroke: #000000; stroke-width: 0.6"/>
      </defs>
      <g>
       <use xlink:href="#m6f4d071a6d" x="56.565" y="301.896615" style="stroke: #000000; stroke-width: 0.6"/>
      </g>
     </g>
    </g>
    <g id="ytick_3">
     <g id="line2d_16">
      <g>
       <use xlink:href="#m6f4d071a6d" x="56.565" y="258.794539" style="stroke: #000000; stroke-width: 0.6"/>
      </g>
     </g>
    </g>
    <g id="ytick_4">
     <g id="line2d_17">
      <g>
       <use xlink:href="#m6f4d071a6d" x="56.565" y="223.577579" style="stroke: #000000; stroke-width: 0.6"/>
      </g>
     </g>
    </g>
    <g id="ytick_5">
     <g id="line2d_18">
      <g>
       <use xlink:href="#m6f4d071a6d" x="56.565" y="193.802063" style="stroke: #000000; stroke-width: 0.6"/>
      </g>
     </g>
    </g>
    <g id="ytick_6">
     <g id="line2d_19">
      <g>
       <use xlink:href="#m6f4d071a6d" x="56.565" y="168.009338" style="stroke: #000000; stroke-width: 0.6"/>
      </g>
     </g>
    </g>
    <g id="ytick_7">
     <g id="line2d_20">
      <g>
       <use xlink:href="#m6f4d071a6d" x="56.565" y="145.258542" style="stroke: #000000; stroke-width: 0.6"/>
      </g>
     </g>
    </g>
    <g id="text_9">
     <!-- Distance to the equilibrium -->
     <g transform="translate(19.3575 297.27625) rotate(-90) scale(0.16 -0.16)">
      <defs>
       <path id="DejaVuSans-44" d="M 1259 4147 
L 1259 519 
L 2022 519 
Q 2988 519 3436 956 
Q 3884 1394 3884 2338 
Q 3884 3275 3436 3711 
Q 2988 4147 2022 4147 
L 1259 4147 
z
M 628 4666 
L 1925 4666 
Q 3281 4666 3915 4102 
Q 4550 3538 4550 2338 
Q 4550 1131 3912 565 
Q 3275 0 1925 0 
L 628 0 
L 628 4666 
z
" transform="scale(0.015625)"/>
       <path id="DejaVuSans-69" d="M 603 3500 
L 1178 3500 
L 1178 0 
L 603 0 
L 603 3500 
z
M 603 4863 
L 1178 4863 
L 1178 4134 
L 603 4134 
L 603 4863 
z
" transform="scale(0.015625)"/>
       <path id="DejaVuSans-6e" d="M 3513 2113 
L 3513 0 
L 2938 0 
L 2938 2094 
Q 2938 2591 2744 2837 
Q 2550 3084 2163 3084 
Q 1697 3084 1428 2787 
Q 1159 2491 1159 1978 
L 1159 0 
L 581 0 
L 581 3500 
L 1159 3500 
L 1159 2956 
Q 1366 3272 1645 3428 
Q 1925 3584 2291 3584 
Q 2894 3584 3203 3211 
Q 3513 2838 3513 2113 
z
" transform="scale(0.015625)"/>
       <path id="DejaVuSans-63" d="M 3122 3366 
L 3122 2828 
Q 2878 2963 2633 3030 
Q 2388 3097 2138 3097 
Q 1578 3097 1268 2742 
Q 959 2388 959 1747 
Q 959 1106 1268 751 
Q 1578 397 2138 397 
Q 2388 397 2633 464 
Q 2878 531 3122 666 
L 3122 134 
Q 2881 22 2623 -34 
Q 2366 -91 2075 -91 
Q 1284 -91 818 406 
Q 353 903 353 1747 
Q 353 2603 823 3093 
Q 1294 3584 2113 3584 
Q 2378 3584 2631 3529 
Q 2884 3475 3122 3366 
z
" transform="scale(0.015625)"/>
       <path id="DejaVuSans-6f" d="M 1959 3097 
Q 1497 3097 1228 2736 
Q 959 2375 959 1747 
Q 959 1119 1226 758 
Q 1494 397 1959 397 
Q 2419 397 2687 759 
Q 2956 1122 2956 1747 
Q 2956 2369 2687 2733 
Q 2419 3097 1959 3097 
z
M 1959 3584 
Q 2709 3584 3137 3096 
Q 3566 2609 3566 1747 
Q 3566 888 3137 398 
Q 2709 -91 1959 -91 
Q 1206 -91 779 398 
Q 353 888 353 1747 
Q 353 2609 779 3096 
Q 1206 3584 1959 3584 
z
" transform="scale(0.015625)"/>
       <path id="DejaVuSans-68" d="M 3513 2113 
L 3513 0 
L 2938 0 
L 2938 2094 
Q 2938 2591 2744 2837 
Q 2550 3084 2163 3084 
Q 1697 3084 1428 2787 
Q 1159 2491 1159 1978 
L 1159 0 
L 581 0 
L 581 4863 
L 1159 4863 
L 1159 2956 
Q 1366 3272 1645 3428 
Q 1925 3584 2291 3584 
Q 2894 3584 3203 3211 
Q 3513 2838 3513 2113 
z
" transform="scale(0.015625)"/>
       <path id="DejaVuSans-71" d="M 947 1747 
Q 947 1113 1208 752 
Q 1469 391 1925 391 
Q 2381 391 2643 752 
Q 2906 1113 2906 1747 
Q 2906 2381 2643 2742 
Q 2381 3103 1925 3103 
Q 1469 3103 1208 2742 
Q 947 2381 947 1747 
z
M 2906 525 
Q 2725 213 2448 61 
Q 2172 -91 1784 -91 
Q 1150 -91 751 415 
Q 353 922 353 1747 
Q 353 2572 751 3078 
Q 1150 3584 1784 3584 
Q 2172 3584 2448 3432 
Q 2725 3281 2906 2969 
L 2906 3500 
L 3481 3500 
L 3481 -1331 
L 2906 -1331 
L 2906 525 
z
" transform="scale(0.015625)"/>
       <path id="DejaVuSans-75" d="M 544 1381 
L 544 3500 
L 1119 3500 
L 1119 1403 
Q 1119 906 1312 657 
Q 1506 409 1894 409 
Q 2359 409 2629 706 
Q 2900 1003 2900 1516 
L 2900 3500 
L 3475 3500 
L 3475 0 
L 2900 0 
L 2900 538 
Q 2691 219 2414 64 
Q 2138 -91 1772 -91 
Q 1169 -91 856 284 
Q 544 659 544 1381 
z
M 1991 3584 
L 1991 3584 
z
" transform="scale(0.015625)"/>
       <path id="DejaVuSans-6c" d="M 603 4863 
L 1178 4863 
L 1178 0 
L 603 0 
L 603 4863 
z
" transform="scale(0.015625)"/>
       <path id="DejaVuSans-62" d="M 3116 1747 
Q 3116 2381 2855 2742 
Q 2594 3103 2138 3103 
Q 1681 3103 1420 2742 
Q 1159 2381 1159 1747 
Q 1159 1113 1420 752 
Q 1681 391 2138 391 
Q 2594 391 2855 752 
Q 3116 1113 3116 1747 
z
M 1159 2969 
Q 1341 3281 1617 3432 
Q 1894 3584 2278 3584 
Q 2916 3584 3314 3078 
Q 3713 2572 3713 1747 
Q 3713 922 3314 415 
Q 2916 -91 2278 -91 
Q 1894 -91 1617 61 
Q 1341 213 1159 525 
L 1159 0 
L 581 0 
L 581 4863 
L 1159 4863 
L 1159 2969 
z
" transform="scale(0.015625)"/>
       <path id="DejaVuSans-72" d="M 2631 2963 
Q 2534 3019 2420 3045 
Q 2306 3072 2169 3072 
Q 1681 3072 1420 2755 
Q 1159 2438 1159 1844 
L 1159 0 
L 581 0 
L 581 3500 
L 1159 3500 
L 1159 2956 
Q 1341 3275 1631 3429 
Q 1922 3584 2338 3584 
Q 2397 3584 2469 3576 
Q 2541 3569 2628 3553 
L 2631 2963 
z
" transform="scale(0.015625)"/>
       <path id="DejaVuSans-6d" d="M 3328 2828 
Q 3544 3216 3844 3400 
Q 4144 3584 4550 3584 
Q 5097 3584 5394 3201 
Q 5691 2819 5691 2113 
L 5691 0 
L 5113 0 
L 5113 2094 
Q 5113 2597 4934 2840 
Q 4756 3084 4391 3084 
Q 3944 3084 3684 2787 
Q 3425 2491 3425 1978 
L 3425 0 
L 2847 0 
L 2847 2094 
Q 2847 2600 2669 2842 
Q 2491 3084 2119 3084 
Q 1678 3084 1418 2786 
Q 1159 2488 1159 1978 
L 1159 0 
L 581 0 
L 581 3500 
L 1159 3500 
L 1159 2956 
Q 1356 3278 1631 3431 
Q 1906 3584 2284 3584 
Q 2666 3584 2933 3390 
Q 3200 3197 3328 2828 
z
" transform="scale(0.015625)"/>
      </defs>
      <use xlink:href="#DejaVuSans-44"/>
      <use xlink:href="#DejaVuSans-69" transform="translate(77.001953 0)"/>
      <use xlink:href="#DejaVuSans-73" transform="translate(104.785156 0)"/>
      <use xlink:href="#DejaVuSans-74" transform="translate(156.884766 0)"/>
      <use xlink:href="#DejaVuSans-61" transform="translate(196.09375 0)"/>
      <use xlink:href="#DejaVuSans-6e" transform="translate(257.373047 0)"/>
      <use xlink:href="#DejaVuSans-63" transform="translate(320.751953 0)"/>
      <use xlink:href="#DejaVuSans-65" transform="translate(375.732422 0)"/>
      <use xlink:href="#DejaVuSans-20" transform="translate(437.255859 0)"/>
      <use xlink:href="#DejaVuSans-74" transform="translate(469.042969 0)"/>
      <use xlink:href="#DejaVuSans-6f" transform="translate(508.251953 0)"/>
      <use xlink:href="#DejaVuSans-20" transform="translate(569.433594 0)"/>
      <use xlink:href="#DejaVuSans-74" transform="translate(601.220703 0)"/>
      <use xlink:href="#DejaVuSans-68" transform="translate(640.429688 0)"/>
      <use xlink:href="#DejaVuSans-65" transform="translate(703.808594 0)"/>
      <use xlink:href="#DejaVuSans-20" transform="translate(765.332031 0)"/>
      <use xlink:href="#DejaVuSans-65" transform="translate(797.119141 0)"/>
      <use xlink:href="#DejaVuSans-71" transform="translate(858.642578 0)"/>
      <use xlink:href="#DejaVuSans-75" transform="translate(922.119141 0)"/>
      <use xlink:href="#DejaVuSans-69" transform="translate(985.498047 0)"/>
      <use xlink:href="#DejaVuSans-6c" transform="translate(1013.28125 0)"/>
      <use xlink:href="#DejaVuSans-69" transform="translate(1041.064453 0)"/>
      <use xlink:href="#DejaVuSans-62" transform="translate(1068.847656 0)"/>
      <use xlink:href="#DejaVuSans-72" transform="translate(1132.324219 0)"/>
      <use xlink:href="#DejaVuSans-69" transform="translate(1173.4375 0)"/>
      <use xlink:href="#DejaVuSans-75" transform="translate(1201.220703 0)"/>
      <use xlink:href="#DejaVuSans-6d" transform="translate(1264.599609 0)"/>
     </g>
    </g>
   </g>
   <g id="line2d_21">
    <path d="M 88.728314 42.053596 
L 88.988217 42.07603 
L 89.05969 42.120883 
L 89.105173 42.106533 
L 89.313096 42.143305 
L 89.384569 42.188131 
L 89.430052 42.173789 
L 89.637974 42.210539 
L 89.709448 42.255339 
L 89.754931 42.241006 
L 89.962853 42.277735 
L 90.034326 42.322508 
L 90.079809 42.308183 
L 90.287732 42.34489 
L 90.359205 42.389637 
L 90.404688 42.375321 
L 90.61261 42.412006 
L 90.684084 42.456727 
L 90.729567 42.442419 
L 90.937489 42.479083 
L 91.008962 42.523778 
L 91.054445 42.509478 
L 91.262368 42.54612 
L 91.333841 42.590789 
L 91.379324 42.576497 
L 91.587246 42.613118 
L 91.65872 42.65776 
L 91.704203 42.643477 
L 91.912125 42.680077 
L 91.983598 42.724693 
L 92.029081 42.710418 
L 92.237004 42.746996 
L 92.308477 42.791585 
L 92.35396 42.777319 
L 92.561882 42.813876 
L 92.633356 42.858439 
L 92.678839 42.844181 
L 92.886761 42.880716 
L 92.958234 42.925253 
L 93.003717 42.911004 
L 93.21164 42.947517 
L 93.283113 42.992028 
L 93.328596 42.977787 
L 93.536518 43.014279 
L 93.607992 43.058764 
L 93.653475 43.044531 
L 93.861397 43.081002 
L 93.93287 43.12546 
L 93.978353 43.111236 
L 94.186276 43.147685 
L 94.257749 43.192117 
L 94.303232 43.177902 
L 94.511154 43.214329 
L 94.582628 43.258736 
L 94.628111 43.244528 
L 94.836033 43.280934 
L 94.907506 43.325314 
L 94.952989 43.311115 
L 95.160912 43.3475 
L 95.232385 43.391854 
L 95.232385 43.391854 
" clip-path="url(#p0f239e252d)" style="fill: none; stroke: #1f77b4; stroke-opacity: 0.95; stroke-width: 2.2; stroke-linecap: square"/>
    <defs>
     <path id="m198cdeca37" d="M 0 1.4 
C 0.371284 1.4 0.727412 1.252487 0.989949 0.989949 
C 1.252487 0.727412 1.4 0.371284 1.4 0 
C 1.4 -0.371284 1.252487 -0.727412 0.989949 -0.989949 
C 0.727412 -1.252487 0.371284 -1.4 0 -1.4 
C -0.371284 -1.4 -0.727412 -1.252487 -0.989949 -0.989949 
C -1.252487 -0.727412 -1.4 -0.371284 -1.4 0 
C -1.4 0.371284 -1.252487 0.727412 -0.989949 0.989949 
C -0.727412 1.252487 -0.371284 1.4 0 1.4 
z
" style="stroke: #000000; stroke-opacity: 0.95; stroke-width: 0.6"/>
    </defs>
    <g clip-path="url(#p0f239e252d)">
     <use xlink:href="#m198cdeca37" x="88.728314" y="42.053596" style="fill: #1f77b4; fill-opacity: 0.95; stroke: #000000; stroke-opacity: 0.95; stroke-width: 0.6"/>
     <use xlink:href="#m198cdeca37" x="88.864763" y="42.080515" style="fill: #1f77b4; fill-opacity: 0.95; stroke: #000000; stroke-opacity: 0.95; stroke-width: 0.6"/>
     <use xlink:href="#m198cdeca37" x="88.994714" y="42.107429" style="fill: #1f77b4; fill-opacity: 0.95; stroke: #000000; stroke-opacity: 0.95; stroke-width: 0.6"/>
     <use xlink:href="#m198cdeca37" x="89.124666" y="42.134336" style="fill: #1f77b4; fill-opacity: 0.95; stroke: #000000; stroke-opacity: 0.95; stroke-width: 0.6"/>
     <use xlink:href="#m198cdeca37" x="89.254617" y="42.161237" style="fill: #1f77b4; fill-opacity: 0.95; stroke: #000000; stroke-opacity: 0.95; stroke-width: 0.6"/>
     <use xlink:href="#m198cdeca37" x="89.384569" y="42.188131" style="fill: #1f77b4; fill-opacity: 0.95; stroke: #000000; stroke-opacity: 0.95; stroke-width: 0.6"/>
     <use xlink:href="#m198cdeca37" x="89.51452" y="42.215019" style="fill: #1f77b4; fill-opacity: 0.95; stroke: #000000; stroke-opacity: 0.95; stroke-width: 0.6"/>
     <use xlink:href="#m198cdeca37" x="89.644472" y="42.241901" style="fill: #1f77b4; fill-opacity: 0.95; stroke: #000000; stroke-opacity: 0.95; stroke-width: 0.6"/>
     <use xlink:href="#m198cdeca37" x="89.774423" y="42.268776" style="fill: #1f77b4; fill-opacity: 0.95; stroke: #000000; stroke-opacity: 0.95; stroke-width: 0.6"/>
     <use xlink:href="#m198cdeca37" x="89.904375" y="42.295645" style="fill: #1f77b4; fill-opacity: 0.95; stroke: #000000; stroke-opacity: 0.95; stroke-width: 0.6"/>
     <use xlink:href="#m198cdeca37" x="90.034326" y="42.322508" style="fill: #1f77b4; fill-opacity: 0.95; stroke: #000000; stroke-opacity: 0.95; stroke-width: 0.6"/>
     <use xlink:href="#m198cdeca37" x="90.164278" y="42.349365" style="fill: #1f77b4; fill-opacity: 0.95; stroke: #000000; stroke-opacity: 0.95; stroke-width: 0.6"/>
     <use xlink:href="#m198cdeca37" x="90.294229" y="42.376215" style="fill: #1f77b4; fill-opacity: 0.95; stroke: #000000; stroke-opacity: 0.95; stroke-width: 0.6"/>
     <use xlink:href="#m198cdeca37" x="90.424181" y="42.403059" style="fill: #1f77b4; fill-opacity: 0.95; stroke: #000000; stroke-opacity: 0.95; stroke-width: 0.6"/>
     <use xlink:href="#m198cdeca37" x="90.554132" y="42.429896" style="fill: #1f77b4; fill-opacity: 0.95; stroke: #000000; stroke-opacity: 0.95; stroke-width: 0.6"/>
     <use xlink:href="#m198cdeca37" x="90.684084" y="42.456727" style="fill: #1f77b4; fill-opacity: 0.95; stroke: #000000; stroke-opacity: 0.95; stroke-width: 0.6"/>
     <use xlink:href="#m198cdeca37" x="90.814035" y="42.483552" style="fill: #1f77b4; fill-opacity: 0.95; stroke: #000000; stroke-opacity: 0.95; stroke-width: 0.6"/>
     <use xlink:href="#m198cdeca37" x="90.943986" y="42.510371" style="fill: #1f77b4; fill-opacity: 0.95; stroke: #000000; stroke-opacity: 0.95; stroke-width: 0.6"/>
     <use xlink:href="#m198cdeca37" x="91.073938" y="42.537183" style="fill: #1f77b4; fill-opacity: 0.95; stroke: #000000; stroke-opacity: 0.95; stroke-width: 0.6"/>
     <use xlink:href="#m198cdeca37" x="91.203889" y="42.563989" style="fill: #1f77b4; fill-opacity: 0.95; stroke: #000000; stroke-opacity: 0.95; stroke-width: 0.6"/>
     <use xlink:href="#m198cdeca37" x="91.333841" y="42.590789" style="fill: #1f77b4; fill-opacity: 0.95; stroke: #000000; stroke-opacity: 0.95; stroke-width: 0.6"/>
     <use xlink:href="#m198cdeca37" x="91.463792" y="42.617582" style="fill: #1f77b4; fill-opacity: 0.95; stroke: #000000; stroke-opacity: 0.95; stroke-width: 0.6"/>
     <use xlink:href="#m198cdeca37" x="91.593744" y="42.644369" style="fill: #1f77b4; fill-opacity: 0.95; stroke: #000000; stroke-opacity: 0.95; stroke-width: 0.6"/>
     <use xlink:href="#m198cdeca37" x="91.723695" y="42.67115" style="fill: #1f77b4; fill-opacity: 0.95; stroke: #000000; stroke-opacity: 0.95; stroke-width: 0.6"/>
     <use xlink:href="#m198cdeca37" x="91.853647" y="42.697924" style="fill: #1f77b4; fill-opacity: 0.95; stroke: #000000; stroke-opacity: 0.95; stroke-width: 0.6"/>
     <use xlink:href="#m198cdeca37" x="91.983598" y="42.724693" style="fill: #1f77b4; fill-opacity: 0.95; stroke: #000000; stroke-opacity: 0.95; stroke-width: 0.6"/>
     <use xlink:href="#m198cdeca37" x="92.11355" y="42.751454" style="fill: #1f77b4; fill-opacity: 0.95; stroke: #000000; stroke-opacity: 0.95; stroke-width: 0.6"/>
     <use xlink:href="#m198cdeca37" x="92.243501" y="42.77821" style="fill: #1f77b4; fill-opacity: 0.95; stroke: #000000; stroke-opacity: 0.95; stroke-width: 0.6"/>
     <use xlink:href="#m198cdeca37" x="92.373453" y="42.804959" style="fill: #1f77b4; fill-opacity: 0.95; stroke: #000000; stroke-opacity: 0.95; stroke-width: 0.6"/>
     <use xlink:href="#m198cdeca37" x="92.503404" y="42.831702" style="fill: #1f77b4; fill-opacity: 0.95; stroke: #000000; stroke-opacity: 0.95; stroke-width: 0.6"/>
     <use xlink:href="#m198cdeca37" x="92.633356" y="42.858439" style="fill: #1f77b4; fill-opacity: 0.95; stroke: #000000; stroke-opacity: 0.95; stroke-width: 0.6"/>
     <use xlink:href="#m198cdeca37" x="92.763307" y="42.885169" style="fill: #1f77b4; fill-opacity: 0.95; stroke: #000000; stroke-opacity: 0.95; stroke-width: 0.6"/>
     <use xlink:href="#m198cdeca37" x="92.893259" y="42.911894" style="fill: #1f77b4; fill-opacity: 0.95; stroke: #000000; stroke-opacity: 0.95; stroke-width: 0.6"/>
     <use xlink:href="#m198cdeca37" x="93.02321" y="42.938611" style="fill: #1f77b4; fill-opacity: 0.95; stroke: #000000; stroke-opacity: 0.95; stroke-width: 0.6"/>
     <use xlink:href="#m198cdeca37" x="93.153162" y="42.965323" style="fill: #1f77b4; fill-opacity: 0.95; stroke: #000000; stroke-opacity: 0.95; stroke-width: 0.6"/>
     <use xlink:href="#m198cdeca37" x="93.283113" y="42.992028" style="fill: #1f77b4; fill-opacity: 0.95; stroke: #000000; stroke-opacity: 0.95; stroke-width: 0.6"/>
     <use xlink:href="#m198cdeca37" x="93.413064" y="43.018727" style="fill: #1f77b4; fill-opacity: 0.95; stroke: #000000; stroke-opacity: 0.95; stroke-width: 0.6"/>
     <use xlink:href="#m198cdeca37" x="93.543016" y="43.04542" style="fill: #1f77b4; fill-opacity: 0.95; stroke: #000000; stroke-opacity: 0.95; stroke-width: 0.6"/>
     <use xlink:href="#m198cdeca37" x="93.672967" y="43.072106" style="fill: #1f77b4; fill-opacity: 0.95; stroke: #000000; stroke-opacity: 0.95; stroke-width: 0.6"/>
     <use xlink:href="#m198cdeca37" x="93.802919" y="43.098786" style="fill: #1f77b4; fill-opacity: 0.95; stroke: #000000; stroke-opacity: 0.95; stroke-width: 0.6"/>
     <use xlink:href="#m198cdeca37" x="93.93287" y="43.12546" style="fill: #1f77b4; fill-opacity: 0.95; stroke: #000000; stroke-opacity: 0.95; stroke-width: 0.6"/>
     <use xlink:href="#m198cdeca37" x="94.062822" y="43.152128" style="fill: #1f77b4; fill-opacity: 0.95; stroke: #000000; stroke-opacity: 0.95; stroke-width: 0.6"/>
     <use xlink:href="#m198cdeca37" x="94.192773" y="43.178789" style="fill: #1f77b4; fill-opacity: 0.95; stroke: #000000; stroke-opacity: 0.95; stroke-width: 0.6"/>
     <use xlink:href="#m198cdeca37" x="94.322725" y="43.205444" style="fill: #1f77b4; fill-opacity: 0.95; stroke: #000000; stroke-opacity: 0.95; stroke-width: 0.6"/>
     <use xlink:href="#m198cdeca37" x="94.452676" y="43.232093" style="fill: #1f77b4; fill-opacity: 0.95; stroke: #000000; stroke-opacity: 0.95; stroke-width: 0.6"/>
     <use xlink:href="#m198cdeca37" x="94.582628" y="43.258736" style="fill: #1f77b4; fill-opacity: 0.95; stroke: #000000; stroke-opacity: 0.95; stroke-width: 0.6"/>
     <use xlink:href="#m198cdeca37" x="94.712579" y="43.285372" style="fill: #1f77b4; fill-opacity: 0.95; stroke: #000000; stroke-opacity: 0.95; stroke-width: 0.6"/>
     <use xlink:href="#m198cdeca37" x="94.842531" y="43.312002" style="fill: #1f77b4; fill-opacity: 0.95; stroke: #000000; stroke-opacity: 0.95; stroke-width: 0.6"/>
     <use xlink:href="#m198cdeca37" x="94.972482" y="43.338625" style="fill: #1f77b4; fill-opacity: 0.95; stroke: #000000; stroke-opacity: 0.95; stroke-width: 0.6"/>
     <use xlink:href="#m198cdeca37" x="95.102434" y="43.365243" style="fill: #1f77b4; fill-opacity: 0.95; stroke: #000000; stroke-opacity: 0.95; stroke-width: 0.6"/>
     <use xlink:href="#m198cdeca37" x="95.232385" y="43.391854" style="fill: #1f77b4; fill-opacity: 0.95; stroke: #000000; stroke-opacity: 0.95; stroke-width: 0.6"/>
    </g>
   </g>
   <g id="line2d_22">
    <path d="M 88.728314 42.053596 
L 95.160912 40.262955 
L 95.167409 127.589272 
L 95.277868 127.562076 
L 101.59351 126.071638 
L 101.600007 161.679376 
L 101.710466 161.656011 
L 108.026107 160.370906 
L 108.032605 182.091905 
L 108.143064 182.071386 
L 114.458705 180.940207 
L 114.465203 196.532473 
L 114.575661 196.514091 
L 120.891303 195.499093 
L 120.897801 207.687746 
L 121.008259 207.671009 
L 127.323901 206.745733 
L 127.330398 216.794843 
L 127.440857 216.779417 
L 133.756499 215.925834 
L 133.762996 224.509354 
L 133.873455 224.49501 
L 140.189096 223.700773 
L 140.195594 231.211341 
L 140.306053 231.197921 
L 146.621694 230.454312 
L 146.628192 237.137623 
L 146.738651 237.125007 
L 153.054292 236.425595 
L 153.06079 242.445373 
L 153.171248 242.433469 
L 159.48689 241.773277 
L 159.493387 247.244822 
L 159.603846 247.233557 
L 165.919488 246.608564 
L 165.925985 251.616998 
L 166.036444 251.606311 
L 172.352085 251.013153 
L 172.358583 255.623818 
L 172.469042 255.613657 
L 178.784683 255.049444 
L 178.791181 259.314098 
L 178.90164 259.304416 
L 185.217281 258.766621 
L 185.223779 262.727294 
L 185.334237 262.718049 
L 191.649879 262.204433 
L 191.656376 265.895929 
L 191.766835 265.887085 
L 198.082477 265.395645 
L 198.088974 268.847233 
L 198.199433 268.838759 
L 204.515074 268.367694 
L 204.521572 271.604295 
L 204.632031 271.596159 
L 210.947672 271.143842 
L 210.95417 274.186886 
L 211.064629 274.179063 
L 217.38027 273.744018 
L 217.386768 276.612084 
L 217.497226 276.604549 
L 223.812868 276.185437 
L 223.819365 278.894743 
L 223.929824 278.887473 
L 230.245466 278.483072 
L 230.251963 281.047859 
L 230.362422 281.040836 
L 236.678064 280.650031 
L 236.684561 283.082868 
L 236.79502 283.076071 
L 243.110661 282.697845 
L 243.117159 285.009872 
L 243.227618 285.003286 
L 249.543259 284.636706 
L 249.549757 286.837838 
L 249.660215 286.831448 
L 255.975857 286.475661 
L 255.982355 288.574756 
L 256.092813 288.568546 
L 262.408455 288.222769 
L 262.414952 290.227763 
L 262.525411 290.221721 
L 268.841053 289.885236 
L 268.84755 291.803265 
L 268.958009 291.797378 
L 275.27365 291.469524 
L 275.280148 293.30702 
L 275.390607 293.301278 
L 281.706248 292.981447 
L 281.712746 294.744223 
L 281.823204 294.738616 
L 288.138846 294.426247 
L 288.145344 296.119573 
L 288.255802 296.114091 
L 294.571444 295.80867 
L 294.577941 297.437331 
L 294.6884 297.431966 
L 301.004042 297.133016 
L 301.010539 298.70137 
L 301.120998 298.696114 
L 307.436639 298.403194 
L 307.443137 299.915218 
L 307.553596 299.910063 
L 313.869237 299.622768 
L 313.875735 301.082095 
L 313.986194 301.077035 
L 320.301835 300.794989 
L 320.308333 302.204951 
L 320.418791 302.19998 
L 326.734433 301.922834 
L 326.74093 303.286488 
L 326.851389 303.281599 
L 333.167031 303.009031 
L 333.173528 304.329189 
L 333.283987 304.324377 
L 339.599628 304.056087 
L 339.606126 305.335339 
L 339.716585 305.330599 
L 346.032226 305.066311 
L 346.038724 306.307046 
L 346.149183 306.302374 
L 352.464824 306.041828 
L 352.471322 307.246257 
L 352.58178 307.241647 
L 358.897422 306.984604 
L 358.903919 308.154772 
L 359.014378 308.150221 
L 365.33002 307.896457 
L 365.336517 309.03426 
L 365.446976 309.029765 
L 371.762617 308.779073 
L 371.769115 309.886271 
L 371.879574 309.881828 
L 378.195215 309.634013 
L 378.201713 310.712245 
L 378.312172 310.707851 
L 384.627813 310.462732 
L 384.634311 311.513522 
L 384.744769 311.509174 
L 391.060411 311.266583 
L 391.066908 312.291352 
L 391.177367 312.287046 
L 397.493009 312.046825 
L 397.499506 313.046901 
L 397.609965 313.042635 
L 403.925607 312.804636 
L 403.932104 313.781258 
L 404.042563 313.77703 
L 410.358204 313.541116 
L 410.364702 314.495444 
L 410.475161 314.491251 
L 416.790802 314.257292 
L 416.7973 315.190413 
L 416.907758 315.186253 
L 423.2234 314.954128 
L 423.229898 315.867061 
L 423.340356 315.862932 
L 429.655998 315.632528 
L 429.662495 316.526229 
L 429.772954 316.52213 
L 436.088596 316.293339 
L 436.095093 317.168707 
L 436.205552 317.164635 
L 442.521193 316.937358 
L 442.527691 317.795238 
L 442.63815 317.791191 
L 448.953791 317.565334 
L 448.960289 318.406521 
L 449.070748 318.402499 
L 455.386389 318.177974 
L 455.392887 319.003217 
L 455.503345 318.999217 
L 461.818987 318.775941 
L 461.825484 319.585946 
L 461.935943 319.581967 
L 468.251585 319.359862 
L 468.258082 320.155296 
L 468.368541 320.151337 
L 474.684182 319.930329 
L 474.69068 320.711821 
L 474.801139 320.70788 
L 481.11678 320.4879 
L 481.123278 321.256046 
L 481.233737 321.252122 
L 487.549378 321.033105 
L 487.555876 321.788466 
L 487.666334 321.784558 
L 493.981976 321.566442 
L 493.988473 322.30955 
L 494.098932 322.305658 
L 500.414574 322.088385 
L 500.421071 322.819745 
L 500.53153 322.815867 
L 506.847171 322.599382 
L 506.853669 323.31947 
L 506.964128 323.315606 
L 513.279769 323.099857 
L 513.286267 323.809128 
L 513.396726 323.805276 
L 519.712367 323.590215 
L 519.718865 324.289096 
L 519.829323 324.285256 
L 526.144965 324.070836 
L 526.151462 324.759736 
L 526.261921 324.755907 
L 532.577563 324.542085 
L 532.58406 325.221391 
L 532.694519 325.217572 
L 539.010161 325.004307 
L 539.016658 325.674387 
L 539.127117 325.670577 
L 545.442758 325.45783 
L 545.449256 326.119033 
L 545.559715 326.115232 
L 551.875356 325.902966 
L 551.881854 326.555626 
L 551.992312 326.551832 
L 558.307954 326.340012 
L 558.314452 326.984445 
L 558.42491 326.980659 
L 564.740552 326.769252 
L 564.747049 327.40576 
L 564.857508 327.40198 
L 571.17315 327.190955 
L 571.179647 327.819824 
L 571.290106 327.816052 
L 577.605747 327.605378 
L 577.612245 328.226883 
L 577.722704 328.223116 
L 584.038345 328.012767 
L 584.044843 328.627168 
L 584.155301 328.623407 
L 590.470943 328.413355 
L 590.477441 329.020902 
L 590.587899 329.017145 
L 596.903541 328.807365 
L 596.910038 329.408295 
L 597.020497 329.404543 
L 603.336139 329.195012 
L 603.342636 329.789552 
L 603.453095 329.785804 
L 609.768736 329.576498 
L 609.775234 330.164864 
L 609.885693 330.16112 
L 616.201334 329.952019 
L 616.207832 330.534419 
L 616.318291 330.530678 
L 622.633932 330.321761 
L 622.64043 330.898392 
L 622.750888 330.894654 
L 629.06653 330.685902 
L 629.073027 331.256953 
L 629.183486 331.253217 
L 635.499128 331.044612 
L 635.505625 331.610264 
L 635.616084 331.606531 
L 641.931725 331.398055 
L 641.938223 331.958481 
L 642.048682 331.954751 
L 648.364323 331.746387 
L 648.370821 332.301754 
L 648.48128 332.298025 
L 654.796921 332.089759 
L 654.803419 332.640223 
L 654.913877 332.636496 
L 661.229519 332.428313 
L 661.236016 332.974028 
L 661.346475 332.970302 
L 667.662117 332.762188 
L 667.668614 333.303298 
L 667.779073 333.299573 
L 674.094714 333.091515 
L 674.101212 333.628161 
L 674.211671 333.624437 
L 680.527312 333.416421 
L 680.53381 333.948736 
L 680.644269 333.945013 
L 686.95991 333.737028 
L 686.966408 334.265141 
L 687.076866 334.261418 
L 693.392508 334.053453 
L 693.399005 334.577487 
L 693.509464 334.573764 
L 699.825106 334.365809 
L 699.831603 334.885881 
L 699.942062 334.882157 
L 706.257704 334.674202 
L 706.264201 335.190426 
L 706.37466 335.186702 
L 712.690301 334.978736 
L 712.696799 335.491221 
L 712.807258 335.487497 
L 719.122899 335.279512 
L 719.129397 335.788362 
L 719.239855 335.784638 
L 725.555497 335.576625 
L 725.561995 336.081941 
L 725.672453 336.078216 
L 731.988095 335.870168 
L 731.994592 336.372045 
L 731.994592 336.372045 
" clip-path="url(#p0f239e252d)" style="fill: none; stroke: #2ca02c; stroke-opacity: 0.95; stroke-width: 2.2; stroke-linecap: square"/>
    <defs>
     <path id="m24b3da0cd2" d="M -0 1.4 
L 1.4 -1.4 
L -1.4 -1.4 
z
" style="stroke: #000000; stroke-opacity: 0.95; stroke-width: 0.6; stroke-linejoin: miter"/>
    </defs>
    <g clip-path="url(#p0f239e252d)">
     <use xlink:href="#m24b3da0cd2" x="88.728314" y="42.053596" style="fill: #2ca02c; fill-opacity: 0.95; stroke: #000000; stroke-opacity: 0.95; stroke-width: 0.6; stroke-linejoin: miter"/>
     <use xlink:href="#m24b3da0cd2" x="101.600007" y="161.679376" style="fill: #2ca02c; fill-opacity: 0.95; stroke: #000000; stroke-opacity: 0.95; stroke-width: 0.6; stroke-linejoin: miter"/>
     <use xlink:href="#m24b3da0cd2" x="114.465203" y="196.532473" style="fill: #2ca02c; fill-opacity: 0.95; stroke: #000000; stroke-opacity: 0.95; stroke-width: 0.6; stroke-linejoin: miter"/>
     <use xlink:href="#m24b3da0cd2" x="127.330398" y="216.794843" style="fill: #2ca02c; fill-opacity: 0.95; stroke: #000000; stroke-opacity: 0.95; stroke-width: 0.6; stroke-linejoin: miter"/>
     <use xlink:href="#m24b3da0cd2" x="140.195594" y="231.211341" style="fill: #2ca02c; fill-opacity: 0.95; stroke: #000000; stroke-opacity: 0.95; stroke-width: 0.6; stroke-linejoin: miter"/>
     <use xlink:href="#m24b3da0cd2" x="153.06079" y="242.445373" style="fill: #2ca02c; fill-opacity: 0.95; stroke: #000000; stroke-opacity: 0.95; stroke-width: 0.6; stroke-linejoin: miter"/>
     <use xlink:href="#m24b3da0cd2" x="165.925985" y="251.616998" style="fill: #2ca02c; fill-opacity: 0.95; stroke: #000000; stroke-opacity: 0.95; stroke-width: 0.6; stroke-linejoin: miter"/>
     <use xlink:href="#m24b3da0cd2" x="178.791181" y="259.314098" style="fill: #2ca02c; fill-opacity: 0.95; stroke: #000000; stroke-opacity: 0.95; stroke-width: 0.6; stroke-linejoin: miter"/>
     <use xlink:href="#m24b3da0cd2" x="191.656376" y="265.895929" style="fill: #2ca02c; fill-opacity: 0.95; stroke: #000000; stroke-opacity: 0.95; stroke-width: 0.6; stroke-linejoin: miter"/>
     <use xlink:href="#m24b3da0cd2" x="204.521572" y="271.604295" style="fill: #2ca02c; fill-opacity: 0.95; stroke: #000000; stroke-opacity: 0.95; stroke-width: 0.6; stroke-linejoin: miter"/>
     <use xlink:href="#m24b3da0cd2" x="217.386768" y="276.612084" style="fill: #2ca02c; fill-opacity: 0.95; stroke: #000000; stroke-opacity: 0.95; stroke-width: 0.6; stroke-linejoin: miter"/>
     <use xlink:href="#m24b3da0cd2" x="230.251963" y="281.047859" style="fill: #2ca02c; fill-opacity: 0.95; stroke: #000000; stroke-opacity: 0.95; stroke-width: 0.6; stroke-linejoin: miter"/>
     <use xlink:href="#m24b3da0cd2" x="243.117159" y="285.009872" style="fill: #2ca02c; fill-opacity: 0.95; stroke: #000000; stroke-opacity: 0.95; stroke-width: 0.6; stroke-linejoin: miter"/>
     <use xlink:href="#m24b3da0cd2" x="255.982355" y="288.574756" style="fill: #2ca02c; fill-opacity: 0.95; stroke: #000000; stroke-opacity: 0.95; stroke-width: 0.6; stroke-linejoin: miter"/>
     <use xlink:href="#m24b3da0cd2" x="268.84755" y="291.803265" style="fill: #2ca02c; fill-opacity: 0.95; stroke: #000000; stroke-opacity: 0.95; stroke-width: 0.6; stroke-linejoin: miter"/>
     <use xlink:href="#m24b3da0cd2" x="281.712746" y="294.744223" style="fill: #2ca02c; fill-opacity: 0.95; stroke: #000000; stroke-opacity: 0.95; stroke-width: 0.6; stroke-linejoin: miter"/>
     <use xlink:href="#m24b3da0cd2" x="294.577941" y="297.437331" style="fill: #2ca02c; fill-opacity: 0.95; stroke: #000000; stroke-opacity: 0.95; stroke-width: 0.6; stroke-linejoin: miter"/>
     <use xlink:href="#m24b3da0cd2" x="307.443137" y="299.915218" style="fill: #2ca02c; fill-opacity: 0.95; stroke: #000000; stroke-opacity: 0.95; stroke-width: 0.6; stroke-linejoin: miter"/>
     <use xlink:href="#m24b3da0cd2" x="320.308333" y="302.204951" style="fill: #2ca02c; fill-opacity: 0.95; stroke: #000000; stroke-opacity: 0.95; stroke-width: 0.6; stroke-linejoin: miter"/>
     <use xlink:href="#m24b3da0cd2" x="333.173528" y="304.329189" style="fill: #2ca02c; fill-opacity: 0.95; stroke: #000000; stroke-opacity: 0.95; stroke-width: 0.6; stroke-linejoin: miter"/>
     <use xlink:href="#m24b3da0cd2" x="346.038724" y="306.307046" style="fill: #2ca02c; fill-opacity: 0.95; stroke: #000000; stroke-opacity: 0.95; stroke-width: 0.6; stroke-linejoin: miter"/>
     <use xlink:href="#m24b3da0cd2" x="358.903919" y="308.154772" style="fill: #2ca02c; fill-opacity: 0.95; stroke: #000000; stroke-opacity: 0.95; stroke-width: 0.6; stroke-linejoin: miter"/>
     <use xlink:href="#m24b3da0cd2" x="371.769115" y="309.886271" style="fill: #2ca02c; fill-opacity: 0.95; stroke: #000000; stroke-opacity: 0.95; stroke-width: 0.6; stroke-linejoin: miter"/>
     <use xlink:href="#m24b3da0cd2" x="384.634311" y="311.513522" style="fill: #2ca02c; fill-opacity: 0.95; stroke: #000000; stroke-opacity: 0.95; stroke-width: 0.6; stroke-linejoin: miter"/>
     <use xlink:href="#m24b3da0cd2" x="397.499506" y="313.046901" style="fill: #2ca02c; fill-opacity: 0.95; stroke: #000000; stroke-opacity: 0.95; stroke-width: 0.6; stroke-linejoin: miter"/>
     <use xlink:href="#m24b3da0cd2" x="410.364702" y="314.495444" style="fill: #2ca02c; fill-opacity: 0.95; stroke: #000000; stroke-opacity: 0.95; stroke-width: 0.6; stroke-linejoin: miter"/>
     <use xlink:href="#m24b3da0cd2" x="423.229898" y="315.867061" style="fill: #2ca02c; fill-opacity: 0.95; stroke: #000000; stroke-opacity: 0.95; stroke-width: 0.6; stroke-linejoin: miter"/>
     <use xlink:href="#m24b3da0cd2" x="436.095093" y="317.168707" style="fill: #2ca02c; fill-opacity: 0.95; stroke: #000000; stroke-opacity: 0.95; stroke-width: 0.6; stroke-linejoin: miter"/>
     <use xlink:href="#m24b3da0cd2" x="448.960289" y="318.406521" style="fill: #2ca02c; fill-opacity: 0.95; stroke: #000000; stroke-opacity: 0.95; stroke-width: 0.6; stroke-linejoin: miter"/>
     <use xlink:href="#m24b3da0cd2" x="461.825484" y="319.585946" style="fill: #2ca02c; fill-opacity: 0.95; stroke: #000000; stroke-opacity: 0.95; stroke-width: 0.6; stroke-linejoin: miter"/>
     <use xlink:href="#m24b3da0cd2" x="474.69068" y="320.711821" style="fill: #2ca02c; fill-opacity: 0.95; stroke: #000000; stroke-opacity: 0.95; stroke-width: 0.6; stroke-linejoin: miter"/>
     <use xlink:href="#m24b3da0cd2" x="487.555876" y="321.788466" style="fill: #2ca02c; fill-opacity: 0.95; stroke: #000000; stroke-opacity: 0.95; stroke-width: 0.6; stroke-linejoin: miter"/>
     <use xlink:href="#m24b3da0cd2" x="500.421071" y="322.819745" style="fill: #2ca02c; fill-opacity: 0.95; stroke: #000000; stroke-opacity: 0.95; stroke-width: 0.6; stroke-linejoin: miter"/>
     <use xlink:href="#m24b3da0cd2" x="513.286267" y="323.809128" style="fill: #2ca02c; fill-opacity: 0.95; stroke: #000000; stroke-opacity: 0.95; stroke-width: 0.6; stroke-linejoin: miter"/>
     <use xlink:href="#m24b3da0cd2" x="526.151462" y="324.759736" style="fill: #2ca02c; fill-opacity: 0.95; stroke: #000000; stroke-opacity: 0.95; stroke-width: 0.6; stroke-linejoin: miter"/>
     <use xlink:href="#m24b3da0cd2" x="539.016658" y="325.674387" style="fill: #2ca02c; fill-opacity: 0.95; stroke: #000000; stroke-opacity: 0.95; stroke-width: 0.6; stroke-linejoin: miter"/>
     <use xlink:href="#m24b3da0cd2" x="551.881854" y="326.555626" style="fill: #2ca02c; fill-opacity: 0.95; stroke: #000000; stroke-opacity: 0.95; stroke-width: 0.6; stroke-linejoin: miter"/>
     <use xlink:href="#m24b3da0cd2" x="564.747049" y="327.40576" style="fill: #2ca02c; fill-opacity: 0.95; stroke: #000000; stroke-opacity: 0.95; stroke-width: 0.6; stroke-linejoin: miter"/>
     <use xlink:href="#m24b3da0cd2" x="577.612245" y="328.226883" style="fill: #2ca02c; fill-opacity: 0.95; stroke: #000000; stroke-opacity: 0.95; stroke-width: 0.6; stroke-linejoin: miter"/>
     <use xlink:href="#m24b3da0cd2" x="590.477441" y="329.020902" style="fill: #2ca02c; fill-opacity: 0.95; stroke: #000000; stroke-opacity: 0.95; stroke-width: 0.6; stroke-linejoin: miter"/>
     <use xlink:href="#m24b3da0cd2" x="603.342636" y="329.789552" style="fill: #2ca02c; fill-opacity: 0.95; stroke: #000000; stroke-opacity: 0.95; stroke-width: 0.6; stroke-linejoin: miter"/>
     <use xlink:href="#m24b3da0cd2" x="616.207832" y="330.534419" style="fill: #2ca02c; fill-opacity: 0.95; stroke: #000000; stroke-opacity: 0.95; stroke-width: 0.6; stroke-linejoin: miter"/>
     <use xlink:href="#m24b3da0cd2" x="629.073027" y="331.256953" style="fill: #2ca02c; fill-opacity: 0.95; stroke: #000000; stroke-opacity: 0.95; stroke-width: 0.6; stroke-linejoin: miter"/>
     <use xlink:href="#m24b3da0cd2" x="641.938223" y="331.958481" style="fill: #2ca02c; fill-opacity: 0.95; stroke: #000000; stroke-opacity: 0.95; stroke-width: 0.6; stroke-linejoin: miter"/>
     <use xlink:href="#m24b3da0cd2" x="654.803419" y="332.640223" style="fill: #2ca02c; fill-opacity: 0.95; stroke: #000000; stroke-opacity: 0.95; stroke-width: 0.6; stroke-linejoin: miter"/>
     <use xlink:href="#m24b3da0cd2" x="667.668614" y="333.303298" style="fill: #2ca02c; fill-opacity: 0.95; stroke: #000000; stroke-opacity: 0.95; stroke-width: 0.6; stroke-linejoin: miter"/>
     <use xlink:href="#m24b3da0cd2" x="680.53381" y="333.948736" style="fill: #2ca02c; fill-opacity: 0.95; stroke: #000000; stroke-opacity: 0.95; stroke-width: 0.6; stroke-linejoin: miter"/>
     <use xlink:href="#m24b3da0cd2" x="693.399005" y="334.577487" style="fill: #2ca02c; fill-opacity: 0.95; stroke: #000000; stroke-opacity: 0.95; stroke-width: 0.6; stroke-linejoin: miter"/>
     <use xlink:href="#m24b3da0cd2" x="706.264201" y="335.190426" style="fill: #2ca02c; fill-opacity: 0.95; stroke: #000000; stroke-opacity: 0.95; stroke-width: 0.6; stroke-linejoin: miter"/>
     <use xlink:href="#m24b3da0cd2" x="719.129397" y="335.788362" style="fill: #2ca02c; fill-opacity: 0.95; stroke: #000000; stroke-opacity: 0.95; stroke-width: 0.6; stroke-linejoin: miter"/>
     <use xlink:href="#m24b3da0cd2" x="731.994592" y="336.372045" style="fill: #2ca02c; fill-opacity: 0.95; stroke: #000000; stroke-opacity: 0.95; stroke-width: 0.6; stroke-linejoin: miter"/>
    </g>
   </g>
   <g id="line2d_23">
    <path d="M 88.728314 42.053596 
L 88.741309 42.057185 
L 88.754304 42.060774 
L 88.767299 42.064364 
L 88.780295 42.067953 
L 88.79329 42.071542 
L 88.806285 42.07513 
L 88.81928 42.078719 
L 88.832275 42.082308 
L 88.84527 42.085896 
L 88.858265 42.089485 
L 88.871261 42.093073 
L 88.884256 42.096661 
L 88.897251 42.100249 
L 88.910246 42.103837 
L 88.923241 42.107425 
L 88.936236 42.111013 
L 88.949231 42.1146 
L 88.962227 42.118188 
L 88.975222 42.121775 
L 88.988217 42.125362 
L 89.001212 42.12895 
L 89.014207 42.132537 
L 89.027202 42.136123 
L 89.040197 42.13971 
L 89.053193 42.143297 
L 89.066188 42.146884 
L 89.079183 42.15047 
L 89.092178 42.154056 
L 89.105173 42.157643 
L 89.118168 42.161229 
L 89.131163 42.164815 
L 89.144159 42.168401 
L 89.157154 42.171987 
L 89.170149 42.175572 
L 89.183144 42.179158 
L 89.196139 42.182743 
L 89.209134 42.186329 
L 89.22213 42.189914 
L 89.235125 42.193499 
L 89.24812 42.197084 
L 89.261115 42.200669 
L 89.27411 42.204254 
L 89.287105 42.207838 
L 89.3001 42.211423 
L 89.313096 42.215007 
L 89.326091 42.218592 
L 89.339086 42.222176 
L 89.352081 42.22576 
L 89.365076 42.229344 
L 89.378071 42.232928 
L 89.391066 42.236512 
L 89.404062 42.240096 
L 89.417057 42.243679 
L 89.430052 42.247263 
L 89.443047 42.250846 
L 89.456042 42.254429 
L 89.469037 42.258012 
L 89.482032 42.261595 
L 89.495028 42.265178 
L 89.508023 42.268761 
L 89.521018 42.272344 
L 89.534013 42.275926 
L 89.547008 42.279508 
L 89.560003 42.283091 
L 89.572998 42.286673 
L 89.585994 42.290255 
L 89.598989 42.293837 
L 89.611984 42.297419 
L 89.624979 42.301001 
L 89.637974 42.304582 
L 89.650969 42.308164 
L 89.663965 42.311745 
L 89.67696 42.315327 
L 89.689955 42.318908 
L 89.70295 42.322489 
L 89.715945 42.32607 
L 89.72894 42.329651 
L 89.741935 42.333232 
L 89.754931 42.336812 
L 89.767926 42.340393 
L 89.780921 42.343973 
L 89.793916 42.347553 
L 89.806911 42.351134 
L 89.819906 42.354714 
L 89.832901 42.358294 
L 89.845897 42.361873 
L 89.858892 42.365453 
L 89.871887 42.369033 
L 89.884882 42.372612 
L 89.897877 42.376192 
L 89.910872 42.379771 
L 89.923867 42.38335 
L 89.936863 42.386929 
L 89.949858 42.390508 
L 89.962853 42.394087 
L 89.975848 42.397666 
L 89.988843 42.401244 
L 90.001838 42.404823 
L 90.014833 42.408401 
L 90.027829 42.41198 
" clip-path="url(#p0f239e252d)" style="fill: none; stroke: #ff7f0e; stroke-opacity: 0.95; stroke-width: 2.2; stroke-linecap: square"/>
    <defs>
     <path id="m2065a7ca95" d="M 0 -1.4 
L -1.4 1.4 
L 1.4 1.4 
z
" style="stroke: #000000; stroke-opacity: 0.95; stroke-width: 0.6; stroke-linejoin: miter"/>
    </defs>
    <g clip-path="url(#p0f239e252d)">
     <use xlink:href="#m2065a7ca95" x="88.728314" y="42.053596" style="fill: #ff7f0e; fill-opacity: 0.95; stroke: #000000; stroke-opacity: 0.95; stroke-width: 0.6; stroke-linejoin: miter"/>
     <use xlink:href="#m2065a7ca95" x="88.754304" y="42.060774" style="fill: #ff7f0e; fill-opacity: 0.95; stroke: #000000; stroke-opacity: 0.95; stroke-width: 0.6; stroke-linejoin: miter"/>
     <use xlink:href="#m2065a7ca95" x="88.780295" y="42.067953" style="fill: #ff7f0e; fill-opacity: 0.95; stroke: #000000; stroke-opacity: 0.95; stroke-width: 0.6; stroke-linejoin: miter"/>
     <use xlink:href="#m2065a7ca95" x="88.806285" y="42.07513" style="fill: #ff7f0e; fill-opacity: 0.95; stroke: #000000; stroke-opacity: 0.95; stroke-width: 0.6; stroke-linejoin: miter"/>
     <use xlink:href="#m2065a7ca95" x="88.832275" y="42.082308" style="fill: #ff7f0e; fill-opacity: 0.95; stroke: #000000; stroke-opacity: 0.95; stroke-width: 0.6; stroke-linejoin: miter"/>
     <use xlink:href="#m2065a7ca95" x="88.858265" y="42.089485" style="fill: #ff7f0e; fill-opacity: 0.95; stroke: #000000; stroke-opacity: 0.95; stroke-width: 0.6; stroke-linejoin: miter"/>
     <use xlink:href="#m2065a7ca95" x="88.884256" y="42.096661" style="fill: #ff7f0e; fill-opacity: 0.95; stroke: #000000; stroke-opacity: 0.95; stroke-width: 0.6; stroke-linejoin: miter"/>
     <use xlink:href="#m2065a7ca95" x="88.910246" y="42.103837" style="fill: #ff7f0e; fill-opacity: 0.95; stroke: #000000; stroke-opacity: 0.95; stroke-width: 0.6; stroke-linejoin: miter"/>
     <use xlink:href="#m2065a7ca95" x="88.936236" y="42.111013" style="fill: #ff7f0e; fill-opacity: 0.95; stroke: #000000; stroke-opacity: 0.95; stroke-width: 0.6; stroke-linejoin: miter"/>
     <use xlink:href="#m2065a7ca95" x="88.962227" y="42.118188" style="fill: #ff7f0e; fill-opacity: 0.95; stroke: #000000; stroke-opacity: 0.95; stroke-width: 0.6; stroke-linejoin: miter"/>
     <use xlink:href="#m2065a7ca95" x="88.988217" y="42.125362" style="fill: #ff7f0e; fill-opacity: 0.95; stroke: #000000; stroke-opacity: 0.95; stroke-width: 0.6; stroke-linejoin: miter"/>
     <use xlink:href="#m2065a7ca95" x="89.014207" y="42.132537" style="fill: #ff7f0e; fill-opacity: 0.95; stroke: #000000; stroke-opacity: 0.95; stroke-width: 0.6; stroke-linejoin: miter"/>
     <use xlink:href="#m2065a7ca95" x="89.040197" y="42.13971" style="fill: #ff7f0e; fill-opacity: 0.95; stroke: #000000; stroke-opacity: 0.95; stroke-width: 0.6; stroke-linejoin: miter"/>
     <use xlink:href="#m2065a7ca95" x="89.066188" y="42.146884" style="fill: #ff7f0e; fill-opacity: 0.95; stroke: #000000; stroke-opacity: 0.95; stroke-width: 0.6; stroke-linejoin: miter"/>
     <use xlink:href="#m2065a7ca95" x="89.092178" y="42.154056" style="fill: #ff7f0e; fill-opacity: 0.95; stroke: #000000; stroke-opacity: 0.95; stroke-width: 0.6; stroke-linejoin: miter"/>
     <use xlink:href="#m2065a7ca95" x="89.118168" y="42.161229" style="fill: #ff7f0e; fill-opacity: 0.95; stroke: #000000; stroke-opacity: 0.95; stroke-width: 0.6; stroke-linejoin: miter"/>
     <use xlink:href="#m2065a7ca95" x="89.144159" y="42.168401" style="fill: #ff7f0e; fill-opacity: 0.95; stroke: #000000; stroke-opacity: 0.95; stroke-width: 0.6; stroke-linejoin: miter"/>
     <use xlink:href="#m2065a7ca95" x="89.170149" y="42.175572" style="fill: #ff7f0e; fill-opacity: 0.95; stroke: #000000; stroke-opacity: 0.95; stroke-width: 0.6; stroke-linejoin: miter"/>
     <use xlink:href="#m2065a7ca95" x="89.196139" y="42.182743" style="fill: #ff7f0e; fill-opacity: 0.95; stroke: #000000; stroke-opacity: 0.95; stroke-width: 0.6; stroke-linejoin: miter"/>
     <use xlink:href="#m2065a7ca95" x="89.22213" y="42.189914" style="fill: #ff7f0e; fill-opacity: 0.95; stroke: #000000; stroke-opacity: 0.95; stroke-width: 0.6; stroke-linejoin: miter"/>
     <use xlink:href="#m2065a7ca95" x="89.24812" y="42.197084" style="fill: #ff7f0e; fill-opacity: 0.95; stroke: #000000; stroke-opacity: 0.95; stroke-width: 0.6; stroke-linejoin: miter"/>
     <use xlink:href="#m2065a7ca95" x="89.27411" y="42.204254" style="fill: #ff7f0e; fill-opacity: 0.95; stroke: #000000; stroke-opacity: 0.95; stroke-width: 0.6; stroke-linejoin: miter"/>
     <use xlink:href="#m2065a7ca95" x="89.3001" y="42.211423" style="fill: #ff7f0e; fill-opacity: 0.95; stroke: #000000; stroke-opacity: 0.95; stroke-width: 0.6; stroke-linejoin: miter"/>
     <use xlink:href="#m2065a7ca95" x="89.326091" y="42.218592" style="fill: #ff7f0e; fill-opacity: 0.95; stroke: #000000; stroke-opacity: 0.95; stroke-width: 0.6; stroke-linejoin: miter"/>
     <use xlink:href="#m2065a7ca95" x="89.352081" y="42.22576" style="fill: #ff7f0e; fill-opacity: 0.95; stroke: #000000; stroke-opacity: 0.95; stroke-width: 0.6; stroke-linejoin: miter"/>
     <use xlink:href="#m2065a7ca95" x="89.378071" y="42.232928" style="fill: #ff7f0e; fill-opacity: 0.95; stroke: #000000; stroke-opacity: 0.95; stroke-width: 0.6; stroke-linejoin: miter"/>
     <use xlink:href="#m2065a7ca95" x="89.404062" y="42.240096" style="fill: #ff7f0e; fill-opacity: 0.95; stroke: #000000; stroke-opacity: 0.95; stroke-width: 0.6; stroke-linejoin: miter"/>
     <use xlink:href="#m2065a7ca95" x="89.430052" y="42.247263" style="fill: #ff7f0e; fill-opacity: 0.95; stroke: #000000; stroke-opacity: 0.95; stroke-width: 0.6; stroke-linejoin: miter"/>
     <use xlink:href="#m2065a7ca95" x="89.456042" y="42.254429" style="fill: #ff7f0e; fill-opacity: 0.95; stroke: #000000; stroke-opacity: 0.95; stroke-width: 0.6; stroke-linejoin: miter"/>
     <use xlink:href="#m2065a7ca95" x="89.482032" y="42.261595" style="fill: #ff7f0e; fill-opacity: 0.95; stroke: #000000; stroke-opacity: 0.95; stroke-width: 0.6; stroke-linejoin: miter"/>
     <use xlink:href="#m2065a7ca95" x="89.508023" y="42.268761" style="fill: #ff7f0e; fill-opacity: 0.95; stroke: #000000; stroke-opacity: 0.95; stroke-width: 0.6; stroke-linejoin: miter"/>
     <use xlink:href="#m2065a7ca95" x="89.534013" y="42.275926" style="fill: #ff7f0e; fill-opacity: 0.95; stroke: #000000; stroke-opacity: 0.95; stroke-width: 0.6; stroke-linejoin: miter"/>
     <use xlink:href="#m2065a7ca95" x="89.560003" y="42.283091" style="fill: #ff7f0e; fill-opacity: 0.95; stroke: #000000; stroke-opacity: 0.95; stroke-width: 0.6; stroke-linejoin: miter"/>
     <use xlink:href="#m2065a7ca95" x="89.585994" y="42.290255" style="fill: #ff7f0e; fill-opacity: 0.95; stroke: #000000; stroke-opacity: 0.95; stroke-width: 0.6; stroke-linejoin: miter"/>
     <use xlink:href="#m2065a7ca95" x="89.611984" y="42.297419" style="fill: #ff7f0e; fill-opacity: 0.95; stroke: #000000; stroke-opacity: 0.95; stroke-width: 0.6; stroke-linejoin: miter"/>
     <use xlink:href="#m2065a7ca95" x="89.637974" y="42.304582" style="fill: #ff7f0e; fill-opacity: 0.95; stroke: #000000; stroke-opacity: 0.95; stroke-width: 0.6; stroke-linejoin: miter"/>
     <use xlink:href="#m2065a7ca95" x="89.663965" y="42.311745" style="fill: #ff7f0e; fill-opacity: 0.95; stroke: #000000; stroke-opacity: 0.95; stroke-width: 0.6; stroke-linejoin: miter"/>
     <use xlink:href="#m2065a7ca95" x="89.689955" y="42.318908" style="fill: #ff7f0e; fill-opacity: 0.95; stroke: #000000; stroke-opacity: 0.95; stroke-width: 0.6; stroke-linejoin: miter"/>
     <use xlink:href="#m2065a7ca95" x="89.715945" y="42.32607" style="fill: #ff7f0e; fill-opacity: 0.95; stroke: #000000; stroke-opacity: 0.95; stroke-width: 0.6; stroke-linejoin: miter"/>
     <use xlink:href="#m2065a7ca95" x="89.741935" y="42.333232" style="fill: #ff7f0e; fill-opacity: 0.95; stroke: #000000; stroke-opacity: 0.95; stroke-width: 0.6; stroke-linejoin: miter"/>
     <use xlink:href="#m2065a7ca95" x="89.767926" y="42.340393" style="fill: #ff7f0e; fill-opacity: 0.95; stroke: #000000; stroke-opacity: 0.95; stroke-width: 0.6; stroke-linejoin: miter"/>
     <use xlink:href="#m2065a7ca95" x="89.793916" y="42.347553" style="fill: #ff7f0e; fill-opacity: 0.95; stroke: #000000; stroke-opacity: 0.95; stroke-width: 0.6; stroke-linejoin: miter"/>
     <use xlink:href="#m2065a7ca95" x="89.819906" y="42.354714" style="fill: #ff7f0e; fill-opacity: 0.95; stroke: #000000; stroke-opacity: 0.95; stroke-width: 0.6; stroke-linejoin: miter"/>
     <use xlink:href="#m2065a7ca95" x="89.845897" y="42.361873" style="fill: #ff7f0e; fill-opacity: 0.95; stroke: #000000; stroke-opacity: 0.95; stroke-width: 0.6; stroke-linejoin: miter"/>
     <use xlink:href="#m2065a7ca95" x="89.871887" y="42.369033" style="fill: #ff7f0e; fill-opacity: 0.95; stroke: #000000; stroke-opacity: 0.95; stroke-width: 0.6; stroke-linejoin: miter"/>
     <use xlink:href="#m2065a7ca95" x="89.897877" y="42.376192" style="fill: #ff7f0e; fill-opacity: 0.95; stroke: #000000; stroke-opacity: 0.95; stroke-width: 0.6; stroke-linejoin: miter"/>
     <use xlink:href="#m2065a7ca95" x="89.923867" y="42.38335" style="fill: #ff7f0e; fill-opacity: 0.95; stroke: #000000; stroke-opacity: 0.95; stroke-width: 0.6; stroke-linejoin: miter"/>
     <use xlink:href="#m2065a7ca95" x="89.949858" y="42.390508" style="fill: #ff7f0e; fill-opacity: 0.95; stroke: #000000; stroke-opacity: 0.95; stroke-width: 0.6; stroke-linejoin: miter"/>
     <use xlink:href="#m2065a7ca95" x="89.975848" y="42.397666" style="fill: #ff7f0e; fill-opacity: 0.95; stroke: #000000; stroke-opacity: 0.95; stroke-width: 0.6; stroke-linejoin: miter"/>
     <use xlink:href="#m2065a7ca95" x="90.001838" y="42.404823" style="fill: #ff7f0e; fill-opacity: 0.95; stroke: #000000; stroke-opacity: 0.95; stroke-width: 0.6; stroke-linejoin: miter"/>
     <use xlink:href="#m2065a7ca95" x="90.027829" y="42.41198" style="fill: #ff7f0e; fill-opacity: 0.95; stroke: #000000; stroke-opacity: 0.95; stroke-width: 0.6; stroke-linejoin: miter"/>
    </g>
   </g>
   <g id="line2d_24">
    <path d="M 88.728314 42.053596 
L 88.741309 42.039238 
L 88.754304 42.050002 
L 88.767299 42.053596 
L 88.780295 42.057185 
L 88.79329 42.060775 
L 88.806285 42.064364 
L 88.81928 42.067954 
L 88.832275 42.071544 
L 88.84527 42.075133 
L 88.858265 42.078722 
L 88.871261 42.082311 
L 88.884256 42.0859 
L 88.897251 42.089489 
L 88.910246 42.093078 
L 88.923241 42.096666 
L 88.936236 42.100255 
L 88.949231 42.103843 
L 88.962227 42.107432 
L 88.975222 42.11102 
L 88.988217 42.114608 
L 89.001212 42.118196 
L 89.014207 42.121784 
L 89.027202 42.125372 
L 89.040197 42.128959 
L 89.053193 42.132547 
L 89.066188 42.136134 
L 89.079183 42.139722 
L 89.092178 42.143309 
L 89.105173 42.146896 
L 89.118168 42.150483 
L 89.131163 42.15407 
L 89.144159 42.157656 
L 89.157154 42.161243 
L 89.170149 42.16483 
L 89.183144 42.168416 
L 89.196139 42.172002 
L 89.209134 42.175589 
L 89.22213 42.179175 
L 89.235125 42.182761 
L 89.24812 42.186346 
L 89.261115 42.189932 
L 89.27411 42.193518 
L 89.287105 42.197103 
L 89.3001 42.200689 
L 89.313096 42.204274 
L 89.326091 42.207859 
L 89.339086 42.211444 
L 89.352081 42.215029 
L 89.365076 42.218614 
L 89.378071 42.222199 
L 89.391066 42.225783 
L 89.404062 42.229368 
L 89.417057 42.232952 
L 89.430052 42.236536 
L 89.443047 42.240121 
L 89.456042 42.243705 
L 89.469037 42.247289 
L 89.482032 42.250872 
L 89.495028 42.254456 
L 89.508023 42.25804 
L 89.521018 42.261623 
L 89.534013 42.265207 
L 89.547008 42.26879 
L 89.560003 42.272373 
L 89.572998 42.275956 
L 89.585994 42.279539 
L 89.598989 42.283122 
L 89.611984 42.286704 
L 89.624979 42.290287 
L 89.637974 42.293869 
L 89.650969 42.297452 
L 89.663965 42.301034 
L 89.67696 42.304616 
L 89.689955 42.308198 
L 89.70295 42.31178 
L 89.715945 42.315362 
L 89.72894 42.318944 
L 89.741935 42.322525 
L 89.754931 42.326107 
L 89.767926 42.329688 
L 89.780921 42.333269 
L 89.793916 42.33685 
L 89.806911 42.340431 
L 89.819906 42.344012 
L 89.832901 42.347593 
L 89.845897 42.351174 
L 89.858892 42.354754 
L 89.871887 42.358335 
L 89.884882 42.361915 
L 89.897877 42.365495 
L 89.910872 42.369075 
L 89.923867 42.372655 
L 89.936863 42.376235 
L 89.949858 42.379815 
L 89.962853 42.383395 
L 89.975848 42.386974 
L 89.988843 42.390554 
L 90.001838 42.394133 
L 90.014833 42.397712 
L 90.027829 42.401291 
" clip-path="url(#p0f239e252d)" style="fill: none; stroke: #8c564b; stroke-opacity: 0.95; stroke-width: 2.2; stroke-linecap: square"/>
    <defs>
     <path id="m6deaace89c" d="M -1.4 1.4 
L 1.4 1.4 
L 1.4 -1.4 
L -1.4 -1.4 
z
" style="stroke: #000000; stroke-opacity: 0.95; stroke-width: 0.6; stroke-linejoin: miter"/>
    </defs>
    <g clip-path="url(#p0f239e252d)">
     <use xlink:href="#m6deaace89c" x="88.728314" y="42.053596" style="fill: #8c564b; fill-opacity: 0.95; stroke: #000000; stroke-opacity: 0.95; stroke-width: 0.6; stroke-linejoin: miter"/>
     <use xlink:href="#m6deaace89c" x="88.754304" y="42.050002" style="fill: #8c564b; fill-opacity: 0.95; stroke: #000000; stroke-opacity: 0.95; stroke-width: 0.6; stroke-linejoin: miter"/>
     <use xlink:href="#m6deaace89c" x="88.780295" y="42.057185" style="fill: #8c564b; fill-opacity: 0.95; stroke: #000000; stroke-opacity: 0.95; stroke-width: 0.6; stroke-linejoin: miter"/>
     <use xlink:href="#m6deaace89c" x="88.806285" y="42.064364" style="fill: #8c564b; fill-opacity: 0.95; stroke: #000000; stroke-opacity: 0.95; stroke-width: 0.6; stroke-linejoin: miter"/>
     <use xlink:href="#m6deaace89c" x="88.832275" y="42.071544" style="fill: #8c564b; fill-opacity: 0.95; stroke: #000000; stroke-opacity: 0.95; stroke-width: 0.6; stroke-linejoin: miter"/>
     <use xlink:href="#m6deaace89c" x="88.858265" y="42.078722" style="fill: #8c564b; fill-opacity: 0.95; stroke: #000000; stroke-opacity: 0.95; stroke-width: 0.6; stroke-linejoin: miter"/>
     <use xlink:href="#m6deaace89c" x="88.884256" y="42.0859" style="fill: #8c564b; fill-opacity: 0.95; stroke: #000000; stroke-opacity: 0.95; stroke-width: 0.6; stroke-linejoin: miter"/>
     <use xlink:href="#m6deaace89c" x="88.910246" y="42.093078" style="fill: #8c564b; fill-opacity: 0.95; stroke: #000000; stroke-opacity: 0.95; stroke-width: 0.6; stroke-linejoin: miter"/>
     <use xlink:href="#m6deaace89c" x="88.936236" y="42.100255" style="fill: #8c564b; fill-opacity: 0.95; stroke: #000000; stroke-opacity: 0.95; stroke-width: 0.6; stroke-linejoin: miter"/>
     <use xlink:href="#m6deaace89c" x="88.962227" y="42.107432" style="fill: #8c564b; fill-opacity: 0.95; stroke: #000000; stroke-opacity: 0.95; stroke-width: 0.6; stroke-linejoin: miter"/>
     <use xlink:href="#m6deaace89c" x="88.988217" y="42.114608" style="fill: #8c564b; fill-opacity: 0.95; stroke: #000000; stroke-opacity: 0.95; stroke-width: 0.6; stroke-linejoin: miter"/>
     <use xlink:href="#m6deaace89c" x="89.014207" y="42.121784" style="fill: #8c564b; fill-opacity: 0.95; stroke: #000000; stroke-opacity: 0.95; stroke-width: 0.6; stroke-linejoin: miter"/>
     <use xlink:href="#m6deaace89c" x="89.040197" y="42.128959" style="fill: #8c564b; fill-opacity: 0.95; stroke: #000000; stroke-opacity: 0.95; stroke-width: 0.6; stroke-linejoin: miter"/>
     <use xlink:href="#m6deaace89c" x="89.066188" y="42.136134" style="fill: #8c564b; fill-opacity: 0.95; stroke: #000000; stroke-opacity: 0.95; stroke-width: 0.6; stroke-linejoin: miter"/>
     <use xlink:href="#m6deaace89c" x="89.092178" y="42.143309" style="fill: #8c564b; fill-opacity: 0.95; stroke: #000000; stroke-opacity: 0.95; stroke-width: 0.6; stroke-linejoin: miter"/>
     <use xlink:href="#m6deaace89c" x="89.118168" y="42.150483" style="fill: #8c564b; fill-opacity: 0.95; stroke: #000000; stroke-opacity: 0.95; stroke-width: 0.6; stroke-linejoin: miter"/>
     <use xlink:href="#m6deaace89c" x="89.144159" y="42.157656" style="fill: #8c564b; fill-opacity: 0.95; stroke: #000000; stroke-opacity: 0.95; stroke-width: 0.6; stroke-linejoin: miter"/>
     <use xlink:href="#m6deaace89c" x="89.170149" y="42.16483" style="fill: #8c564b; fill-opacity: 0.95; stroke: #000000; stroke-opacity: 0.95; stroke-width: 0.6; stroke-linejoin: miter"/>
     <use xlink:href="#m6deaace89c" x="89.196139" y="42.172002" style="fill: #8c564b; fill-opacity: 0.95; stroke: #000000; stroke-opacity: 0.95; stroke-width: 0.6; stroke-linejoin: miter"/>
     <use xlink:href="#m6deaace89c" x="89.22213" y="42.179175" style="fill: #8c564b; fill-opacity: 0.95; stroke: #000000; stroke-opacity: 0.95; stroke-width: 0.6; stroke-linejoin: miter"/>
     <use xlink:href="#m6deaace89c" x="89.24812" y="42.186346" style="fill: #8c564b; fill-opacity: 0.95; stroke: #000000; stroke-opacity: 0.95; stroke-width: 0.6; stroke-linejoin: miter"/>
     <use xlink:href="#m6deaace89c" x="89.27411" y="42.193518" style="fill: #8c564b; fill-opacity: 0.95; stroke: #000000; stroke-opacity: 0.95; stroke-width: 0.6; stroke-linejoin: miter"/>
     <use xlink:href="#m6deaace89c" x="89.3001" y="42.200689" style="fill: #8c564b; fill-opacity: 0.95; stroke: #000000; stroke-opacity: 0.95; stroke-width: 0.6; stroke-linejoin: miter"/>
     <use xlink:href="#m6deaace89c" x="89.326091" y="42.207859" style="fill: #8c564b; fill-opacity: 0.95; stroke: #000000; stroke-opacity: 0.95; stroke-width: 0.6; stroke-linejoin: miter"/>
     <use xlink:href="#m6deaace89c" x="89.352081" y="42.215029" style="fill: #8c564b; fill-opacity: 0.95; stroke: #000000; stroke-opacity: 0.95; stroke-width: 0.6; stroke-linejoin: miter"/>
     <use xlink:href="#m6deaace89c" x="89.378071" y="42.222199" style="fill: #8c564b; fill-opacity: 0.95; stroke: #000000; stroke-opacity: 0.95; stroke-width: 0.6; stroke-linejoin: miter"/>
     <use xlink:href="#m6deaace89c" x="89.404062" y="42.229368" style="fill: #8c564b; fill-opacity: 0.95; stroke: #000000; stroke-opacity: 0.95; stroke-width: 0.6; stroke-linejoin: miter"/>
     <use xlink:href="#m6deaace89c" x="89.430052" y="42.236536" style="fill: #8c564b; fill-opacity: 0.95; stroke: #000000; stroke-opacity: 0.95; stroke-width: 0.6; stroke-linejoin: miter"/>
     <use xlink:href="#m6deaace89c" x="89.456042" y="42.243705" style="fill: #8c564b; fill-opacity: 0.95; stroke: #000000; stroke-opacity: 0.95; stroke-width: 0.6; stroke-linejoin: miter"/>
     <use xlink:href="#m6deaace89c" x="89.482032" y="42.250872" style="fill: #8c564b; fill-opacity: 0.95; stroke: #000000; stroke-opacity: 0.95; stroke-width: 0.6; stroke-linejoin: miter"/>
     <use xlink:href="#m6deaace89c" x="89.508023" y="42.25804" style="fill: #8c564b; fill-opacity: 0.95; stroke: #000000; stroke-opacity: 0.95; stroke-width: 0.6; stroke-linejoin: miter"/>
     <use xlink:href="#m6deaace89c" x="89.534013" y="42.265207" style="fill: #8c564b; fill-opacity: 0.95; stroke: #000000; stroke-opacity: 0.95; stroke-width: 0.6; stroke-linejoin: miter"/>
     <use xlink:href="#m6deaace89c" x="89.560003" y="42.272373" style="fill: #8c564b; fill-opacity: 0.95; stroke: #000000; stroke-opacity: 0.95; stroke-width: 0.6; stroke-linejoin: miter"/>
     <use xlink:href="#m6deaace89c" x="89.585994" y="42.279539" style="fill: #8c564b; fill-opacity: 0.95; stroke: #000000; stroke-opacity: 0.95; stroke-width: 0.6; stroke-linejoin: miter"/>
     <use xlink:href="#m6deaace89c" x="89.611984" y="42.286704" style="fill: #8c564b; fill-opacity: 0.95; stroke: #000000; stroke-opacity: 0.95; stroke-width: 0.6; stroke-linejoin: miter"/>
     <use xlink:href="#m6deaace89c" x="89.637974" y="42.293869" style="fill: #8c564b; fill-opacity: 0.95; stroke: #000000; stroke-opacity: 0.95; stroke-width: 0.6; stroke-linejoin: miter"/>
     <use xlink:href="#m6deaace89c" x="89.663965" y="42.301034" style="fill: #8c564b; fill-opacity: 0.95; stroke: #000000; stroke-opacity: 0.95; stroke-width: 0.6; stroke-linejoin: miter"/>
     <use xlink:href="#m6deaace89c" x="89.689955" y="42.308198" style="fill: #8c564b; fill-opacity: 0.95; stroke: #000000; stroke-opacity: 0.95; stroke-width: 0.6; stroke-linejoin: miter"/>
     <use xlink:href="#m6deaace89c" x="89.715945" y="42.315362" style="fill: #8c564b; fill-opacity: 0.95; stroke: #000000; stroke-opacity: 0.95; stroke-width: 0.6; stroke-linejoin: miter"/>
     <use xlink:href="#m6deaace89c" x="89.741935" y="42.322525" style="fill: #8c564b; fill-opacity: 0.95; stroke: #000000; stroke-opacity: 0.95; stroke-width: 0.6; stroke-linejoin: miter"/>
     <use xlink:href="#m6deaace89c" x="89.767926" y="42.329688" style="fill: #8c564b; fill-opacity: 0.95; stroke: #000000; stroke-opacity: 0.95; stroke-width: 0.6; stroke-linejoin: miter"/>
     <use xlink:href="#m6deaace89c" x="89.793916" y="42.33685" style="fill: #8c564b; fill-opacity: 0.95; stroke: #000000; stroke-opacity: 0.95; stroke-width: 0.6; stroke-linejoin: miter"/>
     <use xlink:href="#m6deaace89c" x="89.819906" y="42.344012" style="fill: #8c564b; fill-opacity: 0.95; stroke: #000000; stroke-opacity: 0.95; stroke-width: 0.6; stroke-linejoin: miter"/>
     <use xlink:href="#m6deaace89c" x="89.845897" y="42.351174" style="fill: #8c564b; fill-opacity: 0.95; stroke: #000000; stroke-opacity: 0.95; stroke-width: 0.6; stroke-linejoin: miter"/>
     <use xlink:href="#m6deaace89c" x="89.871887" y="42.358335" style="fill: #8c564b; fill-opacity: 0.95; stroke: #000000; stroke-opacity: 0.95; stroke-width: 0.6; stroke-linejoin: miter"/>
     <use xlink:href="#m6deaace89c" x="89.897877" y="42.365495" style="fill: #8c564b; fill-opacity: 0.95; stroke: #000000; stroke-opacity: 0.95; stroke-width: 0.6; stroke-linejoin: miter"/>
     <use xlink:href="#m6deaace89c" x="89.923867" y="42.372655" style="fill: #8c564b; fill-opacity: 0.95; stroke: #000000; stroke-opacity: 0.95; stroke-width: 0.6; stroke-linejoin: miter"/>
     <use xlink:href="#m6deaace89c" x="89.949858" y="42.379815" style="fill: #8c564b; fill-opacity: 0.95; stroke: #000000; stroke-opacity: 0.95; stroke-width: 0.6; stroke-linejoin: miter"/>
     <use xlink:href="#m6deaace89c" x="89.975848" y="42.386974" style="fill: #8c564b; fill-opacity: 0.95; stroke: #000000; stroke-opacity: 0.95; stroke-width: 0.6; stroke-linejoin: miter"/>
     <use xlink:href="#m6deaace89c" x="90.001838" y="42.394133" style="fill: #8c564b; fill-opacity: 0.95; stroke: #000000; stroke-opacity: 0.95; stroke-width: 0.6; stroke-linejoin: miter"/>
     <use xlink:href="#m6deaace89c" x="90.027829" y="42.401291" style="fill: #8c564b; fill-opacity: 0.95; stroke: #000000; stroke-opacity: 0.95; stroke-width: 0.6; stroke-linejoin: miter"/>
    </g>
   </g>
   <g id="patch_3">
    <path d="M 56.565 351.1775 
L 56.565 25.4575 
" style="fill: none; stroke: #000000; stroke-width: 0.8; stroke-linejoin: miter; stroke-linecap: square"/>
   </g>
   <g id="patch_4">
    <path d="M 764.157906 351.1775 
L 764.157906 25.4575 
" style="fill: none; stroke: #000000; stroke-width: 0.8; stroke-linejoin: miter; stroke-linecap: square"/>
   </g>
   <g id="patch_5">
    <path d="M 56.565 351.1775 
L 764.157906 351.1775 
" style="fill: none; stroke: #000000; stroke-width: 0.8; stroke-linejoin: miter; stroke-linecap: square"/>
   </g>
   <g id="patch_6">
    <path d="M 56.565 25.4575 
L 764.157906 25.4575 
" style="fill: none; stroke: #000000; stroke-width: 0.8; stroke-linejoin: miter; stroke-linecap: square"/>
   </g>
   <g id="text_10">
    <!-- Bilinear d=120, =0.6, =0.01  single run (log y) -->
    <g transform="translate(205.475203 19.4575) scale(0.16 -0.16)">
     <defs>
      <path id="DejaVuSans-64" d="M 2906 2969 
L 2906 4863 
L 3481 4863 
L 3481 0 
L 2906 0 
L 2906 525 
Q 2725 213 2448 61 
Q 2172 -91 1784 -91 
Q 1150 -91 751 415 
Q 353 922 353 1747 
Q 353 2572 751 3078 
Q 1150 3584 1784 3584 
Q 2172 3584 2448 3432 
Q 2725 3281 2906 2969 
z
M 947 1747 
Q 947 1113 1208 752 
Q 1469 391 1925 391 
Q 2381 391 2643 752 
Q 2906 1113 2906 1747 
Q 2906 2381 2643 2742 
Q 2381 3103 1925 3103 
Q 1469 3103 1208 2742 
Q 947 2381 947 1747 
z
" transform="scale(0.015625)"/>
      <path id="DejaVuSans-3d" d="M 678 2906 
L 4684 2906 
L 4684 2381 
L 678 2381 
L 678 2906 
z
M 678 1631 
L 4684 1631 
L 4684 1100 
L 678 1100 
L 678 1631 
z
" transform="scale(0.015625)"/>
      <path id="DejaVuSans-2c" d="M 750 794 
L 1409 794 
L 1409 256 
L 897 -744 
L 494 -744 
L 750 256 
L 750 794 
z
" transform="scale(0.015625)"/>
      <path id="DejaVuSans-3b2" d="M 1178 216 
L 1178 -1331 
L 600 -1331 
L 600 3478 
Q 600 4903 1931 4903 
Q 3288 4903 3288 3700 
Q 3288 2844 2750 2531 
Q 3625 2250 3625 1416 
Q 3625 -66 2119 -66 
Q 1456 -66 1178 216 
z
M 1178 966 
Q 1525 425 2141 425 
Q 3041 425 3041 1406 
Q 3041 2288 1591 2219 
L 1591 2750 
Q 2725 2750 2725 3750 
Q 2725 4434 1994 4434 
Q 1178 4434 1178 3459 
L 1178 966 
z
" transform="scale(0.015625)"/>
      <path id="DejaVuSans-36" d="M 2113 2584 
Q 1688 2584 1439 2293 
Q 1191 2003 1191 1497 
Q 1191 994 1439 701 
Q 1688 409 2113 409 
Q 2538 409 2786 701 
Q 3034 994 3034 1497 
Q 3034 2003 2786 2293 
Q 2538 2584 2113 2584 
z
M 3366 4563 
L 3366 3988 
Q 3128 4100 2886 4159 
Q 2644 4219 2406 4219 
Q 1781 4219 1451 3797 
Q 1122 3375 1075 2522 
Q 1259 2794 1537 2939 
Q 1816 3084 2150 3084 
Q 2853 3084 3261 2657 
Q 3669 2231 3669 1497 
Q 3669 778 3244 343 
Q 2819 -91 2113 -91 
Q 1303 -91 875 529 
Q 447 1150 447 2328 
Q 447 3434 972 4092 
Q 1497 4750 2381 4750 
Q 2619 4750 2861 4703 
Q 3103 4656 3366 4563 
z
" transform="scale(0.015625)"/>
      <path id="DejaVuSans-3b3" d="M 1128 2950 
L 1894 788 
L 2988 3500 
L 3597 3500 
L 2181 0 
L 2181 -1331 
L 1606 -1331 
L 1606 0 
L 688 2613 
Q 550 3006 253 3006 
L 100 3006 
L 100 3500 
L 319 3500 
Q 934 3500 1128 2950 
z
" transform="scale(0.015625)"/>
      <path id="DejaVuSans-2014" d="M 313 1978 
L 6088 1978 
L 6088 1528 
L 313 1528 
L 313 1978 
z
" transform="scale(0.015625)"/>
      <path id="DejaVuSans-79" d="M 2059 -325 
Q 1816 -950 1584 -1140 
Q 1353 -1331 966 -1331 
L 506 -1331 
L 506 -850 
L 844 -850 
Q 1081 -850 1212 -737 
Q 1344 -625 1503 -206 
L 1606 56 
L 191 3500 
L 800 3500 
L 1894 763 
L 2988 3500 
L 3597 3500 
L 2059 -325 
z
" transform="scale(0.015625)"/>
     </defs>
     <use xlink:href="#DejaVuSans-42"/>
     <use xlink:href="#DejaVuSans-69" transform="translate(68.603516 0)"/>
     <use xlink:href="#DejaVuSans-6c" transform="translate(96.386719 0)"/>
     <use xlink:href="#DejaVuSans-69" transform="translate(124.169922 0)"/>
     <use xlink:href="#DejaVuSans-6e" transform="translate(151.953125 0)"/>
     <use xlink:href="#DejaVuSans-65" transform="translate(215.332031 0)"/>
     <use xlink:href="#DejaVuSans-61" transform="translate(276.855469 0)"/>
     <use xlink:href="#DejaVuSans-72" transform="translate(338.134766 0)"/>
     <use xlink:href="#DejaVuSans-20" transform="translate(379.248047 0)"/>
     <use xlink:href="#DejaVuSans-64" transform="translate(411.035156 0)"/>
     <use xlink:href="#DejaVuSans-3d" transform="translate(474.511719 0)"/>
     <use xlink:href="#DejaVuSans-31" transform="translate(558.300781 0)"/>
     <use xlink:href="#DejaVuSans-32" transform="translate(621.923828 0)"/>
     <use xlink:href="#DejaVuSans-30" transform="translate(685.546875 0)"/>
     <use xlink:href="#DejaVuSans-2c" transform="translate(749.169922 0)"/>
     <use xlink:href="#DejaVuSans-20" transform="translate(780.957031 0)"/>
     <use xlink:href="#DejaVuSans-3b2" transform="translate(812.744141 0)"/>
     <use xlink:href="#DejaVuSans-3d" transform="translate(876.5625 0)"/>
     <use xlink:href="#DejaVuSans-30" transform="translate(960.351562 0)"/>
     <use xlink:href="#DejaVuSans-2e" transform="translate(1023.974609 0)"/>
     <use xlink:href="#DejaVuSans-36" transform="translate(1055.761719 0)"/>
     <use xlink:href="#DejaVuSans-2c" transform="translate(1119.384766 0)"/>
     <use xlink:href="#DejaVuSans-20" transform="translate(1151.171875 0)"/>
     <use xlink:href="#DejaVuSans-3b3" transform="translate(1182.958984 0)"/>
     <use xlink:href="#DejaVuSans-3d" transform="translate(1242.138672 0)"/>
     <use xlink:href="#DejaVuSans-30" transform="translate(1325.927734 0)"/>
     <use xlink:href="#DejaVuSans-2e" transform="translate(1389.550781 0)"/>
     <use xlink:href="#DejaVuSans-30" transform="translate(1421.337891 0)"/>
     <use xlink:href="#DejaVuSans-31" transform="translate(1484.960938 0)"/>
     <use xlink:href="#DejaVuSans-20" transform="translate(1548.583984 0)"/>
     <use xlink:href="#DejaVuSans-2014" transform="translate(1580.371094 0)"/>
     <use xlink:href="#DejaVuSans-20" transform="translate(1680.371094 0)"/>
     <use xlink:href="#DejaVuSans-73" transform="translate(1712.158203 0)"/>
     <use xlink:href="#DejaVuSans-69" transform="translate(1764.257812 0)"/>
     <use xlink:href="#DejaVuSans-6e" transform="translate(1792.041016 0)"/>
     <use xlink:href="#DejaVuSans-67" transform="translate(1855.419922 0)"/>
     <use xlink:href="#DejaVuSans-6c" transform="translate(1918.896484 0)"/>
     <use xlink:href="#DejaVuSans-65" transform="translate(1946.679688 0)"/>
     <use xlink:href="#DejaVuSans-20" transform="translate(2008.203125 0)"/>
     <use xlink:href="#DejaVuSans-72" transform="translate(2039.990234 0)"/>
     <use xlink:href="#DejaVuSans-75" transform="translate(2081.103516 0)"/>
     <use xlink:href="#DejaVuSans-6e" transform="translate(2144.482422 0)"/>
     <use xlink:href="#DejaVuSans-20" transform="translate(2207.861328 0)"/>
     <use xlink:href="#DejaVuSans-28" transform="translate(2239.648438 0)"/>
     <use xlink:href="#DejaVuSans-6c" transform="translate(2278.662109 0)"/>
     <use xlink:href="#DejaVuSans-6f" transform="translate(2306.445312 0)"/>
     <use xlink:href="#DejaVuSans-67" transform="translate(2367.626953 0)"/>
     <use xlink:href="#DejaVuSans-20" transform="translate(2431.103516 0)"/>
     <use xlink:href="#DejaVuSans-79" transform="translate(2462.890625 0)"/>
     <use xlink:href="#DejaVuSans-29" transform="translate(2522.070312 0)"/>
    </g>
   </g>
   <g id="legend_1">
    <g id="patch_7">
     <path d="M 603.037125 85.64125 
L 759.757906 85.64125 
Q 761.957906 85.64125 761.957906 83.44125 
L 761.957906 29.8575 
Q 761.957906 27.6575 759.757906 27.6575 
L 603.037125 27.6575 
Q 600.837125 27.6575 600.837125 29.8575 
L 600.837125 83.44125 
Q 600.837125 85.64125 603.037125 85.64125 
z
" style="fill: #ffffff; opacity: 0.9; stroke: #cccccc; stroke-linejoin: miter"/>
    </g>
    <g id="line2d_25">
     <path d="M 605.237125 36.565781 
L 616.237125 36.565781 
L 627.237125 36.565781 
" style="fill: none; stroke: #1f77b4; stroke-opacity: 0.95; stroke-width: 2.2; stroke-linecap: square"/>
     <g>
      <use xlink:href="#m198cdeca37" x="616.237125" y="36.565781" style="fill: #1f77b4; fill-opacity: 0.95; stroke: #000000; stroke-opacity: 0.95; stroke-width: 0.6"/>
     </g>
    </g>
    <g id="text_11">
     <!-- Fixed LA (k=5, =0.5) -->
     <g transform="translate(636.037125 40.415781) scale(0.11 -0.11)">
      <defs>
       <path id="DejaVuSans-46" d="M 628 4666 
L 3309 4666 
L 3309 4134 
L 1259 4134 
L 1259 2759 
L 3109 2759 
L 3109 2228 
L 1259 2228 
L 1259 0 
L 628 0 
L 628 4666 
z
" transform="scale(0.015625)"/>
       <path id="DejaVuSans-78" d="M 3513 3500 
L 2247 1797 
L 3578 0 
L 2900 0 
L 1881 1375 
L 863 0 
L 184 0 
L 1544 1831 
L 300 3500 
L 978 3500 
L 1906 2253 
L 2834 3500 
L 3513 3500 
z
" transform="scale(0.015625)"/>
       <path id="DejaVuSans-4c" d="M 628 4666 
L 1259 4666 
L 1259 531 
L 3531 531 
L 3531 0 
L 628 0 
L 628 4666 
z
" transform="scale(0.015625)"/>
       <path id="DejaVuSans-41" d="M 2188 4044 
L 1331 1722 
L 3047 1722 
L 2188 4044 
z
M 1831 4666 
L 2547 4666 
L 4325 0 
L 3669 0 
L 3244 1197 
L 1141 1197 
L 716 0 
L 50 0 
L 1831 4666 
z
" transform="scale(0.015625)"/>
       <path id="DejaVuSans-6b" d="M 581 4863 
L 1159 4863 
L 1159 1991 
L 2875 3500 
L 3609 3500 
L 1753 1863 
L 3688 0 
L 2938 0 
L 1159 1709 
L 1159 0 
L 581 0 
L 581 4863 
z
" transform="scale(0.015625)"/>
       <path id="DejaVuSans-3b1" d="M 2644 1628 
L 2506 2350 
Q 2366 3091 1809 3091 
Q 1391 3091 1200 2747 
Q 959 2316 959 1747 
Q 959 1059 1194 731 
Q 1431 397 1809 397 
Q 2228 397 2453 1063 
L 2644 1628 
z
M 2966 2584 
L 3275 3500 
L 3788 3500 
L 3147 1603 
L 3272 919 
Q 3300 766 3409 638 
Q 3538 488 3638 488 
L 3913 488 
L 3913 0 
L 3569 0 
Q 3275 0 3013 263 
Q 2884 394 2831 669 
Q 2688 322 2394 50 
Q 2256 -78 1809 -78 
Q 1075 -78 719 397 
Q 353 888 353 1747 
Q 353 2666 750 3097 
Q 1191 3578 1809 3578 
Q 2781 3578 2966 2584 
z
" transform="scale(0.015625)"/>
      </defs>
      <use xlink:href="#DejaVuSans-46"/>
      <use xlink:href="#DejaVuSans-69" transform="translate(50.269531 0)"/>
      <use xlink:href="#DejaVuSans-78" transform="translate(78.052734 0)"/>
      <use xlink:href="#DejaVuSans-65" transform="translate(134.107422 0)"/>
      <use xlink:href="#DejaVuSans-64" transform="translate(195.630859 0)"/>
      <use xlink:href="#DejaVuSans-20" transform="translate(259.107422 0)"/>
      <use xlink:href="#DejaVuSans-4c" transform="translate(290.894531 0)"/>
      <use xlink:href="#DejaVuSans-41" transform="translate(348.857422 0)"/>
      <use xlink:href="#DejaVuSans-20" transform="translate(417.265625 0)"/>
      <use xlink:href="#DejaVuSans-28" transform="translate(449.052734 0)"/>
      <use xlink:href="#DejaVuSans-6b" transform="translate(488.066406 0)"/>
      <use xlink:href="#DejaVuSans-3d" transform="translate(545.976562 0)"/>
      <use xlink:href="#DejaVuSans-35" transform="translate(629.765625 0)"/>
      <use xlink:href="#DejaVuSans-2c" transform="translate(693.388672 0)"/>
      <use xlink:href="#DejaVuSans-20" transform="translate(725.175781 0)"/>
      <use xlink:href="#DejaVuSans-3b1" transform="translate(756.962891 0)"/>
      <use xlink:href="#DejaVuSans-3d" transform="translate(822.880859 0)"/>
      <use xlink:href="#DejaVuSans-30" transform="translate(906.669922 0)"/>
      <use xlink:href="#DejaVuSans-2e" transform="translate(970.292969 0)"/>
      <use xlink:href="#DejaVuSans-35" transform="translate(1002.080078 0)"/>
      <use xlink:href="#DejaVuSans-29" transform="translate(1065.703125 0)"/>
     </g>
    </g>
    <g id="line2d_26">
     <path d="M 605.237125 49.411719 
L 616.237125 49.411719 
L 627.237125 49.411719 
" style="fill: none; stroke: #2ca02c; stroke-opacity: 0.95; stroke-width: 2.2; stroke-linecap: square"/>
     <g>
      <use xlink:href="#m24b3da0cd2" x="616.237125" y="49.411719" style="fill: #2ca02c; fill-opacity: 0.95; stroke: #000000; stroke-opacity: 0.95; stroke-width: 0.6; stroke-linejoin: miter"/>
     </g>
    </g>
    <g id="text_12">
     <!-- Modal LA (updated) -->
     <g transform="translate(636.037125 53.261719) scale(0.11 -0.11)">
      <defs>
       <path id="DejaVuSans-4d" d="M 628 4666 
L 1569 4666 
L 2759 1491 
L 3956 4666 
L 4897 4666 
L 4897 0 
L 4281 0 
L 4281 4097 
L 3078 897 
L 2444 897 
L 1241 4097 
L 1241 0 
L 628 0 
L 628 4666 
z
" transform="scale(0.015625)"/>
      </defs>
      <use xlink:href="#DejaVuSans-4d"/>
      <use xlink:href="#DejaVuSans-6f" transform="translate(86.279297 0)"/>
      <use xlink:href="#DejaVuSans-64" transform="translate(147.460938 0)"/>
      <use xlink:href="#DejaVuSans-61" transform="translate(210.9375 0)"/>
      <use xlink:href="#DejaVuSans-6c" transform="translate(272.216797 0)"/>
      <use xlink:href="#DejaVuSans-20" transform="translate(300 0)"/>
      <use xlink:href="#DejaVuSans-4c" transform="translate(331.787109 0)"/>
      <use xlink:href="#DejaVuSans-41" transform="translate(389.75 0)"/>
      <use xlink:href="#DejaVuSans-20" transform="translate(458.158203 0)"/>
      <use xlink:href="#DejaVuSans-28" transform="translate(489.945312 0)"/>
      <use xlink:href="#DejaVuSans-75" transform="translate(528.958984 0)"/>
      <use xlink:href="#DejaVuSans-70" transform="translate(592.337891 0)"/>
      <use xlink:href="#DejaVuSans-64" transform="translate(655.814453 0)"/>
      <use xlink:href="#DejaVuSans-61" transform="translate(719.291016 0)"/>
      <use xlink:href="#DejaVuSans-74" transform="translate(780.570312 0)"/>
      <use xlink:href="#DejaVuSans-65" transform="translate(819.779297 0)"/>
      <use xlink:href="#DejaVuSans-64" transform="translate(881.302734 0)"/>
      <use xlink:href="#DejaVuSans-29" transform="translate(944.779297 0)"/>
     </g>
    </g>
    <g id="line2d_27">
     <path d="M 605.237125 62.257656 
L 616.237125 62.257656 
L 627.237125 62.257656 
" style="fill: none; stroke: #ff7f0e; stroke-opacity: 0.95; stroke-width: 2.2; stroke-linecap: square"/>
     <g>
      <use xlink:href="#m2065a7ca95" x="616.237125" y="62.257656" style="fill: #ff7f0e; fill-opacity: 0.95; stroke: #000000; stroke-opacity: 0.95; stroke-width: 0.6; stroke-linejoin: miter"/>
     </g>
    </g>
    <g id="text_13">
     <!-- Extragradient (EG) -->
     <g transform="translate(636.037125 66.107656) scale(0.11 -0.11)">
      <defs>
       <path id="DejaVuSans-45" d="M 628 4666 
L 3578 4666 
L 3578 4134 
L 1259 4134 
L 1259 2753 
L 3481 2753 
L 3481 2222 
L 1259 2222 
L 1259 531 
L 3634 531 
L 3634 0 
L 628 0 
L 628 4666 
z
" transform="scale(0.015625)"/>
       <path id="DejaVuSans-47" d="M 3809 666 
L 3809 1919 
L 2778 1919 
L 2778 2438 
L 4434 2438 
L 4434 434 
Q 4069 175 3628 42 
Q 3188 -91 2688 -91 
Q 1594 -91 976 548 
Q 359 1188 359 2328 
Q 359 3472 976 4111 
Q 1594 4750 2688 4750 
Q 3144 4750 3555 4637 
Q 3966 4525 4313 4306 
L 4313 3634 
Q 3963 3931 3569 4081 
Q 3175 4231 2741 4231 
Q 1884 4231 1454 3753 
Q 1025 3275 1025 2328 
Q 1025 1384 1454 906 
Q 1884 428 2741 428 
Q 3075 428 3337 486 
Q 3600 544 3809 666 
z
" transform="scale(0.015625)"/>
      </defs>
      <use xlink:href="#DejaVuSans-45"/>
      <use xlink:href="#DejaVuSans-78" transform="translate(63.183594 0)"/>
      <use xlink:href="#DejaVuSans-74" transform="translate(122.363281 0)"/>
      <use xlink:href="#DejaVuSans-72" transform="translate(161.572266 0)"/>
      <use xlink:href="#DejaVuSans-61" transform="translate(202.685547 0)"/>
      <use xlink:href="#DejaVuSans-67" transform="translate(263.964844 0)"/>
      <use xlink:href="#DejaVuSans-72" transform="translate(327.441406 0)"/>
      <use xlink:href="#DejaVuSans-61" transform="translate(368.554688 0)"/>
      <use xlink:href="#DejaVuSans-64" transform="translate(429.833984 0)"/>
      <use xlink:href="#DejaVuSans-69" transform="translate(493.310547 0)"/>
      <use xlink:href="#DejaVuSans-65" transform="translate(521.09375 0)"/>
      <use xlink:href="#DejaVuSans-6e" transform="translate(582.617188 0)"/>
      <use xlink:href="#DejaVuSans-74" transform="translate(645.996094 0)"/>
      <use xlink:href="#DejaVuSans-20" transform="translate(685.205078 0)"/>
      <use xlink:href="#DejaVuSans-28" transform="translate(716.992188 0)"/>
      <use xlink:href="#DejaVuSans-45" transform="translate(756.005859 0)"/>
      <use xlink:href="#DejaVuSans-47" transform="translate(819.189453 0)"/>
      <use xlink:href="#DejaVuSans-29" transform="translate(896.679688 0)"/>
     </g>
    </g>
    <g id="line2d_28">
     <path d="M 605.237125 75.103594 
L 616.237125 75.103594 
L 627.237125 75.103594 
" style="fill: none; stroke: #8c564b; stroke-opacity: 0.95; stroke-width: 2.2; stroke-linecap: square"/>
     <g>
      <use xlink:href="#m6deaace89c" x="616.237125" y="75.103594" style="fill: #8c564b; fill-opacity: 0.95; stroke: #000000; stroke-opacity: 0.95; stroke-width: 0.6; stroke-linejoin: miter"/>
     </g>
    </g>
    <g id="text_14">
     <!-- OGDA -->
     <g transform="translate(636.037125 78.953594) scale(0.11 -0.11)">
      <defs>
       <path id="DejaVuSans-4f" d="M 2522 4238 
Q 1834 4238 1429 3725 
Q 1025 3213 1025 2328 
Q 1025 1447 1429 934 
Q 1834 422 2522 422 
Q 3209 422 3611 934 
Q 4013 1447 4013 2328 
Q 4013 3213 3611 3725 
Q 3209 4238 2522 4238 
z
M 2522 4750 
Q 3503 4750 4090 4092 
Q 4678 3434 4678 2328 
Q 4678 1225 4090 567 
Q 3503 -91 2522 -91 
Q 1538 -91 948 565 
Q 359 1222 359 2328 
Q 359 3434 948 4092 
Q 1538 4750 2522 4750 
z
" transform="scale(0.015625)"/>
      </defs>
      <use xlink:href="#DejaVuSans-4f"/>
      <use xlink:href="#DejaVuSans-47" transform="translate(78.710938 0)"/>
      <use xlink:href="#DejaVuSans-44" transform="translate(156.201172 0)"/>
      <use xlink:href="#DejaVuSans-41" transform="translate(231.453125 0)"/>
     </g>
    </g>
   </g>
  </g>
 </g>
 <defs>
  <clipPath id="p0f239e252d">
   <rect x="56.565" y="25.4575" width="707.592906" height="325.72"/>
  </clipPath>
 </defs>
</svg>
